<?xml version="1.0" encoding="UTF-8"?><svg id="_レイヤー_2" xmlns="http://www.w3.org/2000/svg" viewBox="0 0 273.5 57.5"><defs><style>.cls-1{stroke:#231815;}.cls-1,.cls-2{fill:none;stroke-miterlimit:10;}.cls-2{stroke:#000;}.cls-3{fill:#fff;}.cls-3,.cls-4{stroke-width:0px;}.cls-4{fill:#7f84c2;}</style></defs><g id="_レイヤー_1-2"><rect class="cls-4" x="3.5" y="3.5" width="270" height="54" rx="22.91" ry="22.91"/><rect class="cls-1" x=".5" y=".5" width="270" height="54" rx="22.91" ry="22.91"/><line class="cls-2" x1="13.57" y1="33.23" x2="239.75" y2="33.23"/><path class="cls-3" d="M252.78,36.49v-17.08l6.52,8.54-6.52,8.54Z"/><path class="cls-3" d="M55.77,14.95c-.5.54-1.02,1.02-1.51,1.44-.34-.34-1.08-.92-1.54-1.22,1.69-1.18,3.27-3.08,4.19-5l1.81.52c-.28.58-.6,1.14-.96,1.68h12.26v1.64h-1.95v3h2.69v1.68h-2.69v3h2.41v1.68h-17.12v-1.68h2.41v-3h-2.71v-1.68h2.71v-2.06ZM52.89,27.81c.98-.82,1.87-2.34,2.35-3.78l1.79.44c-.5,1.5-1.36,3.08-2.39,4.08l-1.75-.74ZM57.45,17.01h1.85v-3h-1.85v3ZM57.45,21.69h1.85v-3h-1.85v3ZM60.44,24.43c.26,1.18.48,2.72.5,3.64l-1.81.26c0-.94-.16-2.52-.4-3.72l1.71-.18ZM62.79,17.01v-3h-1.93v3h1.93ZM60.86,18.69v3h1.93v-3h-1.93ZM64.44,24.35c.52,1.14,1.04,2.68,1.22,3.64l-1.83.36c-.16-.96-.62-2.52-1.12-3.72l1.73-.28ZM66.34,14.01h-1.97v3h1.97v-3ZM66.34,18.69h-1.97v3h1.97v-3ZM68.43,23.95c.96,1.2,2.11,2.86,2.63,3.94l-1.87.66c-.48-1.06-1.55-2.78-2.51-4.04l1.75-.56Z"/><path class="cls-3" d="M77.64,18.77c.6.64,2.51,3.08,2.93,3.68l-1.18,1.46c-.34-.72-1.1-1.98-1.75-3.04v7.64h-1.73v-7.66c-.68,2-1.59,4.04-2.53,5.3-.16-.54-.6-1.36-.9-1.86,1.08-1.32,2.21-3.7,2.87-5.74h-2.53v-1.74h3.09v-6.54h1.73v6.54h3.11v1.74h-3.11v.22ZM73.87,16.27c-.08-1.22-.5-3.1-1-4.52l1.33-.34c.54,1.4.96,3.24,1.1,4.46l-1.43.4ZM80.88,11.69c-.5,1.56-1.12,3.42-1.61,4.58l-1.2-.38c.44-1.22.96-3.2,1.22-4.56l1.59.36ZM88.62,23.01v5.52h-1.73v-5.2l-5.9,1.08-.3-1.72,6.2-1.12v-11.38h1.73v11.06l2.21-.38.26,1.7-2.47.44ZM84.33,20.13c-.7-.74-2.11-1.78-3.29-2.42l.88-1.34c1.16.62,2.63,1.56,3.33,2.26l-.92,1.5ZM85.13,15.29c-.62-.78-1.97-1.86-3.11-2.58l.94-1.26c1.12.68,2.49,1.68,3.15,2.42l-.98,1.42Z"/><path class="cls-3" d="M104.44,14.19c1.65,1.68,4.14,3.14,6.54,3.88-.4.36-.94,1.04-1.2,1.5-2.67-.98-5.38-2.9-7.17-5.1v3.72h-1.83v-3.76c-1.77,2.26-4.48,4.2-7.11,5.24-.24-.42-.76-1.1-1.16-1.44,2.33-.78,4.76-2.32,6.4-4.04h-5.92v-1.62h7.79v-2.4h1.83v2.4h7.93v1.62h-6.1ZM107.35,26.47h3.29v1.68h-17.76v-1.68h3.33v-7.72h11.14v7.72ZM98,20.31v1.12h7.45v-1.12h-7.45ZM105.46,22.79h-7.45v1.16h7.45v-1.16ZM98,26.47h7.45v-1.18h-7.45v1.18Z"/><path class="cls-3" d="M122.61,26.25c.88.12,1.81.18,2.81.18.86,0,4.21,0,5.34-.04-.3.44-.62,1.34-.7,1.88h-4.74c-3.91,0-6.78-.66-8.59-3.8-.66,1.7-1.57,3.1-2.81,4.16-.3-.34-1.08-.98-1.53-1.28,2.19-1.64,3.21-4.44,3.63-7.94l1.91.18c-.12.92-.28,1.8-.48,2.62.7,1.86,1.81,2.92,3.25,3.52v-7.76h-4.6v-1.78h11.22v1.78h-4.7v2.94h5.7v1.74h-5.7v3.6ZM115.18,16.93h-1.81v-4.6h7.29v-2.14h1.97v2.14h7.37v4.6h-1.89v-2.84h-12.93v2.84Z"/><path class="cls-3" d="M148.68,14.81c-.44,2.04-1.35,5.22-2.97,7.34-1.81,2.38-4.3,4.28-7.93,5.42l-1.71-1.88c3.91-.96,6.16-2.66,7.79-4.76,1.38-1.74,2.23-4.3,2.49-6.14h-9.78c-.86,0-1.65.04-2.15.08v-2.24c.56.08,1.5.16,2.15.16h9.66c.34,0,.84-.02,1.28-.14l1.54,1c-.16.32-.26.76-.36,1.16Z"/><path class="cls-3" d="M164.66,16.11c0,.38.02.88.02,1.46h2.65c.46,0,1.16-.06,1.46-.12v1.96c-.4-.02-.98-.04-1.39-.04h-2.67c.06,2.46.12,5.48.14,7.44,0,.94-.7,1.54-1.69,1.54-.88,0-2.13-.06-2.97-.12l-.12-1.82c.8.12,1.81.2,2.37.2.36,0,.52-.22.52-.62,0-1.14-.02-3.02-.04-4.9-1.38,1.86-4.19,4.28-6.74,5.64l-1.38-1.58c2.91-1.36,5.84-3.82,7.21-5.78h-4.88c-.54,0-1.14.02-1.65.06v-1.98c.46.08,1.12.12,1.61.12h5.76c-.02-.58-.04-1.06-.06-1.46-.02-.42-.06-1-.14-1.48h2.07c-.08.44-.08,1-.08,1.48Z"/><path class="cls-3" d="M176.4,18.15h10.84c.96,0,1.73-.08,2.23-.12v2.48c-.44-.02-1.35-.1-2.23-.1h-10.84c-1.1,0-2.29.04-2.97.1v-2.48c.66.04,1.89.12,2.97.12Z"/><path class="cls-3" d="M201.35,13.99c-.6,1.9-2.41,7.56-3.41,10.2,2.71-.24,6.08-.62,8.21-.9-.76-1.52-1.57-2.98-2.27-3.9l1.93-.84c1.4,2.1,3.53,6.08,4.38,8.22l-2.11.96c-.26-.7-.62-1.58-1.04-2.5-3.17.38-9.55,1.08-12.14,1.32-.5.06-1.16.16-1.75.24l-.36-2.32c.62,0,1.39,0,1.99-.04.24-.02.52-.02.82-.04,1.12-2.86,3.01-8.84,3.57-10.86.28-.96.36-1.5.44-2.08l2.49.52c-.22.54-.46,1.14-.76,2.02Z"/><path class="cls-3" d="M21.82,40.39c.82-.5,1.63-.9,2.14-1.18.33-.19.58-.34.81-.53l.5.92c-.26.16-.54.3-.86.47-.66.33-1.69.82-2.64,1.44-.88.58-1.43,1.2-1.43,1.93,0,.79.75,1.25,2.23,1.25,1.06,0,2.39-.15,3.22-.35v1.13c-.81.14-1.91.25-3.18.25-1.92,0-3.34-.56-3.34-2.16,0-1.06.68-1.88,1.69-2.61-.46-.84-.97-1.96-1.42-3.03l.99-.42c.39,1.08.88,2.1,1.29,2.89ZM26.22,38.76l-.65.29c-.2-.41-.53-1.01-.8-1.4l.65-.27c.25.37.61.99.8,1.38ZM27.37,38.32l-.65.29c-.21-.43-.54-1.01-.82-1.38l.65-.27c.26.37.64,1,.82,1.36Z"/><path class="cls-3" d="M32.86,38.29c-.46.7-1.29,2.19-1.78,3.12.43-.33.9-.48,1.33-.48.71,0,1.17.45,1.21,1.26.02.52,0,1.3.04,1.76.03.46.35.64.73.64,1.01,0,1.61-1.26,1.88-2.41l.84.69c-.52,1.66-1.4,2.79-2.88,2.79-1.09,0-1.5-.67-1.53-1.32-.04-.57-.03-1.36-.06-1.85-.02-.39-.25-.63-.66-.63-.75,0-1.42.76-1.79,1.56-.28.59-.68,1.74-.82,2.25l-1.1-.37c.74-2.02,2.86-6.11,3.39-7.07.13-.25.28-.53.42-.88l1.12.45c-.09.13-.2.31-.32.49Z"/><path class="cls-3" d="M41.78,38.71c.51-.08,1.01-.19,1.46-.34l.03.92c-.5.14-1.12.27-1.78.36-.49,1.41-1.36,3.15-2.16,4.25l-.96-.49c.82-.98,1.64-2.52,2.09-3.65-.25,0-.49.02-.73.02-.38,0-.8,0-1.2-.03l-.07-.93c.39.04.87.06,1.27.06.33,0,.68,0,1.03-.04.15-.56.27-1.18.29-1.71l1.1.11c-.08.35-.22.91-.37,1.47ZM44.49,41.51c0,.33.04.91.07,1.48.86.31,1.55.81,2.06,1.26l-.53.85c-.39-.36-.9-.79-1.5-1.12v.28c0,.85-.51,1.54-1.82,1.54-1.16,0-2.09-.5-2.09-1.54,0-.94.85-1.6,2.08-1.6.3,0,.58.03.85.07-.03-.79-.08-1.73-.1-2.39h.98c-.02.42,0,.77,0,1.17ZM42.65,44.89c.76,0,1.01-.42,1.01-.96,0-.09,0-.21,0-.34-.29-.08-.6-.13-.93-.13-.66,0-1.11.3-1.11.71,0,.43.36.72,1.04.72ZM44.03,39.32l.51-.77c.72.32,1.89.98,2.39,1.34l-.57.83c-.55-.46-1.65-1.09-2.33-1.4Z"/><path class="cls-3" d="M51.73,42.06c-.39.13-.78.25-1.17.37v3.58h-.86v-3.31l-1.56.48-.24-.89c.5-.13,1.13-.3,1.8-.49v-2.1h-.8c-.12.53-.26,1.01-.41,1.39-.15-.12-.49-.32-.68-.42.35-.81.53-2.07.63-3.26l.79.13c-.05.43-.1.86-.16,1.28h.63v-1.98h.86v1.98h.93v.88h-.93v1.84l1.05-.3.12.82ZM57.01,38.45s0,.32,0,.44c-.22,4.49-.41,6.07-.8,6.56-.21.3-.41.39-.73.44-.27.05-.69.04-1.13.02,0-.27-.11-.65-.26-.91.42.04.79.04.98.04.16,0,.26-.04.36-.18.29-.33.5-1.75.68-5.55h-.28c-.51,2.58-1.57,5.21-3.19,6.51-.18-.17-.51-.41-.77-.55,1.6-1.15,2.65-3.54,3.15-5.96h-.67c-.44,1.68-1.3,3.51-2.36,4.45-.17-.17-.47-.4-.72-.53,1.03-.8,1.84-2.38,2.3-3.92h-.71c-.31.72-.67,1.35-1.08,1.84-.15-.13-.52-.41-.72-.53.81-.88,1.38-2.3,1.7-3.78l.84.16c-.11.5-.26.99-.41,1.45h3.81Z"/><path class="cls-3" d="M60.95,37.14c-.26.73-.6,1.46-.98,2.16v6.7h-.88v-5.3c-.25.35-.52.69-.78.97-.09-.22-.35-.72-.51-.94.91-.94,1.75-2.39,2.27-3.85l.87.26ZM67,42.62h-2.64v3.39h-.93v-3.39h-2.76v-.91h2.76v-1.98h-1.42c-.2.54-.42,1.03-.67,1.41-.18-.13-.58-.35-.8-.45.56-.8.97-2.08,1.19-3.33l.9.18c-.09.43-.2.86-.32,1.28h1.12v-1.86h.93v1.86h2.19v.91h-2.19v1.98h2.64v.91Z"/><path class="cls-3" d="M69.13,38.48c.73-.07,2.5-.24,4.33-.4,1.07-.09,2.06-.15,2.75-.17v1.01c-.56,0-1.42,0-1.94.14-1.33.4-2.2,1.83-2.2,3.01,0,1.82,1.69,2.43,3.34,2.5l-.36,1.07c-1.95-.1-4-1.15-4-3.35,0-1.51.89-2.72,1.69-3.25-1.01.1-3.33.34-4.44.58l-.1-1.09c.38,0,.73-.03.93-.05ZM75.6,41.41l-.62.28c-.24-.51-.5-.97-.8-1.4l.6-.26c.24.35.61.96.82,1.38ZM76.73,40.96l-.61.29c-.26-.51-.52-.95-.84-1.38l.6-.27c.24.34.63.94.85,1.36Z"/><path class="cls-3" d="M81.79,38.09c-.03.22-.07.53-.12.91.74,0,1.4-.05,1.93-.13l-.03.94c-.62.06-1.19.1-2,.1h-.02c-.07.52-.14,1.09-.2,1.61h.14c.65,0,1.37-.03,2.04-.12l-.03.94c-.61.06-1.22.1-1.86.1h-.38c-.03.35-.05.66-.05.87,0,.91.53,1.44,1.59,1.44,1.46,0,2.33-.65,2.33-1.59,0-.68-.36-1.38-1.06-2l1.11-.23c.67.79,1,1.49,1,2.35,0,1.5-1.33,2.48-3.4,2.48-1.44,0-2.55-.63-2.55-2.29,0-.26.03-.64.07-1.09-.73-.06-1.42-.18-1.99-.34l.05-.96c.65.23,1.37.34,2.04.4.07-.53.14-1.09.21-1.62-.72-.06-1.46-.19-2.07-.35l.05-.92c.61.2,1.38.32,2.12.38.05-.36.08-.68.1-.94.03-.4.03-.59,0-.79l1.12.06c-.07.31-.11.55-.15.79Z"/><path class="cls-3" d="M91.66,44.79c-.82.51-2.09.99-3.1,1.26-.16-.18-.49-.53-.7-.69,1.05-.2,2.25-.57,2.95-.95l.85.38ZM96.26,37.28v2.3h-7.72v-2.3h7.72ZM95.7,40.08v4.31h-6.6v-4.31h6.6ZM89.41,38.87h1.42v-.88h-1.42v.88ZM90.03,41.33h4.71v-.63h-4.71v.63ZM90.03,42.54h4.71v-.62h-4.71v.62ZM90.03,43.78h4.71v-.65h-4.71v.65ZM91.62,38.87h1.46v-.88h-1.46v.88ZM93.81,44.42c1.11.34,2.35.8,3.1,1.13l-.99.48c-.64-.32-1.74-.77-2.84-1.12l.73-.49ZM93.86,38.87h1.5v-.88h-1.5v.88Z"/><path class="cls-3" d="M99.63,39.26c-.01.63,0,1.47.07,2.25.15,1.57.56,2.63,1.23,2.63.5,0,.94-1.09,1.17-2l.79.93c-.63,1.71-1.25,2.3-1.97,2.3-1.01,0-1.93-.96-2.2-3.59-.1-.88-.11-2.08-.11-2.68,0-.25-.02-.67-.08-.94l1.22.02c-.05.29-.1.81-.1,1.08ZM106.61,43.5l-1.03.4c-.17-1.72-.74-3.94-1.74-5.14l.99-.33c.92,1.16,1.65,3.45,1.78,5.07Z"/><path class="cls-3" d="M116.62,38.29c-.23,2.15-.76,3.83-1.52,5.12.52.74,1.16,1.34,1.93,1.75-.21.18-.51.53-.64.76-.74-.43-1.36-.99-1.87-1.68-.54.69-1.19,1.23-1.9,1.66-.13-.22-.38-.54-.58-.72v.82h-.9v-1.71c-1.21.2-2.43.4-3.36.55l-.17-.93c.28-.03.59-.08.94-.12v-5.49h-.73v-.86h4.88v.72h3.16l.16-.03.6.16ZM109.43,38.3v1.16h1.7v-1.16h-1.7ZM109.43,41.51h1.7v-1.22h-1.7v1.22ZM111.14,43.43v-1.08h-1.7v1.32l1.7-.24ZM112.03,45.13c.74-.39,1.39-.98,1.93-1.74-.65-1.15-1.1-2.54-1.42-4.11l.9-.18c.23,1.24.58,2.39,1.08,3.38.5-.95.87-2.1,1.08-3.41h-3.16v-.77h-.41v6.83Z"/><path class="cls-3" d="M120.31,39.75c.44-.91,1.39-1.98,2.6-1.98,1.36,0,2.36,1.34,2.36,3.49,0,2.79-1.73,4.07-4.27,4.54l-.6-.91c2.18-.34,3.82-1.15,3.82-3.63,0-1.56-.53-2.58-1.47-2.58-1.22,0-2.32,1.8-2.41,3.12-.03.33-.03.67.04,1.15l-.98.07c-.05-.38-.11-.96-.11-1.62,0-.94.16-2.31.29-3.22.05-.34.07-.67.08-.95l1.09.05c-.17.63-.37,1.84-.43,2.47Z"/><path class="cls-3" d="M133,37.91c0,.12,0,.31-.02.53.86-.04,1.73-.13,2.62-.28v.92c-.74.09-1.66.18-2.63.22v1.24c.99-.04,1.86-.13,2.73-.25v.93c-.93.11-1.75.18-2.71.22.02.46.05.94.07,1.39,1.29.36,2.28,1.06,2.86,1.53l-.58.89c-.57-.52-1.33-1.09-2.23-1.46,0,.21.02.38.02.52,0,.76-.55,1.45-1.85,1.45-1.49,0-2.3-.56-2.3-1.56s.89-1.61,2.37-1.61c.26,0,.5.02.74.04,0-.39-.03-.8-.04-1.17h-.55c-.64,0-1.74-.05-2.43-.13v-.94c.67.11,1.84.18,2.45.18h.51v-1.23h-.41c-.66,0-1.85-.1-2.5-.18v-.91c.66.12,1.85.22,2.49.22h.43v-.61c0-.17,0-.47-.05-.63h1.07c-.02.18-.04.4-.05.68ZM131.15,44.87c.56,0,.99-.17.99-.81,0-.14,0-.34,0-.56-.29-.06-.6-.09-.91-.09-.85,0-1.31.33-1.31.73,0,.43.38.73,1.24.73Z"/><path class="cls-3" d="M143.51,37.98c-.01.12-.01.3-.01.5h2.99l-.02.94c-.59-.03-1.53-.05-2.98-.05,0,.54,0,1.12,0,1.57.23.36.35.82.35,1.33,0,1.33-.71,2.9-3.07,3.59l-.85-.84c1.18-.26,2.09-.7,2.57-1.47-.2.1-.44.15-.7.15-.81,0-1.67-.6-1.67-1.74,0-1.05.85-1.8,1.85-1.8.2,0,.39.02.56.07,0-.26,0-.56,0-.85-1.51.02-3.15.08-4.38.16l-.03-.96c1.13-.02,2.98-.07,4.4-.09,0-.22,0-.39-.02-.51-.03-.32-.06-.63-.08-.73h1.15c-.03.13-.06.59-.06.73ZM141.97,42.83c.52,0,.91-.41.78-1.35-.16-.33-.45-.48-.78-.48-.46,0-.91.34-.91.94,0,.55.43.89.91.89Z"/><path class="cls-3" d="M150.6,44.56c0-.48.33-.82.76-.82s.78.34.78.82-.34.8-.78.8-.76-.33-.76-.8ZM150.82,38.88l-.03-1.19h1.16l-.04,1.19-.16,4h-.77l-.16-4Z"/><path class="cls-3" d="M158.96,37.72c.43,0,2.4-.09,2.99-.16.28-.03.48-.07.61-.11l.63.73c-.17.1-.47.31-.64.45-.73.59-1.97,1.64-2.72,2.23,1.43-.15,3.17-.28,4.5-.28v.94c-.96-.05-1.93-.05-2.54.03-.94.14-1.81.89-1.81,1.77s.73,1.24,1.63,1.36c.57.07,1.1.05,1.46.02l-.21,1.04c-2.48.1-3.88-.66-3.88-2.26,0-.75.52-1.43.97-1.75-1,.08-2.23.23-3.35.42l-.09-.95c.54-.05,1.23-.14,1.73-.2,1-.68,2.46-1.96,3.08-2.51-.43.03-1.94.1-2.36.13-.26.02-.57.06-.83.08l-.05-1.02c.28.03.55.04.87.04Z"/><path class="cls-3" d="M170.9,45.61l-.59-.94c.34-.03.64-.08.89-.14,1.28-.29,2.41-1.23,2.41-2.84,0-1.45-.88-2.6-2.41-2.79-.14.9-.31,1.87-.6,2.81-.6,2.04-1.42,3.17-2.41,3.17s-1.89-1.1-1.89-2.77c0-2.24,1.95-4.16,4.45-4.16s3.91,1.68,3.91,3.77-1.33,3.54-3.76,3.89ZM168.22,43.69c.45,0,.92-.65,1.38-2.19.25-.79.43-1.7.55-2.58-1.79.29-2.84,1.85-2.84,3.09,0,1.15.49,1.68.92,1.68Z"/><path class="cls-3" d="M178.92,37.15c-.26.69-.6,1.4-.97,2.07v6.79h-.91v-5.36c-.27.37-.55.71-.83,1.01-.09-.22-.36-.71-.51-.93.94-.93,1.82-2.39,2.36-3.85l.85.27ZM183.45,45.05c.59,0,.7-.27.79-1.42.21.15.59.32.84.37-.14,1.42-.42,1.88-1.56,1.88h-2.41c-1.29,0-1.66-.32-1.66-1.54v-3l-.87.35-.37-.83,1.24-.48v-2.5h.92v2.14l1.25-.48v-2.67h.88v2.33l1.29-.5.14-.11.16-.13.64.26-.04.14c0,1.78-.03,3.11-.11,3.53-.06.47-.26.69-.57.79-.29.1-.74.11-1.05.1-.02-.25-.11-.64-.22-.85.25.01.57.01.7.01.15,0,.24-.04.3-.26.05-.24.07-1.09.08-2.54l-1.32.51v3.6h-.88v-3.25l-1.25.48v3.37c0,.58.12.7.81.7h2.29Z"/><path class="cls-3" d="M188.41,40.57c.35.36,1.24,1.41,1.43,1.67l-.56.75c-.17-.33-.54-.88-.88-1.36v4.38h-.89v-4.41c-.36,1.03-.82,2.01-1.29,2.63-.1-.26-.32-.64-.46-.85.67-.82,1.32-2.29,1.63-3.57h-1.41v-.88h1.52v-2.09h.89v2.09h1.33v.88h-1.33v.76ZM194.67,37.4v8.49h-.93v-.54h-2.71v.59h-.89v-8.54h4.52ZM191.04,38.28v1.47h2.71v-1.47h-2.71ZM191.04,42.12h2.71v-1.52h-2.71v1.52ZM193.75,44.5v-1.53h-2.71v1.53h2.71Z"/><path class="cls-3" d="M199.54,39.23h-3.72v-.74h3.72v.74ZM199.21,45.47h-2.14v.42h-.8v-3.36h2.94v2.94ZM199.2,40.57h-2.92v-.72h2.92v.72ZM196.28,41.18h2.92v.73h-2.92v-.73ZM199.18,37.9h-2.86v-.73h2.86v.73ZM197.06,43.28v1.44h1.34v-1.44h-1.34ZM202.73,42.45c0,.59.37,2.05,2.31,2.79-.16.21-.42.57-.54.79-1.4-.55-2.08-1.76-2.24-2.36-.17.61-.92,1.77-2.49,2.36-.11-.21-.35-.57-.53-.75,2.13-.76,2.54-2.23,2.54-2.83v-1.46h.95v1.46ZM199.41,43.48c.46-.36.76-1.05.9-1.74l.82.17c-.13.75-.46,1.53-.97,1.99l-.75-.42ZM204.34,41.34c-.47-.43-1.35-1.05-2.15-1.56-.39.73-1.04,1.26-2.15,1.64-.1-.22-.34-.56-.53-.74,2.04-.63,2.27-1.79,2.36-3.84h.91c-.04.83-.11,1.55-.28,2.16.86.5,1.9,1.17,2.45,1.63l-.61.71ZM201.17,37.62c-.09.67-.36,1.4-.81,1.82l-.71-.34c.39-.35.65-1.01.76-1.63l.76.15ZM203.12,43.41c.31-.46.68-1.22.88-1.74l.91.3c-.35.6-.75,1.28-1.07,1.71l-.72-.27ZM204.8,37.71c-.32.57-.69,1.19-.98,1.59l-.69-.27c.28-.44.61-1.13.78-1.61l.89.29Z"/><path class="cls-3" d="M209.76,38.09c-.03.22-.07.53-.12.91.74,0,1.4-.05,1.93-.13l-.03.94c-.62.06-1.19.1-2,.1h-.02c-.07.52-.14,1.09-.2,1.61h.14c.65,0,1.37-.03,2.04-.12l-.03.94c-.61.06-1.22.1-1.86.1h-.38c-.03.35-.05.66-.05.87,0,.91.53,1.44,1.59,1.44,1.46,0,2.33-.65,2.33-1.59,0-.68-.36-1.38-1.06-2l1.11-.23c.67.79,1,1.49,1,2.35,0,1.5-1.33,2.48-3.4,2.48-1.44,0-2.55-.63-2.55-2.29,0-.26.03-.64.07-1.09-.73-.06-1.42-.18-1.99-.34l.05-.96c.65.23,1.37.34,2.04.4.07-.53.14-1.09.21-1.62-.72-.06-1.46-.19-2.07-.35l.05-.92c.61.2,1.38.32,2.12.38.05-.36.08-.68.1-.94.03-.4.03-.59,0-.79l1.12.06c-.07.31-.11.55-.15.79Z"/><path class="cls-3" d="M218.41,41.52c0-2.37,1.3-3.79,3.19-3.79s3.2,1.42,3.2,3.79-1.32,3.84-3.2,3.84-3.19-1.47-3.19-3.84ZM223.61,41.52c0-1.73-.8-2.78-2.01-2.78s-2,1.05-2,2.78.79,2.83,2,2.83,2.01-1.11,2.01-2.83Z"/><path class="cls-3" d="M226.32,37.86h1.16v3.49h.03l2.79-3.49h1.29l-2.27,2.85,2.65,4.52h-1.29l-2.07-3.61-1.13,1.39v2.22h-1.16v-7.37Z"/><path class="cls-3" d="M232.9,44.56c0-.48.33-.82.76-.82s.78.34.78.82-.34.8-.78.8-.76-.33-.76-.8ZM233.12,38.88l-.03-1.19h1.16l-.04,1.19-.16,4h-.77l-.16-4Z"/></g></svg>