<?xml version="1.0" encoding="UTF-8"?><svg id="_レイヤー_2" xmlns="http://www.w3.org/2000/svg" viewBox="0 0 416 83"><defs><style>.cls-1{stroke:#231815;}.cls-1,.cls-2{fill:none;stroke-miterlimit:10;}.cls-3,.cls-4{stroke-width:0px;}.cls-4{fill:#7f84c2;}.cls-2{stroke:#000;stroke-width:.5px;}</style></defs><g id="_文字"><rect class="cls-1" x=".5" y=".5" width="415" height="82" rx="35" ry="35"/><path class="cls-3" d="M33.3,16.29c-.01.34-.03.78-.06,1.29.98-.11,1.99-.31,2.76-.53l.03,1.37c-.81.18-1.85.35-2.82.46-.01.56-.03,1.12-.03,1.62v.49c1.02-.29,2.06-.45,2.91-.45,2.09,0,3.66,1.12,3.66,2.91,0,1.67-.97,2.83-3.03,3.32-.63.14-1.26.18-1.78.21l-.5-1.43c.56.01,1.16.01,1.68-.1,1.18-.22,2.2-.84,2.2-2.02,0-1.08-.97-1.68-2.24-1.68-.98,0-1.95.17-2.87.46.01,1.16.06,2.34.06,2.9,0,1.48-.55,1.92-1.37,1.92-1.22,0-3.08-1.12-3.08-2.47,0-1.19,1.44-2.44,3.1-3.15v-.87c0-.49,0-1.02.01-1.56-.35.03-.66.04-.92.04-.85,0-1.39-.03-1.85-.07l-.04-1.34c.8.1,1.34.11,1.86.11.29,0,.62-.01.97-.04,0-.63.01-1.13.01-1.39,0-.29-.04-.85-.08-1.11h1.54c-.04.27-.08.74-.11,1.08ZM31.51,25.55c.28,0,.48-.18.48-.64s-.03-1.26-.04-2.17c-1.02.5-1.75,1.22-1.75,1.78s.84,1.04,1.32,1.04ZM40.91,18.77l-.69,1.12c-.67-.62-2.35-1.61-3.24-2.07l.62-1.06c1.04.52,2.61,1.47,3.31,2.02Z"/><path class="cls-3" d="M42.09,26.37c.97-.56,1.6-1.54,1.93-2.55l1.16.42c-.38,1.12-.95,2.23-2,2.9l-1.09-.77ZM43.98,18.86c-.29.25-.62.48-.95.7-.21-.31-.63-.74-.92-.95,1.83-1.09,3.08-2.63,3.74-3.94l1.4.27c-.15.27-.31.53-.48.8h3.45l.21-.04.9.57c-.29.53-.71,1.15-1.15,1.71h3v5.06h-4.85c.67.34,1.33.74,1.71,1.09l-.87.91c-.49-.5-1.57-1.16-2.47-1.56l.43-.45h-3.42v-1.06h8.17v-.98h-7.72v-.99h7.72v-.95h-7.9v-.18ZM46.01,16.8c-.31.41-.66.8-1.04,1.18h3.7c.28-.35.57-.77.83-1.18h-3.49ZM49.82,26.29c.53,0,.63-.18.69-1.44.27.2.78.38,1.12.45-.13,1.71-.5,2.12-1.68,2.12h-2.33c-1.53,0-1.88-.35-1.88-1.51v-1.89h1.26v1.88c0,.35.13.41.76.41h2.06ZM52.44,23.65c.94.8,2.03,1.96,2.52,2.8l-1.18.67c-.43-.81-1.48-2.02-2.42-2.86l1.08-.62Z"/><path class="cls-3" d="M61.41,15.42l1.5-.18c.07.52.17,1.06.29,1.58.95-.13,1.77-.31,2.4-.5l.18,1.28c-.6.15-1.36.32-2.24.42.08.29.18.57.27.84.08.24.18.49.29.76,1.13-.15,2.06-.39,2.73-.59l.22,1.3c-.66.17-1.48.35-2.41.48.27.55.56,1.07.87,1.53.17.24.34.45.56.66l-.69,1.04c-.78-.18-2.19-.34-3.18-.45l.11-1.07c.67.07,1.53.15,1.95.21-.36-.59-.67-1.18-.95-1.77-1.71.14-3.99.14-6.12,0l-.08-1.32c2.1.21,4.12.21,5.69.1-.07-.21-.15-.42-.22-.63-.13-.36-.24-.69-.34-.98-1.34.08-3.01.06-4.78-.1l-.08-1.29c1.68.2,3.21.25,4.51.2,0-.04-.01-.08-.03-.13-.13-.46-.28-.92-.45-1.39ZM58.83,24.33c0,1.11,1.01,1.62,3.05,1.62,1.32,0,2.41-.11,3.42-.31l-.07,1.4c-.98.17-2.16.25-3.33.25-2.76,0-4.4-.81-4.41-2.7-.01-.84.25-1.47.57-2.12l1.37.28c-.34.48-.6.95-.6,1.57ZM67.35,17.1l-.87.39c-.34-.71-.69-1.36-1.12-1.96l.85-.36c.34.48.84,1.33,1.13,1.93ZM68.91,16.47l-.85.41c-.36-.7-.73-1.32-1.18-1.92l.84-.38c.35.46.88,1.3,1.19,1.89Z"/><path class="cls-3" d="M77.05,27.02l-.83-1.32c.48-.04.9-.11,1.25-.2,1.79-.41,3.39-1.72,3.39-3.98,0-2.03-1.23-3.64-3.39-3.91-.2,1.26-.43,2.62-.84,3.94-.84,2.86-2,4.44-3.39,4.44s-2.66-1.54-2.66-3.88c0-3.14,2.75-5.83,6.26-5.83s5.49,2.35,5.49,5.28-1.88,4.96-5.28,5.45ZM73.28,24.33c.63,0,1.29-.91,1.93-3.07.35-1.11.6-2.38.77-3.61-2.52.41-3.99,2.59-3.99,4.33,0,1.61.69,2.35,1.29,2.35Z"/><path class="cls-3" d="M89.86,18.3c-.04.69-.1,1.39-.18,2.07h5.46s-.01.41-.04.6c-.25,3.89-.55,5.45-1.09,6.02-.36.39-.74.49-1.32.53-.5.04-1.43.03-2.37-.01-.01-.38-.2-.91-.45-1.27.97.08,1.95.1,2.34.1.31,0,.49-.03.67-.18.38-.32.64-1.64.84-4.55h-4.26c-.5,2.42-1.64,4.67-4.45,6.05-.2-.35-.59-.83-.94-1.08,3.81-1.75,4.19-5.17,4.34-8.28h-4.15v-1.25h5.5v-2.38h1.33v2.38h5.63v1.25h-6.88Z"/><path class="cls-3" d="M100.96,16.82c-.24,1.13-.69,4.05-.69,5.55,0,.5.03.98.11,1.5.2-.57.5-1.28.73-1.79l.7.55c-.38,1.06-.85,2.49-1.01,3.21-.04.2-.07.48-.07.64.01.14.03.35.04.52l-1.25.1c-.29-1-.55-2.55-.55-4.46,0-2.07.45-4.75.62-5.87.04-.35.1-.8.11-1.16l1.53.14c-.08.25-.22.83-.28,1.08ZM108.03,16.48c-.01.35-.03.95-.04,1.6.83-.07,1.61-.18,2.33-.32v1.36c-.73.11-1.51.21-2.33.27.01,1.4.11,2.66.15,3.74,1.16.46,2.06,1.18,2.76,1.81l-.76,1.18c-.66-.62-1.3-1.15-1.95-1.55v.07c0,1.29-.62,2.4-2.56,2.4s-3-.78-3-2.13,1.11-2.24,2.98-2.24c.39,0,.77.03,1.13.08-.06-.98-.11-2.19-.14-3.28-.39.01-.78.03-1.18.03-.81,0-1.58-.04-2.4-.1v-1.32c.78.08,1.57.13,2.41.13.39,0,.77-.01,1.16-.03v-1.65c0-.24-.04-.63-.08-.9h1.58c-.04.28-.07.59-.08.87ZM105.46,25.71c1.04,0,1.36-.53,1.36-1.42v-.38c-.42-.13-.85-.2-1.3-.2-.94,0-1.6.41-1.6,1.01,0,.66.64.98,1.54.98Z"/><path class="cls-3" d="M33.3,34.84c-.01.34-.03.78-.06,1.29.98-.11,1.99-.31,2.76-.53l.03,1.37c-.81.18-1.85.35-2.82.46-.01.56-.03,1.12-.03,1.62v.49c1.02-.29,2.06-.45,2.91-.45,2.09,0,3.66,1.12,3.66,2.91,0,1.67-.97,2.83-3.03,3.32-.63.14-1.26.18-1.78.21l-.5-1.43c.56.01,1.16.01,1.68-.1,1.18-.22,2.2-.84,2.2-2.02,0-1.08-.97-1.68-2.24-1.68-.98,0-1.95.17-2.87.46.01,1.16.06,2.34.06,2.9,0,1.48-.55,1.92-1.37,1.92-1.22,0-3.08-1.12-3.08-2.47,0-1.19,1.44-2.44,3.1-3.15v-.87c0-.49,0-1.02.01-1.56-.35.03-.66.04-.92.04-.85,0-1.39-.03-1.85-.07l-.04-1.34c.8.1,1.34.11,1.86.11.29,0,.62-.01.97-.04,0-.63.01-1.13.01-1.39,0-.29-.04-.85-.08-1.11h1.54c-.04.27-.08.74-.11,1.08ZM31.51,44.1c.28,0,.48-.18.48-.64s-.03-1.26-.04-2.17c-1.02.5-1.75,1.22-1.75,1.78s.84,1.04,1.32,1.04ZM40.91,37.32l-.69,1.12c-.67-.62-2.35-1.61-3.24-2.07l.62-1.06c1.04.52,2.61,1.47,3.31,2.02Z"/><path class="cls-3" d="M47.83,36.44h-4.13v1.85h-1.16v-2.75h5.29v-.71h-4.44v-.99h10.2v.99h-4.5v.71h5.39v2.75h-1.2v-1.85h-4.19v3.07h-1.26v-3.07ZM52.96,45.04c.7,0,.84-.24.92-1.54.27.2.76.38,1.11.42-.17,1.69-.55,2.13-1.96,2.13h-3.07c-1.72,0-2.2-.32-2.2-1.58v-.27h-2.75v.67h-1.25v-4.94h9.5v4.27h-4.26v.27c0,.49.17.57,1.04.57h2.91ZM44.08,38.47h3.14v.76h-3.14v-.76ZM47.2,37.07v.76h-2.84v-.76h2.84ZM45.02,40.83v.83h2.75v-.83h-2.75ZM47.76,43.27v-.8h-2.75v.8h2.75ZM51.99,40.83h-2.98v.83h2.98v-.83ZM51.99,43.27v-.8h-2.98v.8h2.98ZM52.61,37.07v.76h-2.87v-.76h2.87ZM49.74,38.47h3.22v.76h-3.22v-.76Z"/><path class="cls-3" d="M56.06,35.64h5.23v1.04h-5.23v-1.04ZM60.88,45.53h-3.07v.6h-1.12v-4.71h4.19v4.1ZM60.82,38.59h-4.1v-1.01h4.1v1.01ZM56.72,39.49h4.1v1.01h-4.1v-1.01ZM60.81,34.77h-4.01v-1.02h4.01v1.02ZM57.81,42.47v2.02h1.95v-2.02h-1.95ZM65.85,38.54v2.13h2.52v5.41h-1.29v-.62h-3.68v.69h-1.25v-5.48h2.37v-2.13h-3.14v-1.23h3.14v-1.97c-.84.1-1.68.2-2.48.25-.04-.32-.22-.81-.38-1.11,2.1-.18,4.54-.55,5.97-1l.91,1.07c-.77.22-1.71.42-2.69.59v2.17h3.15v1.23h-3.15ZM67.08,41.84h-3.68v2.44h3.68v-2.44Z"/><path class="cls-3" d="M71.85,35.58c1.02-.1,3.52-.34,6.09-.56,1.5-.13,2.9-.21,3.87-.24v1.42c-.78,0-2,.01-2.73.2-1.86.56-3.1,2.56-3.1,4.22,0,2.55,2.38,3.4,4.69,3.5l-.5,1.5c-2.75-.14-5.62-1.61-5.62-4.69,0-2.12,1.25-3.81,2.38-4.55-1.41.14-4.68.48-6.25.81l-.14-1.53c.53-.01,1.02-.04,1.3-.07ZM80.94,39.69l-.87.39c-.34-.71-.7-1.36-1.12-1.96l.84-.36c.34.49.85,1.34,1.15,1.93ZM82.54,39.05l-.85.41c-.36-.71-.73-1.33-1.18-1.93l.84-.38c.34.48.88,1.32,1.19,1.91Z"/><path class="cls-4" d="M119.4,27.44c0-3.94.55-6.2,1.87-7.88,1.52-1.95,3.51-2.77,6.67-2.77,3.39,0,5.54.98,7.02,3.24,1.05,1.6,1.52,3.82,1.52,7.41v7.33c0,3.94-.55,6.2-1.87,7.88-1.52,1.95-3.51,2.77-6.67,2.77-3.39,0-5.54-.97-7.02-3.24-1.05-1.6-1.52-3.78-1.52-7.41v-7.33ZM131.45,27.91c0-5.19-.9-6.98-3.51-6.98s-3.51,1.83-3.51,6.98v6.4c0,5.15.9,6.98,3.51,6.98s3.51-1.79,3.51-6.98v-6.4Z"/><path class="cls-4" d="M140.46,27.44c0-3.94.55-6.2,1.87-7.88,1.52-1.95,3.51-2.77,6.67-2.77,3.39,0,5.54.98,7.02,3.24,1.05,1.6,1.52,3.82,1.52,7.41v7.33c0,3.94-.55,6.2-1.87,7.88-1.52,1.95-3.51,2.77-6.67,2.77-3.39,0-5.54-.97-7.02-3.24-1.05-1.6-1.52-3.78-1.52-7.41v-7.33ZM152.51,27.91c0-5.19-.9-6.98-3.51-6.98s-3.51,1.83-3.51,6.98v6.4c0,5.15.9,6.98,3.51,6.98s3.51-1.79,3.51-6.98v-6.4Z"/><path class="cls-4" d="M161.52,27.44c0-3.94.55-6.2,1.87-7.88,1.52-1.95,3.51-2.77,6.67-2.77,3.39,0,5.54.98,7.02,3.24,1.05,1.6,1.52,3.82,1.52,7.41v7.33c0,3.94-.55,6.2-1.87,7.88-1.52,1.95-3.51,2.77-6.67,2.77-3.39,0-5.54-.97-7.02-3.24-1.05-1.6-1.52-3.78-1.52-7.41v-7.33ZM173.57,27.91c0-5.19-.9-6.98-3.51-6.98s-3.51,1.83-3.51,6.98v6.4c0,5.15.9,6.98,3.51,6.98s3.51-1.79,3.51-6.98v-6.4Z"/><path class="cls-4" d="M183.63,29.04h12.09v4.17h-12.09v-4.17Z"/><path class="cls-4" d="M200.79,27.44c0-3.94.55-6.2,1.87-7.88,1.52-1.95,3.51-2.77,6.67-2.77,3.39,0,5.54.98,7.02,3.24,1.05,1.6,1.52,3.82,1.52,7.41v7.33c0,3.94-.55,6.2-1.87,7.88-1.52,1.95-3.51,2.77-6.67,2.77-3.39,0-5.54-.97-7.02-3.24-1.05-1.6-1.52-3.78-1.52-7.41v-7.33ZM212.84,27.91c0-5.19-.9-6.98-3.51-6.98s-3.51,1.83-3.51,6.98v6.4c0,5.15.9,6.98,3.51,6.98s3.51-1.79,3.51-6.98v-6.4Z"/><path class="cls-4" d="M221.85,27.44c0-3.94.55-6.2,1.87-7.88,1.52-1.95,3.51-2.77,6.67-2.77,3.39,0,5.54.98,7.02,3.24,1.05,1.6,1.52,3.82,1.52,7.41v7.33c0,3.94-.55,6.2-1.87,7.88-1.52,1.95-3.51,2.77-6.67,2.77-3.39,0-5.54-.97-7.02-3.24-1.05-1.6-1.52-3.78-1.52-7.41v-7.33ZM233.9,27.91c0-5.19-.9-6.98-3.51-6.98s-3.51,1.83-3.51,6.98v6.4c0,5.15.9,6.98,3.51,6.98s3.51-1.79,3.51-6.98v-6.4Z"/><path class="cls-4" d="M242.91,27.44c0-3.94.55-6.2,1.87-7.88,1.52-1.95,3.51-2.77,6.67-2.77,3.39,0,5.54.98,7.02,3.24,1.05,1.6,1.52,3.82,1.52,7.41v7.33c0,3.94-.55,6.2-1.87,7.88-1.52,1.95-3.51,2.77-6.67,2.77-3.39,0-5.54-.97-7.02-3.24-1.05-1.6-1.52-3.78-1.52-7.41v-7.33ZM254.96,27.91c0-5.19-.9-6.98-3.51-6.98s-3.51,1.83-3.51,6.98v6.4c0,5.15.9,6.98,3.51,6.98s3.51-1.79,3.51-6.98v-6.4Z"/><path class="cls-4" d="M265.02,29.04h12.09v4.17h-12.09v-4.17Z"/><path class="cls-4" d="M282.18,27.44c0-3.94.55-6.2,1.87-7.88,1.52-1.95,3.51-2.77,6.67-2.77,3.39,0,5.54.98,7.02,3.24,1.05,1.6,1.52,3.82,1.52,7.41v7.33c0,3.94-.55,6.2-1.87,7.88-1.52,1.95-3.51,2.77-6.67,2.77-3.39,0-5.54-.97-7.02-3.24-1.05-1.6-1.52-3.78-1.52-7.41v-7.33ZM294.23,27.91c0-5.19-.9-6.98-3.51-6.98s-3.51,1.83-3.51,6.98v6.4c0,5.15.9,6.98,3.51,6.98s3.51-1.79,3.51-6.98v-6.4Z"/><path class="cls-4" d="M303.24,27.44c0-3.94.55-6.2,1.87-7.88,1.52-1.95,3.51-2.77,6.67-2.77,3.39,0,5.54.98,7.02,3.24,1.05,1.6,1.52,3.82,1.52,7.41v7.33c0,3.94-.55,6.2-1.87,7.88-1.52,1.95-3.51,2.77-6.67,2.77-3.39,0-5.54-.97-7.02-3.24-1.05-1.6-1.52-3.78-1.52-7.41v-7.33ZM315.29,27.91c0-5.19-.9-6.98-3.51-6.98s-3.51,1.83-3.51,6.98v6.4c0,5.15.9,6.98,3.51,6.98s3.51-1.79,3.51-6.98v-6.4Z"/><path class="cls-4" d="M324.3,27.44c0-3.94.55-6.2,1.87-7.88,1.52-1.95,3.51-2.77,6.67-2.77,3.39,0,5.54.98,7.02,3.24,1.05,1.6,1.52,3.82,1.52,7.41v7.33c0,3.94-.55,6.2-1.87,7.88-1.52,1.95-3.51,2.77-6.67,2.77-3.39,0-5.54-.97-7.02-3.24-1.05-1.6-1.52-3.78-1.52-7.41v-7.33ZM336.35,27.91c0-5.19-.9-6.98-3.51-6.98s-3.51,1.83-3.51,6.98v6.4c0,5.15.9,6.98,3.51,6.98s3.51-1.79,3.51-6.98v-6.4Z"/><path class="cls-4" d="M345.36,27.44c0-3.94.55-6.2,1.87-7.88,1.52-1.95,3.51-2.77,6.67-2.77,3.39,0,5.54.98,7.02,3.24,1.05,1.6,1.52,3.82,1.52,7.41v7.33c0,3.94-.54,6.2-1.87,7.88-1.52,1.95-3.51,2.77-6.67,2.77-3.39,0-5.54-.97-7.02-3.24-1.05-1.6-1.52-3.78-1.52-7.41v-7.33ZM357.41,27.91c0-5.19-.9-6.98-3.51-6.98s-3.51,1.83-3.51,6.98v6.4c0,5.15.9,6.98,3.51,6.98s3.51-1.79,3.51-6.98v-6.4Z"/><line class="cls-2" x1="21.05" y1="52.95" x2="367.84" y2="52.95"/><path class="cls-3" d="M57.37,66.66c-.67,1.43-1.72,2.54-2.98,3.4,1.43.57,3.08.97,4.93,1.16-.28.29-.62.85-.8,1.23-2.07-.29-3.91-.83-5.46-1.62-1.64.81-3.54,1.32-5.53,1.64-.13-.34-.48-.9-.76-1.18,1.85-.22,3.56-.62,5.03-1.23-1.02-.7-1.88-1.57-2.55-2.58l.25-.11h-.6v-1.2h7.35l.24-.04.88.53ZM48.29,66.58h-1.22v-2.9h2.12c-.17-.49-.49-1.16-.8-1.67l1.13-.32c.38.53.74,1.27.9,1.75l-.76.24h3.03c-.07-.52-.34-1.34-.63-1.98l1.16-.25c.31.62.62,1.42.7,1.93l-1.18.29h2.79c.41-.66.85-1.57,1.12-2.26l1.36.36c-.36.63-.77,1.33-1.16,1.89h2.2v2.9h-1.27v-1.75h-9.48v1.75ZM58.39,60.68c-2.94.59-7.26.92-10.9,1.05-.01-.32-.15-.83-.28-1.11,3.6-.14,7.83-.49,10.27-1.01l.91,1.06ZM50.63,67.37c.62.81,1.44,1.5,2.45,2.06.95-.55,1.74-1.22,2.33-2.06h-4.78Z"/><path class="cls-3" d="M65.33,60.17c-.39.99-.87,2.02-1.41,2.96v9.38h-1.32v-7.35c-.39.53-.81,1.02-1.23,1.44-.14-.31-.53-1.01-.78-1.33,1.39-1.33,2.69-3.39,3.46-5.5l1.29.41ZM73.43,64.04h-1.67v6.83c0,.91-.24,1.28-.83,1.47-.59.21-1.57.24-3.1.22-.07-.36-.31-.95-.5-1.3,1.13.06,2.3.04,2.63.03.32-.01.45-.11.45-.42v-6.83h-5.48v-1.3h5.48v-2.9h1.34v2.9h1.67v1.3ZM67.63,69.28c-.38-.87-1.25-2.34-1.92-3.43l1.13-.53c.67,1.05,1.58,2.46,2,3.31l-1.22.66Z"/><path class="cls-3" d="M79.24,69.83h-2.91v1.18h-1.2v-10.44h4.12v9.26ZM76.32,61.74v2.82h1.68v-2.82h-1.68ZM78,68.66v-2.96h-1.68v2.96h1.68ZM85.89,65.09v1.4h1.5v1.15h-1.5v3.45c0,.67-.15,1.02-.62,1.22-.49.2-1.2.21-2.3.21-.06-.35-.24-.85-.42-1.22.78.03,1.56.03,1.77.03.22-.01.29-.07.29-.27v-3.42h-5.1v-1.15h5.1v-1.4h-5.14v-1.15h3.33v-1.54h-2.8v-1.13h2.8v-1.6h1.3v1.6h2.89v1.13h-2.89v1.54h3.4v1.15h-1.62ZM81.3,67.99c.67.7,1.44,1.65,1.75,2.33l-1.11.67c-.29-.67-1.02-1.67-1.69-2.4l1.05-.6Z"/><path class="cls-3" d="M90.6,65.12v7.42h-1.29v-12.3h5.17v4.88h-3.88ZM90.6,61.22v.97h2.65v-.97h-2.65ZM93.25,64.15v-1.04h-2.65v1.04h2.65ZM100.88,70.92c0,.74-.15,1.16-.66,1.39-.49.21-1.26.22-2.44.22-.06-.35-.24-.91-.41-1.27h-3.78v.7h-1.19v-5.87h5.25v5.13c.69.03,1.36.01,1.58.01.25-.01.32-.08.32-.32v-5.76h-3.98v-4.9h5.29v10.67ZM93.6,67.07v1.09h2.84v-1.09h-2.84ZM96.44,70.27v-1.16h-2.84v1.16h2.84ZM96.84,61.22v.97h2.73v-.97h-2.73ZM99.57,64.18v-1.06h-2.73v1.06h2.73Z"/><path class="cls-3" d="M107.88,62.82c0-.69.53-1.18,1.18-1.18s1.18.49,1.18,1.18-.53,1.16-1.18,1.16-1.18-.48-1.18-1.16ZM107.88,69.62c0-.7.53-1.18,1.18-1.18s1.18.48,1.18,1.18-.53,1.15-1.18,1.15-1.18-.48-1.18-1.15Z"/><path class="cls-3" d="M129.33,67.78h-5.62v4.76h-1.34v-4.76h-5.55v-1.32h5.55v-4.59h-4.82v-1.27h10.98v1.27h-4.82v4.59h5.62v1.32ZM119.64,62.44c.52.97,1.05,2.21,1.23,3.03l-1.25.42c-.18-.8-.66-2.1-1.16-3.08l1.18-.36ZM125.06,65.54c.48-.84,1.06-2.17,1.37-3.15l1.39.38c-.5,1.09-1.12,2.35-1.64,3.14l-1.12-.36Z"/><path class="cls-3" d="M141.76,60.58v11.75h-1.39v-.85h-6.6v.91h-1.33v-11.81h9.31ZM133.78,61.9v3.42h6.6v-3.42h-6.6ZM140.38,70.16v-3.56h-6.6v3.56h6.6Z"/><path class="cls-3" d="M148.76,70.11h2.26v-6.89h-1.85v-1.02c.97-.17,1.65-.42,2.24-.78h1.22v8.7h2.02v1.33h-5.88v-1.33Z"/><path class="cls-3" d="M156.19,66.38c0-3.38,1.29-5.17,3.33-5.17s3.33,1.81,3.33,5.17-1.27,5.24-3.33,5.24-3.33-1.86-3.33-5.24ZM161.32,66.38c0-2.89-.74-3.89-1.79-3.89s-1.79,1.01-1.79,3.89.74,3.96,1.79,3.96,1.79-1.08,1.79-3.96Z"/><path class="cls-3" d="M172.2,69.83h-2.91v1.18h-1.2v-10.44h4.12v9.26ZM169.28,61.74v2.82h1.68v-2.82h-1.68ZM170.96,68.66v-2.96h-1.68v2.96h1.68ZM178.85,65.09v1.4h1.5v1.15h-1.5v3.45c0,.67-.15,1.02-.62,1.22-.49.2-1.2.21-2.3.21-.06-.35-.24-.85-.42-1.22.78.03,1.56.03,1.77.03.22-.01.29-.07.29-.27v-3.42h-5.1v-1.15h5.1v-1.4h-5.14v-1.15h3.33v-1.54h-2.8v-1.13h2.8v-1.6h1.3v1.6h2.89v1.13h-2.89v1.54h3.4v1.15h-1.62ZM174.26,67.99c.67.7,1.44,1.65,1.75,2.33l-1.11.67c-.29-.67-1.02-1.67-1.69-2.4l1.05-.6Z"/><path class="cls-3" d="M185.27,65.51c-1.02,0-1.9.71-2.47,1.78l-1.23-.67c.91-1.65,2.23-2.51,3.71-2.51,1.3,0,2.25.52,3.24,1.51.69.69,1.25,1.09,2.24,1.09s1.91-.71,2.47-1.78l1.23.67c-.91,1.65-2.23,2.51-3.71,2.51-1.3,0-2.26-.52-3.24-1.51-.69-.69-1.25-1.09-2.24-1.09Z"/><path class="cls-3" d="M196.22,70.11h2.26v-6.89h-1.85v-1.02c.97-.17,1.65-.42,2.24-.78h1.22v8.7h2.02v1.33h-5.88v-1.33Z"/><path class="cls-3" d="M203.64,68.87c0-1.27.9-2.13,1.85-2.63v-.06c-.77-.55-1.39-1.29-1.39-2.34,0-1.6,1.26-2.63,2.94-2.63,1.79,0,2.91,1.11,2.91,2.69,0,1.04-.73,1.89-1.36,2.35v.07c.91.53,1.74,1.25,1.74,2.59,0,1.53-1.34,2.7-3.33,2.7s-3.36-1.15-3.36-2.75ZM208.81,68.87c0-1.19-1.13-1.6-2.54-2.17-.7.49-1.2,1.18-1.2,2.02,0,1.02.85,1.74,1.96,1.74s1.78-.62,1.78-1.58ZM208.6,64c0-.92-.57-1.62-1.58-1.62-.84,0-1.47.56-1.47,1.47,0,1.08.98,1.55,2.13,2,.6-.56.92-1.18.92-1.85Z"/><path class="cls-3" d="M219.66,69.83h-2.91v1.18h-1.2v-10.44h4.12v9.26ZM216.74,61.74v2.82h1.68v-2.82h-1.68ZM218.42,68.66v-2.96h-1.68v2.96h1.68ZM226.31,65.09v1.4h1.5v1.15h-1.5v3.45c0,.67-.15,1.02-.62,1.22-.49.2-1.2.21-2.3.21-.06-.35-.24-.85-.42-1.22.78.03,1.56.03,1.77.03.22-.01.29-.07.29-.27v-3.42h-5.1v-1.15h5.1v-1.4h-5.14v-1.15h3.33v-1.54h-2.8v-1.13h2.8v-1.6h1.3v1.6h2.89v1.13h-2.89v1.54h3.4v1.15h-1.62ZM221.72,67.99c.67.7,1.44,1.65,1.75,2.33l-1.11.67c-.29-.67-1.02-1.67-1.69-2.4l1.05-.6Z"/><path class="cls-3" d="M240.79,59.42l1.06.5c-1.53,1.6-2.58,3.61-2.58,6.19s1.05,4.59,2.58,6.19l-1.06.5c-1.6-1.61-2.77-3.85-2.77-6.7s1.18-5.08,2.77-6.7Z"/><path class="cls-3" d="M250.14,70.95c.62.08,1.27.13,1.98.13.6,0,2.96,0,3.75-.03-.21.31-.43.94-.49,1.32h-3.33c-2.75,0-4.76-.46-6.04-2.66-.46,1.19-1.11,2.17-1.98,2.91-.21-.24-.76-.69-1.08-.9,1.54-1.15,2.26-3.11,2.55-5.56l1.34.13c-.08.64-.2,1.26-.34,1.84.49,1.3,1.27,2.04,2.28,2.46v-5.43h-3.24v-1.25h7.89v1.25h-3.31v2.06h4.01v1.22h-4.01v2.52ZM244.91,64.42h-1.27v-3.22h5.13v-1.5h1.39v1.5h5.18v3.22h-1.33v-1.99h-9.09v1.99Z"/><path class="cls-3" d="M261.75,60.17c-.41,1.01-.91,2.02-1.48,2.97v9.36h-1.29v-7.49c-.45.59-.94,1.12-1.43,1.58-.14-.32-.53-1.04-.77-1.34,1.48-1.3,2.86-3.35,3.68-5.48l1.29.41ZM266.59,64.42c.84,2.1,2.19,4.2,3.57,5.35-.32.25-.76.7-.98,1.05-1.25-1.18-2.4-3.08-3.26-5.11v6.84h-1.29v-6.49c-.9,1.95-2.07,3.7-3.35,4.85-.21-.32-.67-.78-.97-1.04,1.48-1.15,2.87-3.29,3.73-5.45h-3.15v-1.27h3.74v-3.25h1.29v3.25h3.85v1.27h-3.18Z"/><path class="cls-3" d="M282.18,60.58v11.75h-1.39v-.85h-6.6v.91h-1.33v-11.81h9.31ZM274.2,61.9v3.42h6.6v-3.42h-6.6ZM280.8,70.16v-3.56h-6.6v3.56h6.6Z"/><path class="cls-3" d="M292.04,60.24h1.12l-3.89,13.71h-1.12l3.89-13.71Z"/><path class="cls-3" d="M302.73,63.44c-.67,3.73-2.28,6.4-4.3,7.82-.22-.29-.74-.83-1.06-1.02,1.74-1.12,3.1-3.12,3.75-5.74h-3.36v-1.32h3.84l.25-.06.88.32ZM310.04,62.75c-1.11,1.2-2.56,2.62-3.74,3.52,1.04,1.79,2.42,3.24,4.22,4.03-.32.27-.77.81-1.01,1.21-2.24-1.18-3.78-3.29-4.85-5.9v5.17c0,.85-.21,1.26-.71,1.5-.53.22-1.37.27-2.66.27-.06-.39-.31-1.04-.5-1.44.95.04,1.85.04,2.12.03.28,0,.39-.1.39-.35v-11.08h1.37v2.49c.28,1.05.64,2.06,1.08,3.01,1.08-.95,2.31-2.25,3.1-3.31l1.21.85Z"/><path class="cls-3" d="M324.37,72.05h-6.32v.42h-1.18v-4.76c-.25.28-.53.53-.8.74-.08-.11-.21-.28-.35-.43v1.88h-2.56v1.18h-1.13v-10.52h3.7v6.67c.8-.76,1.51-1.78,1.92-2.7h-1.43v-.91h2.45v-.84h-2.21v-.85h2.21v-.81h-2.44v-.91h3.56v4.33h-1.25l.42.13c-.14.29-.31.6-.49.91h1.74c.15-.35.29-.71.39-1.04h-.32v-.91h2.51v-.84h-2.31v-.85h2.31v-.81h-2.48v-.91h3.63v4.33h-2.54l.55.11c-.17.32-.34.63-.5.92h2.58v.99h-2.91v.9h2.59v.87h-2.59v.91h2.59v.87h-2.59v.97h3.26v.99ZM313.16,61.69v2.87h1.42v-2.87h-1.42ZM314.58,68.75v-3.05h-1.42v3.05h1.42ZM319.97,66.55h-1.92v.9h1.92v-.9ZM319.97,68.31h-1.92v.91h1.92v-.91ZM318.05,71.06h1.92v-.97h-1.92v.97Z"/><path class="cls-3" d="M336.64,60.58v11.75h-1.39v-.85h-6.6v.91h-1.33v-11.81h9.31ZM328.66,61.9v3.42h6.6v-3.42h-6.6ZM335.26,70.16v-3.56h-6.6v3.56h6.6Z"/><path class="cls-3" d="M340.63,72.81l-1.06-.5c1.53-1.6,2.58-3.61,2.58-6.19s-1.05-4.59-2.58-6.19l1.06-.5c1.6,1.61,2.77,3.85,2.77,6.7s-1.18,5.08-2.77,6.7Z"/><path class="cls-4" d="M387.82,54.88v-26.19l9.99,13.1-9.99,13.1Z"/></g></svg>