<?xml version="1.0" encoding="UTF-8"?><svg id="_レイヤー_2" xmlns="http://www.w3.org/2000/svg" viewBox="0 0 221 67"><defs><style>.cls-1{stroke:#231815;}.cls-1,.cls-2{fill:none;stroke-miterlimit:10;}.cls-3{fill:#fff;stroke-width:0px;}.cls-2{stroke:#000;stroke-width:.5px;}</style></defs><g id="_文字"><rect class="cls-1" x=".5" y=".5" width="220" height="66" rx="30" ry="30"/><path class="cls-3" d="M32.41,14.08c-.45.49-.92.92-1.37,1.3-.31-.31-.97-.83-1.39-1.1,1.53-1.06,2.95-2.77,3.78-4.5l1.64.47c-.25.52-.54,1.03-.86,1.51h11.07v1.48h-1.76v2.7h2.43v1.51h-2.43v2.7h2.18v1.51h-15.47v-1.51h2.18v-2.7h-2.45v-1.51h2.45v-1.85ZM29.8,25.65c.88-.74,1.69-2.11,2.12-3.4l1.62.4c-.45,1.35-1.22,2.77-2.16,3.67l-1.58-.67ZM33.92,15.93h1.67v-2.7h-1.67v2.7ZM33.92,20.14h1.67v-2.7h-1.67v2.7ZM36.62,22.61c.23,1.06.43,2.45.45,3.28l-1.64.23c0-.85-.14-2.27-.36-3.35l1.55-.16ZM38.74,15.93v-2.7h-1.75v2.7h1.75ZM37,17.44v2.7h1.75v-2.7h-1.75ZM40.24,22.54c.47,1.03.94,2.41,1.1,3.28l-1.66.32c-.14-.86-.56-2.27-1.01-3.35l1.57-.25ZM41.95,13.23h-1.78v2.7h1.78v-2.7ZM41.95,17.44h-1.78v2.7h1.78v-2.7ZM43.84,22.18c.86,1.08,1.91,2.58,2.38,3.55l-1.69.59c-.43-.95-1.4-2.5-2.27-3.64l1.58-.5Z"/><path class="cls-3" d="M52.15,17.52c.54.58,2.27,2.77,2.65,3.31l-1.06,1.31c-.31-.65-.99-1.78-1.58-2.74v6.88h-1.57v-6.9c-.61,1.8-1.44,3.64-2.29,4.77-.14-.49-.54-1.22-.81-1.67.97-1.19,2-3.33,2.59-5.17h-2.29v-1.57h2.79v-5.89h1.57v5.89h2.81v1.57h-2.81v.2ZM48.75,15.26c-.07-1.1-.45-2.79-.9-4.07l1.21-.31c.49,1.26.86,2.92.99,4.02l-1.3.36ZM55.09,11.14c-.45,1.4-1.01,3.08-1.46,4.12l-1.08-.34c.4-1.1.86-2.88,1.1-4.11l1.44.32ZM62.07,21.33v4.97h-1.57v-4.68l-5.33.97-.27-1.55,5.6-1.01v-10.25h1.57v9.96l2-.34.23,1.53-2.23.4ZM58.2,18.74c-.63-.67-1.91-1.6-2.97-2.18l.79-1.21c1.04.56,2.38,1.4,3.01,2.03l-.83,1.35ZM58.92,14.38c-.56-.7-1.78-1.67-2.81-2.32l.85-1.13c1.01.61,2.25,1.51,2.84,2.18l-.88,1.28Z"/><path class="cls-3" d="M76.36,13.39c1.49,1.51,3.75,2.83,5.91,3.49-.36.32-.85.94-1.08,1.35-2.41-.88-4.86-2.61-6.48-4.59v3.35h-1.66v-3.38c-1.6,2.04-4.05,3.78-6.43,4.72-.22-.38-.68-.99-1.04-1.3,2.11-.7,4.3-2.09,5.78-3.64h-5.35v-1.46h7.04v-2.16h1.66v2.16h7.17v1.46h-5.51ZM78.99,24.45h2.97v1.51h-16.04v-1.51h3.01v-6.95h10.07v6.95ZM70.55,18.9v1.01h6.73v-1.01h-6.73ZM77.28,21.13h-6.73v1.04h6.73v-1.04ZM70.55,24.45h6.73v-1.06h-6.73v1.06Z"/><path class="cls-3" d="M92.78,24.25c.79.11,1.64.16,2.54.16.77,0,3.8,0,4.83-.04-.27.4-.56,1.21-.63,1.69h-4.29c-3.53,0-6.12-.59-7.76-3.42-.59,1.53-1.42,2.79-2.54,3.75-.27-.31-.97-.88-1.39-1.15,1.98-1.48,2.9-4,3.28-7.15l1.73.16c-.11.83-.25,1.62-.43,2.36.63,1.67,1.64,2.63,2.93,3.17v-6.99h-4.16v-1.6h10.14v1.6h-4.25v2.65h5.15v1.57h-5.15v3.24ZM86.06,15.86h-1.64v-4.14h6.59v-1.93h1.78v1.93h6.66v4.14h-1.71v-2.56h-11.69v2.56Z"/><path class="cls-3" d="M116.33,13.95c-.4,1.84-1.22,4.7-2.68,6.61-1.64,2.14-3.89,3.85-7.17,4.88l-1.55-1.69c3.53-.86,5.56-2.39,7.04-4.29,1.24-1.57,2.02-3.87,2.25-5.53h-8.84c-.77,0-1.49.04-1.94.07v-2.02c.5.07,1.35.14,1.94.14h8.73c.31,0,.76-.02,1.15-.13l1.39.9c-.14.29-.23.68-.32,1.04Z"/><path class="cls-3" d="M130.76,15.12c0,.34.02.79.02,1.31h2.39c.41,0,1.04-.05,1.31-.11v1.76c-.36-.02-.88-.04-1.26-.04h-2.41c.05,2.21.11,4.93.13,6.7,0,.85-.63,1.39-1.53,1.39-.79,0-1.93-.05-2.68-.11l-.11-1.64c.72.11,1.64.18,2.14.18.32,0,.47-.2.47-.56,0-1.03-.02-2.72-.04-4.41-1.24,1.67-3.78,3.85-6.09,5.08l-1.24-1.42c2.63-1.22,5.28-3.44,6.52-5.2h-4.41c-.49,0-1.03.02-1.5.05v-1.78c.41.07,1.01.11,1.46.11h5.2c-.02-.52-.04-.95-.05-1.31-.02-.38-.05-.9-.13-1.33h1.87c-.07.4-.07.9-.07,1.33Z"/><path class="cls-3" d="M141.36,16.96h9.79c.86,0,1.57-.07,2.02-.11v2.23c-.4-.02-1.22-.09-2.02-.09h-9.79c-.99,0-2.07.04-2.68.09v-2.23c.59.04,1.71.11,2.68.11Z"/><path class="cls-3" d="M163.9,13.21c-.54,1.71-2.18,6.81-3.08,9.18,2.45-.22,5.49-.56,7.42-.81-.68-1.37-1.42-2.68-2.05-3.51l1.75-.76c1.26,1.89,3.19,5.47,3.96,7.4l-1.91.86c-.23-.63-.56-1.42-.94-2.25-2.86.34-8.62.97-10.96,1.19-.45.05-1.04.14-1.58.22l-.32-2.09c.56,0,1.26,0,1.8-.04.22-.02.47-.02.74-.04,1.01-2.58,2.72-7.96,3.22-9.78.25-.86.32-1.35.4-1.87l2.25.47c-.2.49-.42,1.03-.68,1.82Z"/><line class="cls-2" x1="26.02" y1="30.7" x2="183.81" y2="30.7"/><path class="cls-3" d="M29.52,39.72c.9-.55,1.8-.99,2.37-1.3.36-.21.64-.37.89-.58l.55,1.01c-.29.18-.59.33-.95.52-.73.36-1.87.9-2.92,1.58-.97.64-1.58,1.32-1.58,2.12,0,.87.83,1.38,2.46,1.38,1.17,0,2.64-.17,3.55-.39v1.24c-.89.15-2.11.28-3.51.28-2.12,0-3.69-.62-3.69-2.38,0-1.17.75-2.07,1.87-2.87-.51-.92-1.07-2.16-1.57-3.33l1.09-.46c.43,1.19.97,2.31,1.43,3.18ZM34.37,37.93l-.72.32c-.22-.45-.58-1.11-.88-1.54l.71-.3c.28.41.67,1.09.88,1.52ZM35.65,37.45l-.72.32c-.23-.47-.59-1.11-.9-1.52l.72-.3c.29.41.7,1.1.9,1.5Z"/><path class="cls-3" d="M41.71,37.41c-.51.77-1.42,2.41-1.97,3.43.47-.36.99-.53,1.46-.53.78,0,1.29.5,1.33,1.39.02.57,0,1.43.04,1.94.03.51.39.7.8.7,1.11,0,1.78-1.39,2.08-2.65l.92.76c-.57,1.83-1.54,3.07-3.18,3.07-1.2,0-1.66-.74-1.69-1.45-.04-.63-.03-1.5-.07-2.04-.02-.43-.28-.69-.73-.69-.83,0-1.56.84-1.98,1.72-.31.65-.75,1.91-.9,2.48l-1.21-.41c.81-2.22,3.16-6.72,3.74-7.78.14-.28.31-.58.46-.97l1.23.5c-.1.14-.22.34-.35.54Z"/><path class="cls-3" d="M51.55,37.88c.56-.09,1.11-.21,1.62-.37l.03,1.01c-.55.15-1.23.3-1.97.4-.54,1.55-1.5,3.46-2.39,4.68l-1.06-.54c.9-1.08,1.81-2.77,2.31-4.02-.27.01-.54.02-.8.02-.42,0-.88-.01-1.32-.03l-.08-1.02c.43.04.96.07,1.4.07.36,0,.75-.01,1.13-.04.17-.62.3-1.3.32-1.88l1.21.12c-.09.38-.24,1-.41,1.62ZM54.54,40.96c.01.36.04,1,.08,1.63.95.34,1.72.89,2.28,1.39l-.58.94c-.43-.4-.99-.87-1.65-1.23v.31c0,.94-.56,1.69-2.01,1.69-1.28,0-2.31-.55-2.31-1.69,0-1.03.94-1.76,2.3-1.76.33,0,.64.03.93.08-.03-.87-.09-1.9-.11-2.63h1.08c-.02.46-.01.85,0,1.29ZM52.51,44.67c.84,0,1.11-.46,1.11-1.06,0-.1,0-.23-.01-.37-.32-.09-.66-.14-1.02-.14-.73,0-1.22.33-1.22.78s.4.79,1.14.79ZM54.04,38.55l.56-.85c.79.35,2.09,1.08,2.64,1.47l-.63.91c-.61-.51-1.83-1.2-2.58-1.54Z"/><path class="cls-3" d="M62.54,41.56c-.43.14-.86.27-1.29.41v3.94h-.95v-3.64l-1.73.53-.26-.98c.55-.14,1.24-.33,1.99-.54v-2.31h-.88c-.13.58-.29,1.11-.45,1.53-.17-.13-.54-.35-.75-.46.38-.89.58-2.28.69-3.59l.87.14c-.06.47-.11.95-.18,1.41h.69v-2.18h.95v2.18h1.02v.97h-1.02v2.02l1.16-.33.13.9ZM68.37,37.59s0,.35-.01.48c-.24,4.94-.45,6.68-.88,7.22-.23.33-.45.43-.8.48-.3.05-.76.04-1.24.02-.01-.3-.12-.71-.29-1,.46.04.87.04,1.08.04.18,0,.29-.04.4-.2.32-.36.55-1.92.75-6.11h-.31c-.56,2.84-1.74,5.73-3.52,7.16-.2-.19-.56-.45-.85-.61,1.77-1.26,2.93-3.89,3.48-6.56h-.74c-.48,1.85-1.44,3.86-2.61,4.9-.19-.19-.52-.44-.79-.58,1.13-.88,2.04-2.62,2.54-4.31h-.78c-.34.79-.74,1.49-1.19,2.02-.17-.14-.57-.45-.79-.58.89-.97,1.52-2.53,1.88-4.16l.92.18c-.12.55-.29,1.09-.45,1.6h4.2Z"/><path class="cls-3" d="M72.71,36.15c-.29.8-.66,1.61-1.08,2.38v7.37h-.97v-5.83c-.28.38-.57.76-.86,1.07-.1-.24-.38-.79-.56-1.03,1-1.03,1.94-2.63,2.51-4.24l.96.29ZM79.39,42.18h-2.92v3.73h-1.02v-3.73h-3.05v-1h3.05v-2.18h-1.56c-.22.59-.46,1.13-.74,1.55-.2-.14-.64-.38-.88-.5.62-.88,1.07-2.29,1.31-3.66l.99.2c-.1.47-.22.95-.35,1.41h1.23v-2.05h1.02v2.05h2.42v1h-2.42v2.18h2.92v1Z"/><path class="cls-3" d="M81.75,37.62c.8-.08,2.76-.26,4.79-.44,1.18-.1,2.28-.17,3.04-.19v1.11c-.62,0-1.57.01-2.14.15-1.46.44-2.43,2.01-2.43,3.31,0,2,1.87,2.67,3.69,2.75l-.4,1.18c-2.16-.11-4.41-1.27-4.41-3.69,0-1.66.98-2.99,1.87-3.58-1.11.11-3.67.37-4.91.64l-.11-1.2c.42-.01.8-.03,1.02-.05ZM88.89,40.85l-.68.31c-.26-.56-.55-1.07-.88-1.54l.66-.29c.26.38.67,1.06.9,1.52ZM90.14,40.35l-.67.32c-.29-.56-.57-1.04-.92-1.52l.66-.3c.26.37.69,1.03.93,1.5Z"/><path class="cls-3" d="M95.73,37.19c-.03.24-.08.58-.13,1,.81,0,1.55-.06,2.13-.14l-.03,1.03c-.68.07-1.31.11-2.21.11h-.02c-.08.57-.15,1.2-.22,1.77h.15c.71,0,1.51-.03,2.25-.13l-.03,1.03c-.67.07-1.34.11-2.06.11h-.42c-.03.38-.06.73-.06.96,0,1,.58,1.58,1.76,1.58,1.61,0,2.57-.71,2.57-1.75,0-.75-.4-1.52-1.17-2.2l1.22-.25c.74.87,1.1,1.64,1.1,2.58,0,1.65-1.47,2.73-3.75,2.73-1.59,0-2.82-.69-2.82-2.52,0-.29.03-.7.08-1.2-.8-.07-1.57-.2-2.2-.37l.05-1.06c.71.25,1.51.37,2.26.44.08-.58.15-1.2.23-1.78-.79-.07-1.62-.21-2.29-.38l.05-1.01c.67.22,1.53.35,2.34.42.05-.4.09-.75.11-1.03.03-.44.03-.65.01-.87l1.23.07c-.08.34-.12.61-.17.87Z"/><path class="cls-3" d="M106.62,44.56c-.9.56-2.31,1.09-3.42,1.39-.18-.2-.54-.58-.77-.76,1.16-.22,2.49-.63,3.26-1.04l.94.42ZM111.7,36.3v2.53h-8.53v-2.53h8.53ZM111.08,39.38v4.74h-7.28v-4.74h7.28ZM104.13,38.05h1.56v-.97h-1.56v.97ZM104.82,40.76h5.2v-.69h-5.2v.69ZM104.82,42.09h5.2v-.68h-5.2v.68ZM104.82,43.45h5.2v-.71h-5.2v.71ZM106.57,38.05h1.61v-.97h-1.61v.97ZM108.99,44.16c1.22.38,2.6.88,3.42,1.24l-1.09.53c-.7-.35-1.93-.85-3.14-1.23l.8-.54ZM109.05,38.05h1.66v-.97h-1.66v.97Z"/><path class="cls-3" d="M115.42,38.48c-.01.69,0,1.62.08,2.48.17,1.73.62,2.89,1.35,2.89.55,0,1.03-1.2,1.29-2.2l.87,1.02c-.69,1.88-1.38,2.53-2.18,2.53-1.11,0-2.13-1.06-2.43-3.95-.11-.97-.12-2.29-.12-2.95,0-.27-.02-.74-.09-1.03l1.34.02c-.05.32-.11.89-.11,1.19ZM123.13,43.15l-1.13.44c-.19-1.89-.81-4.33-1.93-5.66l1.09-.36c1.01,1.28,1.83,3.8,1.97,5.58Z"/><path class="cls-3" d="M134.17,37.41c-.25,2.37-.84,4.21-1.68,5.63.57.81,1.28,1.47,2.13,1.92-.23.2-.56.58-.7.84-.81-.47-1.5-1.09-2.07-1.85-.59.76-1.31,1.35-2.1,1.83-.14-.24-.42-.59-.64-.79v.9h-.99v-1.88c-1.33.22-2.68.44-3.71.61l-.19-1.02c.31-.03.65-.09,1.03-.13v-6.04h-.8v-.95h5.39v.79h3.49l.18-.03.66.18ZM126.24,37.42v1.28h1.88v-1.28h-1.88ZM126.24,40.96h1.88v-1.34h-1.88v1.34ZM128.12,43.07v-1.19h-1.88v1.45l1.88-.26ZM129.11,44.94c.81-.43,1.53-1.08,2.13-1.91-.71-1.26-1.21-2.79-1.56-4.52l.99-.2c.25,1.36.64,2.63,1.19,3.72.55-1.04.96-2.31,1.19-3.75h-3.49v-.85h-.45v7.51Z"/><path class="cls-3" d="M138.25,39.02c.48-1,1.54-2.18,2.87-2.18,1.5,0,2.61,1.47,2.61,3.84,0,3.07-1.91,4.48-4.72,4.99l-.66-1c2.41-.37,4.21-1.27,4.21-3.99,0-1.72-.58-2.84-1.63-2.84-1.34,0-2.56,1.98-2.66,3.43-.03.36-.03.74.04,1.26l-1.08.08c-.06-.42-.12-1.06-.12-1.78,0-1.03.18-2.54.32-3.54.06-.37.08-.74.09-1.05l1.2.06c-.19.69-.41,2.02-.47,2.72Z"/><path class="cls-3" d="M152.26,37c-.01.13-.01.34-.02.58.95-.04,1.91-.14,2.89-.31v1.01c-.81.1-1.84.2-2.9.24v1.36c1.09-.04,2.06-.14,3.01-.27v1.02c-1.02.12-1.94.2-2.99.24.02.51.06,1.03.08,1.53,1.43.4,2.52,1.17,3.16,1.68l-.64.98c-.63-.57-1.46-1.2-2.46-1.61.01.23.02.42.02.57,0,.84-.61,1.59-2.05,1.59-1.65,0-2.54-.62-2.54-1.72s.98-1.77,2.62-1.77c.29,0,.55.02.81.04-.01-.43-.03-.88-.04-1.29h-.61c-.7,0-1.92-.05-2.68-.14v-1.03c.74.12,2.04.2,2.71.2h.56v-1.35h-.45c-.73,0-2.05-.11-2.76-.2v-1c.73.13,2.05.24,2.75.24h.47v-.67c0-.19-.01-.52-.06-.69h1.18c-.02.2-.04.44-.05.75ZM150.21,44.65c.62,0,1.09-.19,1.09-.89,0-.15,0-.37-.01-.62-.32-.07-.66-.1-1-.1-.94,0-1.44.36-1.44.8,0,.47.42.8,1.36.8Z"/><path class="cls-3" d="M163.86,37.07c-.01.13-.01.33-.01.55h3.3l-.02,1.03c-.65-.03-1.69-.06-3.29-.06.01.59.01,1.23.01,1.73.25.4.38.9.38,1.46,0,1.46-.78,3.19-3.39,3.95l-.93-.92c1.3-.29,2.31-.77,2.84-1.62-.22.11-.48.17-.77.17-.89,0-1.85-.66-1.85-1.91,0-1.16.94-1.98,2.05-1.98.22,0,.43.02.62.08,0-.29-.01-.62-.01-.93-1.67.02-3.48.09-4.84.18l-.03-1.06c1.24-.02,3.29-.08,4.86-.1-.01-.24-.01-.43-.02-.56-.03-.35-.07-.69-.09-.8h1.27c-.03.14-.07.65-.07.8ZM162.17,42.41c.57,0,1-.45.86-1.49-.18-.36-.5-.53-.86-.53-.51,0-1,.37-1,1.03,0,.6.47.98,1,.98Z"/><path class="cls-3" d="M171.69,44.31c0-.53.36-.9.84-.9s.86.37.86.9-.37.88-.86.88-.84-.36-.84-.88ZM171.93,38.06l-.03-1.31h1.28l-.04,1.31-.18,4.4h-.85l-.18-4.4Z"/><path class="cls-3" d="M28.65,50.62c.47,0,2.65-.1,3.3-.18.31-.03.53-.08.67-.12l.69.8c-.19.11-.52.34-.7.5-.8.65-2.18,1.8-3,2.45,1.58-.17,3.5-.31,4.97-.31v1.03c-1.06-.05-2.13-.05-2.81.03-1.03.15-2,.98-2,1.95s.8,1.36,1.8,1.5c.63.08,1.21.06,1.62.02l-.23,1.14c-2.74.11-4.28-.73-4.28-2.49,0-.83.57-1.57,1.07-1.93-1.1.09-2.46.25-3.7.46l-.1-1.04c.59-.05,1.35-.15,1.91-.22,1.1-.75,2.72-2.16,3.4-2.76-.47.03-2.15.11-2.61.14-.29.02-.63.07-.91.09l-.06-1.12c.31.03.61.04.96.04Z"/><path class="cls-3" d="M41.83,59.3l-.65-1.03c.37-.03.7-.09.98-.15,1.41-.32,2.66-1.35,2.66-3.12,0-1.6-.97-2.86-2.66-3.07-.15.99-.34,2.06-.66,3.09-.66,2.25-1.57,3.49-2.66,3.49s-2.09-1.21-2.09-3.05c0-2.46,2.16-4.58,4.92-4.58s4.31,1.85,4.31,4.15-1.47,3.89-4.15,4.28ZM38.87,57.19c.5,0,1.01-.71,1.52-2.41.28-.87.47-1.87.61-2.84-1.98.32-3.14,2.04-3.14,3.4,0,1.27.54,1.85,1.01,1.85Z"/><path class="cls-3" d="M50.68,49.99c-.29.76-.66,1.54-1.07,2.28v7.47h-1v-5.9c-.3.41-.6.78-.91,1.11-.1-.24-.4-.78-.56-1.02,1.03-1.02,2.01-2.63,2.61-4.24l.93.3ZM55.69,58.68c.65,0,.77-.3.87-1.56.23.16.65.35.92.41-.15,1.56-.46,2.07-1.73,2.07h-2.66c-1.43,0-1.84-.35-1.84-1.69v-3.3l-.96.38-.41-.91,1.36-.53v-2.75h1.01v2.35l1.38-.53v-2.94h.97v2.56l1.42-.55.15-.12.18-.14.7.29-.04.15c-.01,1.96-.03,3.42-.12,3.88-.07.52-.29.76-.63.87-.32.11-.81.12-1.16.11-.02-.27-.12-.7-.24-.93.27.01.63.01.77.01.17,0,.26-.04.33-.29.05-.26.08-1.2.09-2.79l-1.45.56v3.96h-.97v-3.58l-1.38.53v3.71c0,.64.13.77.89.77h2.53Z"/><path class="cls-3" d="M61.15,53.75c.38.4,1.36,1.55,1.58,1.84l-.62.82c-.19-.36-.59-.97-.97-1.5v4.82h-.98v-4.85c-.4,1.13-.9,2.21-1.43,2.89-.11-.29-.35-.7-.51-.93.74-.9,1.45-2.52,1.8-3.93h-1.55v-.97h1.68v-2.3h.98v2.3h1.47v.97h-1.47v.84ZM68.07,50.27v9.34h-1.02v-.59h-2.99v.65h-.98v-9.4h5ZM64.06,51.23v1.62h2.99v-1.62h-2.99ZM64.06,55.46h2.99v-1.67h-2.99v1.67ZM67.05,58.08v-1.68h-2.99v1.68h2.99Z"/><path class="cls-3" d="M73.44,52.28h-4.1v-.81h4.1v.81ZM73.08,59.14h-2.37v.46h-.88v-3.7h3.25v3.23ZM73.07,53.75h-3.22v-.79h3.22v.79ZM69.84,54.42h3.22v.8h-3.22v-.8ZM73.04,50.82h-3.16v-.8h3.16v.8ZM70.71,56.73v1.58h1.49v-1.58h-1.49ZM76.97,55.82c0,.65.41,2.26,2.55,3.07-.18.23-.46.63-.59.87-1.55-.6-2.3-1.94-2.48-2.6-.19.67-1.01,1.95-2.75,2.6-.12-.23-.38-.63-.58-.83,2.35-.84,2.81-2.45,2.81-3.11v-1.61h1.04v1.61ZM73.3,56.96c.51-.4.84-1.16.99-1.92l.9.19c-.14.83-.51,1.68-1.07,2.19l-.83-.46ZM78.74,54.6c-.52-.47-1.49-1.16-2.38-1.72-.43.8-1.14,1.39-2.38,1.8-.11-.24-.37-.62-.58-.81,2.25-.69,2.51-1.97,2.61-4.22h1c-.04.91-.12,1.71-.31,2.38.95.55,2.1,1.29,2.71,1.79l-.67.78ZM75.24,50.51c-.1.74-.4,1.54-.89,2l-.78-.37c.43-.38.71-1.11.84-1.79l.84.17ZM77.4,56.88c.34-.51.75-1.34.97-1.92l1,.33c-.38.66-.83,1.41-1.18,1.88l-.79-.3ZM79.25,50.61c-.35.63-.76,1.31-1.08,1.75l-.76-.3c.31-.48.67-1.24.86-1.77l.98.32Z"/><path class="cls-3" d="M84.73,51.02c-.03.24-.08.58-.13,1,.81,0,1.55-.06,2.13-.14l-.03,1.03c-.68.07-1.31.11-2.21.11h-.02c-.08.57-.15,1.2-.22,1.77h.15c.71,0,1.51-.03,2.25-.13l-.03,1.03c-.67.07-1.34.11-2.06.11h-.42c-.03.38-.06.73-.06.96,0,1,.58,1.58,1.76,1.58,1.61,0,2.57-.71,2.57-1.75,0-.75-.4-1.52-1.17-2.2l1.22-.25c.74.87,1.1,1.64,1.1,2.58,0,1.65-1.47,2.73-3.75,2.73-1.59,0-2.82-.69-2.82-2.52,0-.29.03-.7.08-1.2-.8-.07-1.57-.2-2.2-.37l.05-1.06c.71.25,1.51.37,2.26.44.08-.58.15-1.2.23-1.78-.79-.07-1.62-.21-2.29-.38l.05-1.01c.67.22,1.53.35,2.34.42.05-.4.09-.75.11-1.03.03-.44.03-.65.01-.87l1.23.07c-.08.34-.12.61-.17.87Z"/><path class="cls-3" d="M94.27,54.8c0-2.61,1.44-4.17,3.52-4.17s3.53,1.56,3.53,4.17-1.45,4.22-3.53,4.22-3.52-1.62-3.52-4.22ZM100.02,54.8c0-1.9-.88-3.06-2.22-3.06s-2.21,1.16-2.21,3.06.87,3.11,2.21,3.11,2.22-1.22,2.22-3.11Z"/><path class="cls-3" d="M103.01,50.77h1.28v3.84h.03l3.08-3.84h1.42l-2.51,3.14,2.93,4.97h-1.42l-2.29-3.97-1.24,1.53v2.44h-1.28v-8.11Z"/><path class="cls-3" d="M110.28,58.14c0-.53.36-.9.84-.9s.86.37.86.9-.37.88-.86.88-.84-.36-.84-.88ZM110.52,51.89l-.03-1.31h1.28l-.04,1.31-.18,4.4h-.85l-.18-4.4Z"/><path class="cls-3" d="M198.67,44.36v-21.16l8.07,10.58-8.07,10.58Z"/></g></svg>