<?xml version="1.0" encoding="UTF-8"?><svg id="_レイヤー_2" xmlns="http://www.w3.org/2000/svg" viewBox="0 0 159.5 42.5"><defs><style>.cls-1{fill:none;stroke:#231815;stroke-miterlimit:10;}.cls-2{fill:#fff;}.cls-2,.cls-3{stroke-width:0px;}.cls-3{fill:#7f84c2;}</style></defs><g id="_レイヤー_1-2"><path class="cls-3" d="M2.5,22.5c0,11,9,20,20,20h117c11,0,20-9,20-20h0c0-11-9-20-20-20H22.5C11.5,2.5,2.5,11.5,2.5,22.5h0Z"/><path class="cls-1" d="M.5,20.5c0,11,9,20,20,20h117c11,0,20-9,20-20h0c0-11-9-20-20-20H20.5C9.5.5.5,9.5.5,20.5h0Z"/><path class="cls-2" d="M18.48,11.43c-.37.41-.76.77-1.13,1.08-.25-.25-.81-.69-1.15-.92,1.27-.88,2.45-2.31,3.14-3.75l1.36.39c-.21.43-.45.85-.72,1.26h9.19v1.23h-1.46v2.25h2.02v1.26h-2.02v2.25h1.81v1.26h-12.83v-1.26h1.81v-2.25h-2.03v-1.26h2.03v-1.54ZM16.31,21.07c.73-.61,1.4-1.75,1.76-2.83l1.34.33c-.37,1.12-1.02,2.31-1.79,3.06l-1.31-.56ZM19.73,12.97h1.39v-2.25h-1.39v2.25ZM19.73,16.48h1.39v-2.25h-1.39v2.25ZM21.97,18.54c.19.88.36,2.04.37,2.73l-1.36.2c0-.71-.12-1.89-.3-2.79l1.29-.13ZM23.73,12.97v-2.25h-1.45v2.25h1.45ZM22.29,14.23v2.25h1.45v-2.25h-1.45ZM24.97,18.48c.39.86.78,2.01.91,2.73l-1.38.27c-.12-.72-.46-1.89-.84-2.79l1.3-.21ZM26.39,10.72h-1.48v2.25h1.48v-2.25ZM26.39,14.23h-1.48v2.25h1.48v-2.25ZM27.96,18.18c.72.9,1.58,2.14,1.97,2.96l-1.4.5c-.36-.79-1.17-2.08-1.88-3.03l1.31-.42Z"/><path class="cls-2" d="M34.87,14.29c.45.48,1.88,2.31,2.2,2.76l-.88,1.09c-.25-.54-.82-1.48-1.31-2.28v5.73h-1.3v-5.75c-.51,1.5-1.19,3.03-1.9,3.98-.12-.41-.45-1.02-.67-1.4.81-.99,1.66-2.77,2.15-4.3h-1.9v-1.3h2.32v-4.91h1.3v4.91h2.33v1.3h-2.33v.17ZM32.05,12.42c-.06-.92-.37-2.33-.75-3.39l1-.25c.4,1.05.72,2.43.82,3.34l-1.08.3ZM37.3,8.98c-.37,1.17-.84,2.56-1.21,3.43l-.9-.29c.33-.92.72-2.4.91-3.42l1.19.27ZM43.1,17.47v4.14h-1.3v-3.9l-4.42.81-.22-1.29,4.65-.84V7.86h1.3v8.29l1.66-.29.19,1.27-1.85.33ZM39.89,15.31c-.52-.55-1.58-1.33-2.46-1.81l.66-1c.87.46,1.97,1.17,2.49,1.7l-.69,1.12ZM40.49,11.68c-.46-.58-1.48-1.39-2.33-1.93l.7-.95c.84.51,1.87,1.26,2.36,1.82l-.73,1.06Z"/><path class="cls-2" d="M54.97,10.86c1.24,1.26,3.11,2.35,4.9,2.91-.3.27-.7.78-.9,1.12-2-.73-4.03-2.17-5.38-3.82v2.79h-1.37v-2.82c-1.33,1.7-3.36,3.15-5.33,3.93-.18-.31-.57-.83-.87-1.08,1.75-.58,3.57-1.74,4.79-3.03h-4.44v-1.21h5.84v-1.8h1.37v1.8h5.95v1.21h-4.57ZM57.15,20.07h2.46v1.26h-13.31v-1.26h2.5v-5.79h8.35v5.79ZM50.14,15.45v.84h5.59v-.84h-5.59ZM55.73,17.31h-5.59v.87h5.59v-.87ZM50.14,20.07h5.59v-.88h-5.59v.88Z"/><path class="cls-2" d="M68.6,19.9c.66.09,1.36.14,2.11.14.64,0,3.15,0,4-.03-.22.33-.46,1-.52,1.41h-3.55c-2.93,0-5.08-.5-6.44-2.85-.49,1.28-1.18,2.33-2.11,3.12-.22-.25-.81-.73-1.15-.96,1.64-1.23,2.41-3.33,2.72-5.95l1.43.13c-.09.69-.21,1.35-.36,1.96.52,1.39,1.36,2.19,2.44,2.64v-5.82h-3.45v-1.33h8.41v1.33h-3.53v2.2h4.27v1.31h-4.27v2.7ZM63.03,12.91h-1.36v-3.45h5.47v-1.6h1.48v1.6h5.53v3.45h-1.42v-2.13h-9.69v2.13Z"/><path class="cls-2" d="M88.15,11.32c-.33,1.53-1.02,3.92-2.23,5.5-1.36,1.79-3.23,3.21-5.95,4.06l-1.28-1.41c2.93-.72,4.62-1.99,5.84-3.57,1.03-1.3,1.67-3.22,1.87-4.61h-7.33c-.64,0-1.24.03-1.61.06v-1.68c.42.06,1.12.12,1.61.12h7.25c.25,0,.63-.02.96-.11l1.15.75c-.12.24-.19.57-.27.87Z"/><path class="cls-2" d="M100.13,12.3c0,.29.01.66.01,1.09h1.99c.34,0,.87-.04,1.09-.09v1.47c-.3-.02-.73-.03-1.05-.03h-2c.04,1.84.09,4.11.1,5.58,0,.71-.52,1.16-1.27,1.16-.66,0-1.6-.04-2.23-.09l-.09-1.37c.6.09,1.36.15,1.78.15.27,0,.39-.17.39-.46,0-.86-.01-2.27-.03-3.67-1.03,1.39-3.14,3.21-5.05,4.23l-1.03-1.18c2.18-1.02,4.38-2.87,5.41-4.33h-3.66c-.4,0-.85.01-1.24.04v-1.49c.34.06.84.09,1.21.09h4.32c-.01-.43-.03-.79-.04-1.09-.01-.31-.04-.75-.1-1.11h1.55c-.06.33-.06.75-.06,1.11Z"/><path class="cls-2" d="M108.94,13.83h8.13c.72,0,1.3-.06,1.67-.09v1.86c-.33-.01-1.02-.08-1.67-.08h-8.13c-.82,0-1.72.03-2.23.08v-1.86c.49.03,1.42.09,2.23.09Z"/><path class="cls-2" d="M127.65,10.71c-.45,1.42-1.81,5.67-2.55,7.65,2.03-.18,4.56-.46,6.15-.67-.57-1.14-1.18-2.23-1.7-2.92l1.45-.63c1.05,1.58,2.64,4.56,3.29,6.17l-1.58.72c-.19-.53-.46-1.18-.78-1.88-2.38.29-7.16.81-9.1.99-.37.04-.87.12-1.31.18l-.27-1.74c.46,0,1.05,0,1.49-.03.18-.02.39-.02.61-.03.84-2.14,2.26-6.63,2.67-8.14.21-.72.27-1.12.33-1.56l1.87.39c-.16.41-.34.85-.57,1.51Z"/><path class="cls-2" d="M19.5,30.9c.74-.45,1.47-.81,1.93-1.06.3-.17.52-.31.73-.48l.45.83c-.23.14-.49.27-.77.42-.59.3-1.52.74-2.38,1.3-.79.52-1.29,1.08-1.29,1.74,0,.71.67,1.12,2.01,1.12.95,0,2.15-.13,2.9-.31v1.02c-.73.13-1.72.23-2.86.23-1.73,0-3.01-.5-3.01-1.95,0-.95.61-1.69,1.53-2.35-.41-.76-.87-1.76-1.28-2.73l.89-.38c.35.97.79,1.89,1.17,2.6ZM23.46,29.44l-.58.26c-.18-.37-.48-.91-.72-1.26l.58-.24c.22.33.55.89.72,1.24ZM24.5,29.04l-.58.26c-.19-.39-.48-.91-.74-1.24l.58-.24c.23.33.57.9.74,1.22Z"/><path class="cls-2" d="M29.44,29.01c-.41.63-1.16,1.97-1.61,2.81.39-.3.81-.43,1.19-.43.64,0,1.05.41,1.09,1.13.02.47,0,1.17.04,1.58.03.41.31.58.66.58.91,0,1.45-1.13,1.7-2.17l.75.62c-.47,1.5-1.26,2.51-2.59,2.51-.98,0-1.35-.6-1.38-1.19-.04-.51-.03-1.22-.05-1.67-.02-.35-.22-.57-.59-.57-.67,0-1.27.68-1.62,1.4-.25.53-.61,1.57-.74,2.03l-.99-.33c.66-1.82,2.58-5.5,3.05-6.37.12-.23.25-.48.38-.79l1,.4c-.08.12-.18.28-.29.44Z"/><path class="cls-2" d="M37.46,29.39c.46-.07.91-.17,1.32-.31l.03.83c-.45.13-1,.24-1.61.32-.44,1.27-1.22,2.84-1.95,3.83l-.86-.44c.74-.88,1.48-2.27,1.88-3.29-.22,0-.44.02-.66.02-.34,0-.72,0-1.08-.03l-.06-.84c.35.04.78.05,1.14.05.3,0,.61,0,.92-.04.13-.5.24-1.06.26-1.54l.99.1c-.07.32-.2.82-.33,1.32ZM39.9,31.91c0,.3.04.82.06,1.33.77.28,1.4.73,1.86,1.13l-.47.76c-.35-.32-.81-.71-1.35-1.01v.25c0,.76-.46,1.39-1.64,1.39-1.04,0-1.88-.45-1.88-1.39,0-.85.76-1.44,1.88-1.44.27,0,.52.03.76.06-.03-.71-.07-1.56-.09-2.15h.88c-.02.38,0,.69,0,1.05ZM38.24,34.96c.68,0,.91-.38.91-.86,0-.08,0-.19,0-.31-.26-.07-.54-.12-.83-.12-.59,0-1,.27-1,.64s.32.65.93.65ZM39.49,29.94l.46-.69c.65.29,1.71.88,2.15,1.21l-.51.75c-.49-.41-1.49-.98-2.1-1.26Z"/><path class="cls-2" d="M46.42,32.41c-.35.12-.7.22-1.05.33v3.22h-.77v-2.98l-1.41.43-.22-.8c.45-.12,1.01-.27,1.62-.44v-1.89h-.72c-.11.48-.23.91-.37,1.25-.13-.11-.44-.29-.61-.38.31-.73.48-1.86.56-2.93l.71.12c-.04.39-.09.77-.14,1.15h.57v-1.78h.77v1.78h.83v.79h-.83v1.66l.94-.27.11.74ZM51.17,29.16s0,.29,0,.4c-.2,4.04-.37,5.46-.72,5.91-.19.27-.37.35-.65.4-.24.05-.62.04-1.01.02,0-.24-.1-.58-.23-.82.38.04.71.04.88.04.14,0,.23-.04.32-.16.26-.3.45-1.58.61-5h-.25c-.46,2.32-1.42,4.69-2.87,5.86-.16-.15-.46-.37-.69-.5,1.44-1.04,2.39-3.19,2.83-5.37h-.6c-.39,1.51-1.17,3.16-2.13,4.01-.15-.15-.42-.36-.65-.48.92-.72,1.66-2.14,2.07-3.53h-.64c-.28.65-.6,1.21-.97,1.66-.13-.12-.47-.37-.65-.48.73-.79,1.24-2.07,1.53-3.4l.75.14c-.1.45-.23.89-.37,1.31h3.43Z"/><path class="cls-2" d="M54.71,27.98c-.23.66-.54,1.31-.88,1.94v6.03h-.79v-4.77c-.22.32-.47.62-.7.87-.08-.2-.31-.65-.46-.85.82-.85,1.58-2.15,2.05-3.47l.78.23ZM60.16,32.91h-2.38v3.05h-.83v-3.05h-2.49v-.82h2.49v-1.78h-1.27c-.18.49-.38.93-.6,1.27-.16-.12-.52-.32-.72-.41.5-.72.87-1.87,1.07-3l.81.16c-.08.39-.18.77-.29,1.15h1v-1.67h.83v1.67h1.97v.82h-1.97v1.78h2.38v.82Z"/><path class="cls-2" d="M62.08,29.18c.65-.06,2.25-.22,3.9-.36.96-.08,1.86-.14,2.48-.15v.91c-.5,0-1.28,0-1.75.13-1.19.36-1.98,1.65-1.98,2.71,0,1.64,1.53,2.19,3.01,2.25l-.32.96c-1.76-.09-3.6-1.04-3.6-3.02,0-1.36.8-2.45,1.53-2.93-.91.09-3,.31-4,.52l-.09-.98c.34,0,.66-.03.83-.04ZM67.9,31.82l-.56.25c-.22-.46-.45-.87-.72-1.26l.54-.23c.21.32.55.86.74,1.24ZM68.92,31.42l-.55.26c-.23-.46-.47-.86-.75-1.24l.54-.24c.21.31.56.85.76,1.22Z"/><path class="cls-2" d="M73.48,28.83c-.03.2-.06.48-.11.82.66,0,1.27-.04,1.74-.12l-.03.85c-.56.05-1.07.09-1.8.09h-.02c-.06.47-.13.98-.18,1.45h.13c.58,0,1.23-.03,1.84-.11l-.03.85c-.55.05-1.09.09-1.68.09h-.34c-.03.32-.04.59-.04.78,0,.82.48,1.3,1.44,1.3,1.31,0,2.1-.58,2.1-1.43,0-.61-.32-1.24-.95-1.8l1-.21c.6.71.9,1.34.9,2.12,0,1.35-1.2,2.23-3.06,2.23-1.3,0-2.3-.57-2.3-2.06,0-.23.03-.58.06-.98-.65-.05-1.28-.16-1.79-.31l.04-.86c.58.21,1.23.31,1.84.36.06-.48.13-.98.19-1.46-.65-.05-1.32-.17-1.87-.32l.04-.83c.55.18,1.25.29,1.91.34.04-.32.07-.61.09-.85.03-.36.03-.53,0-.71l1,.05c-.06.28-.1.5-.13.71Z"/><path class="cls-2" d="M82.35,34.87c-.74.46-1.88.89-2.79,1.13-.14-.16-.44-.48-.63-.62.94-.18,2.03-.51,2.66-.86l.76.34ZM86.5,28.1v2.07h-6.95v-2.07h6.95ZM86,30.62v3.88h-5.94v-3.88h5.94ZM80.33,29.54h1.27v-.79h-1.27v.79ZM80.89,31.75h4.24v-.57h-4.24v.57ZM80.89,32.84h4.24v-.56h-4.24v.56ZM80.89,33.96h4.24v-.58h-4.24v.58ZM82.32,29.54h1.31v-.79h-1.31v.79ZM84.29,34.53c1,.31,2.12.72,2.79,1.02l-.89.43c-.57-.29-1.57-.69-2.56-1.01l.66-.44ZM84.34,29.54h1.35v-.79h-1.35v.79Z"/><path class="cls-2" d="M89.53,29.89c0,.57,0,1.32.06,2.03.13,1.41.5,2.37,1.1,2.37.45,0,.84-.98,1.05-1.8l.71.84c-.57,1.54-1.12,2.07-1.78,2.07-.91,0-1.74-.86-1.98-3.23-.09-.79-.1-1.87-.1-2.41,0-.23-.02-.6-.07-.85l1.09.02c-.04.26-.09.73-.09.97ZM95.82,33.7l-.92.36c-.15-1.55-.66-3.55-1.57-4.63l.89-.3c.83,1.04,1.49,3.11,1.61,4.56Z"/><path class="cls-2" d="M104.82,29.01c-.21,1.94-.68,3.45-1.37,4.61.47.67,1.04,1.21,1.74,1.58-.19.16-.46.48-.57.68-.66-.39-1.22-.89-1.69-1.51-.49.62-1.07,1.11-1.71,1.5-.12-.2-.34-.49-.52-.65v.74h-.81v-1.54c-1.09.18-2.19.36-3.02.5l-.15-.84c.25-.03.53-.07.84-.11v-4.94h-.65v-.77h4.4v.65h2.84l.14-.03.54.14ZM98.35,29.02v1.04h1.53v-1.04h-1.53ZM98.35,31.91h1.53v-1.1h-1.53v1.1ZM99.89,33.64v-.97h-1.53v1.19l1.53-.22ZM100.69,35.17c.66-.35,1.25-.88,1.74-1.57-.58-1.04-.99-2.29-1.27-3.7l.81-.16c.21,1.12.52,2.15.97,3.04.45-.86.78-1.89.97-3.07h-2.84v-.69h-.37v6.15Z"/><path class="cls-2" d="M108.14,30.33c.39-.82,1.26-1.78,2.34-1.78,1.22,0,2.13,1.21,2.13,3.14,0,2.51-1.56,3.66-3.85,4.09l-.54-.82c1.96-.31,3.44-1.04,3.44-3.27,0-1.4-.48-2.32-1.33-2.32-1.09,0-2.09,1.62-2.17,2.81-.03.3-.03.6.04,1.04l-.88.06c-.04-.34-.1-.86-.1-1.46,0-.85.14-2.08.26-2.9.04-.31.06-.6.07-.86l.98.04c-.15.57-.33,1.66-.39,2.22Z"/><path class="cls-2" d="M119.56,28.67c0,.11,0,.28-.02.48.77-.04,1.56-.12,2.36-.25v.83c-.66.08-1.5.16-2.37.2v1.12c.89-.04,1.68-.12,2.46-.22v.84c-.83.1-1.58.16-2.44.2.02.41.04.85.06,1.25,1.17.32,2.05.96,2.57,1.38l-.52.8c-.51-.47-1.19-.98-2.01-1.31,0,.19.02.34.02.47,0,.68-.49,1.31-1.67,1.31-1.35,0-2.07-.5-2.07-1.41s.8-1.45,2.13-1.45c.23,0,.45.02.66.04,0-.35-.03-.72-.04-1.05h-.49c-.57,0-1.57-.05-2.19-.12v-.85c.6.1,1.66.16,2.21.16h.46v-1.11h-.37c-.59,0-1.67-.09-2.25-.16v-.82c.59.11,1.67.2,2.24.2h.39v-.55c0-.15,0-.42-.04-.57h.96c-.02.16-.04.36-.04.61ZM117.89,34.94c.5,0,.89-.15.89-.73,0-.13,0-.31,0-.5-.26-.05-.54-.08-.82-.08-.76,0-1.18.3-1.18.66,0,.39.34.66,1.11.66Z"/><path class="cls-2" d="M129.02,28.73c0,.11,0,.27,0,.45h2.69l-.02.85c-.53-.03-1.38-.04-2.68-.04,0,.49,0,1.01,0,1.41.21.32.31.74.31,1.2,0,1.2-.64,2.61-2.76,3.23l-.76-.76c1.06-.23,1.88-.63,2.32-1.32-.18.09-.4.14-.63.14-.73,0-1.51-.54-1.51-1.57,0-.95.76-1.62,1.67-1.62.18,0,.35.02.5.06,0-.23,0-.5,0-.77-1.36.02-2.83.07-3.95.14l-.03-.86c1.01-.02,2.68-.06,3.97-.08,0-.2,0-.35-.02-.46-.03-.29-.05-.57-.07-.66h1.03c-.03.12-.05.53-.05.66ZM127.64,33.1c.47,0,.82-.37.7-1.21-.14-.3-.4-.43-.7-.43-.41,0-.82.31-.82.85,0,.5.39.8.82.8Z"/><path class="cls-2" d="M135.41,34.66c0-.43.3-.74.68-.74s.7.31.7.74-.31.72-.7.72-.68-.3-.68-.72ZM135.6,29.54l-.03-1.07h1.04l-.04,1.07-.14,3.6h-.69l-.14-3.6Z"/><line class="cls-1" x1="13.5" y1="25" x2="137.5" y2="25"/><path class="cls-2" d="M145.5,29.3V12.21l6.52,8.54-6.52,8.54Z"/></g></svg>