<?xml version="1.0" encoding="UTF-8"?><svg id="_レイヤー_2" xmlns="http://www.w3.org/2000/svg" viewBox="0 0 169.5 42.08"><defs><style>.cls-1,.cls-2{stroke-width:0px;}.cls-2{fill:#7f84c2;}</style></defs><g id="_レイヤー_1-2"><path class="cls-1" d="M4.09.98c0,.19-.02.45-.03.74.56-.06,1.14-.18,1.58-.3l.02.78c-.46.1-1.06.2-1.61.26,0,.32-.02.64-.02.93v.28c.58-.17,1.18-.26,1.66-.26,1.19,0,2.09.64,2.09,1.66,0,.95-.55,1.62-1.73,1.89-.36.08-.72.1-1.02.12l-.29-.82c.32,0,.66,0,.96-.06.67-.13,1.26-.48,1.26-1.15,0-.62-.55-.96-1.28-.96-.56,0-1.11.1-1.64.26,0,.66.03,1.34.03,1.66,0,.85-.31,1.1-.78,1.1-.7,0-1.76-.64-1.76-1.41,0-.68.82-1.39,1.77-1.8v-.5c0-.28,0-.58,0-.89-.2.02-.38.02-.53.02-.49,0-.79-.02-1.06-.04l-.02-.77c.46.06.77.06,1.06.06.17,0,.35,0,.55-.02,0-.36,0-.65,0-.79,0-.17-.02-.49-.05-.63h.88c-.02.15-.05.42-.06.62ZM3.07,6.26c.16,0,.27-.1.27-.37s-.02-.72-.02-1.24c-.58.29-1,.7-1,1.02s.48.59.75.59ZM8.43,2.39l-.39.64c-.38-.35-1.34-.92-1.85-1.18l.35-.61c.59.3,1.49.84,1.89,1.15Z"/><path class="cls-1" d="M9.12,6.73c.55-.32.91-.88,1.1-1.46l.66.24c-.22.64-.54,1.27-1.14,1.66l-.62-.44ZM10.19,2.45c-.17.14-.35.27-.54.4-.12-.18-.36-.42-.53-.54,1.05-.62,1.76-1.5,2.13-2.25l.8.15c-.09.15-.18.3-.27.46h1.97l.12-.02.51.33c-.17.3-.41.66-.66.97h1.71v2.89h-2.77c.38.19.76.42.98.62l-.5.52c-.28-.29-.9-.66-1.41-.89l.25-.26h-1.95v-.61h4.66v-.56h-4.41v-.57h4.41v-.54h-4.51v-.1ZM11.35,1.27c-.18.23-.38.46-.59.67h2.11c.16-.2.33-.44.47-.67h-1.99ZM13.53,6.68c.3,0,.36-.1.39-.82.15.11.45.22.64.26-.07.98-.29,1.21-.96,1.21h-1.33c-.87,0-1.07-.2-1.07-.86v-1.08h.72v1.07c0,.2.07.23.43.23h1.18ZM15.02,5.18c.54.46,1.16,1.12,1.44,1.6l-.67.38c-.25-.46-.85-1.15-1.38-1.63l.62-.35Z"/><path class="cls-1" d="M20.15.48l.86-.1c.04.3.1.61.17.9.54-.07,1.01-.18,1.37-.29l.1.73c-.34.09-.78.18-1.28.24.05.17.1.33.15.48.05.14.1.28.17.43.65-.09,1.18-.22,1.56-.34l.13.74c-.38.1-.85.2-1.38.27.15.31.32.61.5.87.1.14.19.26.32.38l-.39.59c-.45-.1-1.25-.19-1.81-.26l.06-.61c.38.04.87.09,1.11.12-.21-.34-.38-.67-.54-1.01-.98.08-2.28.08-3.49,0l-.05-.75c1.2.12,2.35.12,3.25.06-.04-.12-.09-.24-.13-.36-.07-.21-.14-.39-.19-.56-.77.05-1.72.03-2.73-.06l-.05-.74c.96.11,1.83.14,2.57.11,0-.02,0-.05-.02-.07-.07-.26-.16-.53-.26-.79ZM18.68,5.56c0,.63.58.93,1.74.93.75,0,1.38-.06,1.95-.18l-.04.8c-.56.1-1.23.14-1.9.14-1.57,0-2.51-.46-2.52-1.54,0-.48.14-.84.33-1.21l.78.16c-.19.27-.34.54-.34.9ZM23.54,1.44l-.5.22c-.19-.41-.39-.78-.64-1.12l.49-.21c.19.27.48.76.65,1.1ZM24.43,1.08l-.49.23c-.21-.4-.42-.75-.67-1.1l.48-.22c.2.26.5.74.68,1.08Z"/><path class="cls-1" d="M29.09,7.1l-.47-.75c.27-.02.51-.06.71-.11,1.02-.23,1.94-.98,1.94-2.27,0-1.16-.7-2.08-1.94-2.23-.11.72-.25,1.5-.48,2.25-.48,1.63-1.14,2.54-1.94,2.54s-1.52-.88-1.52-2.21c0-1.79,1.57-3.33,3.57-3.33s3.13,1.34,3.13,3.01-1.07,2.83-3.01,3.11ZM26.94,5.56c.36,0,.74-.52,1.1-1.75.2-.63.34-1.36.44-2.06-1.44.23-2.28,1.48-2.28,2.47,0,.92.39,1.34.74,1.34Z"/><path class="cls-1" d="M36.41,2.13c-.02.39-.06.79-.1,1.18h3.12s0,.23-.02.34c-.14,2.22-.31,3.11-.62,3.44-.21.22-.42.28-.75.3-.29.02-.82.02-1.35,0,0-.22-.11-.52-.26-.73.55.05,1.11.06,1.33.06.18,0,.28-.02.38-.1.22-.18.37-.94.48-2.6h-2.43c-.29,1.38-.94,2.66-2.54,3.45-.11-.2-.34-.47-.54-.62,2.17-1,2.39-2.95,2.48-4.73h-2.37v-.71h3.14V.06h.76v1.36h3.21v.71h-3.93Z"/><path class="cls-1" d="M42.75,1.28c-.14.65-.39,2.31-.39,3.17,0,.29.02.56.06.86.11-.33.29-.73.42-1.02l.4.31c-.22.61-.49,1.42-.58,1.83-.02.11-.04.27-.04.37,0,.08.02.2.02.3l-.71.06c-.17-.57-.31-1.46-.31-2.54,0-1.18.26-2.71.35-3.35.02-.2.06-.46.06-.66l.87.08c-.05.14-.13.47-.16.62ZM46.79,1.09c0,.2-.02.54-.02.91.47-.04.92-.1,1.33-.18v.78c-.42.06-.86.12-1.33.15,0,.8.06,1.52.09,2.13.66.26,1.18.67,1.58,1.03l-.43.67c-.38-.35-.74-.66-1.11-.89v.04c0,.74-.35,1.37-1.46,1.37s-1.71-.45-1.71-1.21.63-1.28,1.7-1.28c.22,0,.44.02.65.05-.03-.56-.06-1.25-.08-1.87-.22,0-.45.02-.67.02-.46,0-.9-.02-1.37-.06v-.75c.45.05.9.07,1.38.07.22,0,.44,0,.66-.02v-.94c0-.14-.02-.36-.05-.51h.9c-.02.16-.04.34-.05.5ZM45.32,6.36c.59,0,.78-.3.78-.81v-.22c-.24-.07-.49-.11-.74-.11-.54,0-.91.23-.91.58,0,.38.37.56.88.56Z"/><path class="cls-1" d="M52.09.98c0,.19-.02.45-.03.74.56-.06,1.14-.18,1.58-.3l.02.78c-.46.1-1.06.2-1.61.26,0,.32-.02.64-.02.93v.28c.58-.17,1.18-.26,1.66-.26,1.19,0,2.09.64,2.09,1.66,0,.95-.55,1.62-1.73,1.89-.36.08-.72.1-1.02.12l-.29-.82c.32,0,.66,0,.96-.06.67-.13,1.26-.48,1.26-1.15,0-.62-.55-.96-1.28-.96-.56,0-1.11.1-1.64.26,0,.66.03,1.34.03,1.66,0,.85-.31,1.1-.78,1.1-.7,0-1.76-.64-1.76-1.41,0-.68.82-1.39,1.77-1.8v-.5c0-.28,0-.58,0-.89-.2.02-.38.02-.53.02-.49,0-.79-.02-1.06-.04l-.02-.77c.46.06.77.06,1.06.06.17,0,.35,0,.55-.02,0-.36,0-.65,0-.79,0-.17-.02-.49-.05-.63h.88c-.02.15-.05.42-.06.62ZM51.07,6.26c.16,0,.27-.1.27-.37s-.02-.72-.02-1.24c-.58.29-1,.7-1,1.02s.48.59.75.59ZM56.43,2.39l-.39.64c-.38-.35-1.34-.92-1.85-1.18l.35-.61c.59.3,1.49.84,1.89,1.15Z"/><path class="cls-1" d="M60.39,1.89h-2.36v1.06h-.66v-1.57h3.02v-.41h-2.53V.4h5.82v.57h-2.57v.41h3.08v1.57h-.69v-1.06h-2.39v1.75h-.72v-1.75ZM63.32,6.8c.4,0,.48-.14.53-.88.15.11.43.22.63.24-.1.97-.31,1.22-1.12,1.22h-1.75c-.98,0-1.25-.18-1.25-.9v-.15h-1.57v.38h-.71v-2.82h5.42v2.44h-2.43v.15c0,.28.1.33.59.33h1.66ZM58.25,3.05h1.79v.43h-1.79v-.43ZM60.03,2.25v.43h-1.62v-.43h1.62ZM58.79,4.4v.47h1.57v-.47h-1.57ZM60.35,5.79v-.46h-1.57v.46h1.57ZM62.77,4.4h-1.7v.47h1.7v-.47ZM62.77,5.79v-.46h-1.7v.46h1.7ZM63.12,2.25v.43h-1.64v-.43h1.64ZM61.48,3.05h1.84v.43h-1.84v-.43Z"/><path class="cls-1" d="M65.1,1.43h2.98v.59h-2.98v-.59ZM67.85,7.08h-1.75v.34h-.64v-2.69h2.39v2.34ZM67.82,3.12h-2.34v-.58h2.34v.58ZM65.48,3.63h2.34v.58h-2.34v-.58ZM67.81.94h-2.29V.35h2.29v.58ZM66.1,5.33v1.15h1.11v-1.15h-1.11ZM70.69,3.09v1.22h1.44v3.09h-.74v-.35h-2.1v.39h-.71v-3.13h1.35v-1.22h-1.79v-.7h1.79v-1.13c-.48.06-.96.11-1.42.14-.02-.18-.13-.46-.22-.63,1.2-.1,2.59-.31,3.41-.57l.52.61c-.44.13-.98.24-1.54.34v1.24h1.8v.7h-1.8ZM71.39,4.97h-2.1v1.39h2.1v-1.39Z"/><path class="cls-1" d="M74.12,1.4c.58-.06,2.01-.19,3.48-.32.86-.07,1.66-.12,2.21-.14v.81c-.45,0-1.14,0-1.56.11-1.06.32-1.77,1.46-1.77,2.41,0,1.46,1.36,1.94,2.68,2l-.29.86c-1.57-.08-3.21-.92-3.21-2.68,0-1.21.71-2.17,1.36-2.6-.81.08-2.67.27-3.57.46l-.08-.87c.3,0,.58-.02.74-.04ZM79.31,3.74l-.5.22c-.19-.41-.4-.78-.64-1.12l.48-.21c.19.28.49.77.66,1.1ZM80.22,3.38l-.49.23c-.21-.41-.42-.76-.67-1.1l.48-.22c.19.27.5.75.68,1.09Z"/><path class="cls-2" d="M.51,18.24c0-2.73.38-4.29,1.3-5.45,1.05-1.35,2.43-1.92,4.62-1.92,2.35,0,3.83.67,4.86,2.24.73,1.11,1.05,2.64,1.05,5.13v5.08c0,2.73-.38,4.29-1.3,5.45-1.05,1.35-2.43,1.92-4.62,1.92-2.35,0-3.83-.67-4.86-2.24-.73-1.11-1.05-2.62-1.05-5.13v-5.08ZM8.85,18.57c0-3.59-.62-4.83-2.43-4.83s-2.43,1.27-2.43,4.83v4.43c0,3.56.62,4.83,2.43,4.83s2.43-1.24,2.43-4.83v-4.43Z"/><path class="cls-2" d="M15.09,18.24c0-2.73.38-4.29,1.3-5.45,1.05-1.35,2.43-1.92,4.62-1.92,2.35,0,3.83.67,4.86,2.24.73,1.11,1.05,2.64,1.05,5.13v5.08c0,2.73-.38,4.29-1.3,5.45-1.05,1.35-2.43,1.92-4.62,1.92-2.35,0-3.83-.67-4.86-2.24-.73-1.11-1.05-2.62-1.05-5.13v-5.08ZM23.43,18.57c0-3.59-.62-4.83-2.43-4.83s-2.43,1.27-2.43,4.83v4.43c0,3.56.62,4.83,2.43,4.83s2.43-1.24,2.43-4.83v-4.43Z"/><path class="cls-2" d="M29.67,18.24c0-2.73.38-4.29,1.3-5.45,1.05-1.35,2.43-1.92,4.62-1.92,2.35,0,3.83.67,4.86,2.24.73,1.11,1.05,2.64,1.05,5.13v5.08c0,2.73-.38,4.29-1.3,5.45-1.05,1.35-2.43,1.92-4.62,1.92-2.35,0-3.83-.67-4.86-2.24-.73-1.11-1.05-2.62-1.05-5.13v-5.08ZM38.01,18.57c0-3.59-.62-4.83-2.43-4.83s-2.43,1.27-2.43,4.83v4.43c0,3.56.62,4.83,2.43,4.83s2.43-1.24,2.43-4.83v-4.43Z"/><path class="cls-2" d="M44.97,19.35h8.37v2.89h-8.37v-2.89Z"/><path class="cls-2" d="M56.85,18.24c0-2.73.38-4.29,1.3-5.45,1.05-1.35,2.43-1.92,4.62-1.92,2.35,0,3.83.67,4.86,2.24.73,1.11,1.05,2.64,1.05,5.13v5.08c0,2.73-.38,4.29-1.29,5.45-1.05,1.35-2.43,1.92-4.62,1.92-2.35,0-3.83-.67-4.86-2.24-.73-1.11-1.05-2.62-1.05-5.13v-5.08ZM65.2,18.57c0-3.59-.62-4.83-2.43-4.83s-2.43,1.27-2.43,4.83v4.43c0,3.56.62,4.83,2.43,4.83s2.43-1.24,2.43-4.83v-4.43Z"/><path class="cls-2" d="M71.44,18.24c0-2.73.38-4.29,1.29-5.45,1.05-1.35,2.43-1.92,4.62-1.92,2.35,0,3.83.67,4.86,2.24.73,1.11,1.05,2.64,1.05,5.13v5.08c0,2.73-.38,4.29-1.29,5.45-1.05,1.35-2.43,1.92-4.62,1.92-2.35,0-3.83-.67-4.86-2.24-.73-1.11-1.05-2.62-1.05-5.13v-5.08ZM79.78,18.57c0-3.59-.62-4.83-2.43-4.83s-2.43,1.27-2.43,4.83v4.43c0,3.56.62,4.83,2.43,4.83s2.43-1.24,2.43-4.83v-4.43Z"/><path class="cls-2" d="M86.02,18.24c0-2.73.38-4.29,1.29-5.45,1.05-1.35,2.43-1.92,4.62-1.92,2.35,0,3.83.67,4.86,2.24.73,1.11,1.05,2.64,1.05,5.13v5.08c0,2.73-.38,4.29-1.29,5.45-1.05,1.35-2.43,1.92-4.62,1.92-2.35,0-3.83-.67-4.86-2.24-.73-1.11-1.05-2.62-1.05-5.13v-5.08ZM94.36,18.57c0-3.59-.62-4.83-2.43-4.83s-2.43,1.27-2.43,4.83v4.43c0,3.56.62,4.83,2.43,4.83s2.43-1.24,2.43-4.83v-4.43Z"/><path class="cls-2" d="M101.32,19.35h8.37v2.89h-8.37v-2.89Z"/><path class="cls-2" d="M113.2,18.24c0-2.73.38-4.29,1.29-5.45,1.05-1.35,2.43-1.92,4.62-1.92,2.35,0,3.83.67,4.86,2.24.73,1.11,1.05,2.64,1.05,5.13v5.08c0,2.73-.38,4.29-1.29,5.45-1.05,1.35-2.43,1.92-4.62,1.92-2.35,0-3.83-.67-4.86-2.24-.73-1.11-1.05-2.62-1.05-5.13v-5.08ZM121.54,18.57c0-3.59-.62-4.83-2.43-4.83s-2.43,1.27-2.43,4.83v4.43c0,3.56.62,4.83,2.43,4.83s2.43-1.24,2.43-4.83v-4.43Z"/><path class="cls-2" d="M127.78,18.24c0-2.73.38-4.29,1.29-5.45,1.05-1.35,2.43-1.92,4.62-1.92,2.35,0,3.83.67,4.86,2.24.73,1.11,1.05,2.64,1.05,5.13v5.08c0,2.73-.38,4.29-1.29,5.45-1.05,1.35-2.43,1.92-4.62,1.92-2.35,0-3.83-.67-4.86-2.24-.73-1.11-1.05-2.62-1.05-5.13v-5.08ZM136.12,18.57c0-3.59-.62-4.83-2.43-4.83s-2.43,1.27-2.43,4.83v4.43c0,3.56.62,4.83,2.43,4.83s2.43-1.24,2.43-4.83v-4.43Z"/><path class="cls-2" d="M142.36,18.24c0-2.73.38-4.29,1.29-5.45,1.05-1.35,2.43-1.92,4.62-1.92,2.35,0,3.83.67,4.86,2.24.73,1.11,1.05,2.64,1.05,5.13v5.08c0,2.73-.38,4.29-1.29,5.45-1.05,1.35-2.43,1.92-4.62,1.92-2.35,0-3.83-.67-4.86-2.24-.73-1.11-1.05-2.62-1.05-5.13v-5.08ZM150.7,18.57c0-3.59-.62-4.83-2.43-4.83s-2.43,1.27-2.43,4.83v4.43c0,3.56.62,4.83,2.43,4.83s2.43-1.24,2.43-4.83v-4.43Z"/><path class="cls-2" d="M156.94,18.24c0-2.73.38-4.29,1.29-5.45,1.05-1.35,2.43-1.92,4.62-1.92,2.35,0,3.83.67,4.86,2.24.73,1.11,1.05,2.64,1.05,5.13v5.08c0,2.73-.38,4.29-1.29,5.45-1.05,1.35-2.43,1.92-4.62,1.92-2.35,0-3.83-.67-4.86-2.24-.73-1.11-1.05-2.62-1.05-5.13v-5.08ZM165.28,18.57c0-3.59-.62-4.83-2.43-4.83s-2.43,1.27-2.43,4.83v4.43c0,3.56.62,4.83,2.43,4.83s2.43-1.24,2.43-4.83v-4.43Z"/><path class="cls-1" d="M6.05,37.91c-.38.82-.98,1.45-1.7,1.94.82.33,1.76.55,2.81.66-.16.17-.35.49-.46.7-1.18-.17-2.23-.47-3.12-.93-.94.46-2.02.75-3.16.94-.07-.19-.27-.51-.43-.67,1.06-.13,2.03-.35,2.87-.7-.58-.4-1.07-.9-1.46-1.47l.14-.06h-.34v-.69h4.2l.14-.02.5.3ZM.87,37.86H.18v-1.66h1.21c-.1-.28-.28-.66-.46-.95l.65-.18c.22.3.42.73.51,1l-.43.14h1.73c-.04-.3-.19-.77-.36-1.13l.66-.14c.18.35.35.81.4,1.1l-.67.17h1.59c.23-.38.49-.9.64-1.29l.78.21c-.21.36-.44.76-.66,1.08h1.26v1.66h-.73v-1H.87v1ZM6.64,34.5c-1.68.34-4.14.53-6.22.6,0-.18-.09-.47-.16-.63,2.06-.08,4.47-.28,5.86-.58l.52.61ZM2.21,38.32c.35.46.82.86,1.4,1.17.54-.31.99-.7,1.33-1.17h-2.73Z"/><path class="cls-1" d="M10.61,34.21c-.22.57-.5,1.15-.81,1.69v5.36h-.75v-4.2c-.22.3-.46.58-.7.82-.08-.18-.3-.58-.45-.76.79-.76,1.54-1.94,1.98-3.14l.74.23ZM15.23,36.42h-.95v3.9c0,.52-.14.73-.47.84-.34.12-.9.14-1.77.13-.04-.21-.18-.54-.29-.74.65.03,1.31.02,1.5.02.18,0,.26-.06.26-.24v-3.9h-3.13v-.74h3.13v-1.66h.77v1.66h.95v.74ZM11.92,39.41c-.22-.5-.71-1.33-1.1-1.96l.65-.3c.38.6.9,1.41,1.14,1.89l-.7.38Z"/><path class="cls-1" d="M18.55,39.72h-1.66v.67h-.69v-5.96h2.35v5.29ZM16.89,35.1v1.61h.96v-1.61h-.96ZM17.85,39.05v-1.69h-.96v1.69h.96ZM22.35,37.02v.8h.86v.66h-.86v1.97c0,.38-.09.58-.35.7-.28.11-.69.12-1.31.12-.03-.2-.14-.49-.24-.7.45.02.89.02,1.01.02.13,0,.17-.04.17-.15v-1.95h-2.91v-.66h2.91v-.8h-2.93v-.66h1.9v-.88h-1.6v-.65h1.6v-.91h.74v.91h1.65v.65h-1.65v.88h1.94v.66h-.93ZM19.73,38.67c.38.4.82.94,1,1.33l-.63.38c-.17-.38-.58-.95-.97-1.37l.6-.34Z"/><path class="cls-1" d="M25.05,37.03v4.24h-.74v-7.02h2.95v2.78h-2.21ZM25.05,34.81v.55h1.51v-.55h-1.51ZM26.56,36.48v-.59h-1.51v.59h1.51ZM30.92,40.34c0,.42-.09.66-.38.79-.28.12-.72.13-1.39.13-.03-.2-.14-.52-.23-.73h-2.16v.4h-.68v-3.35h3v2.93c.39.02.78,0,.9,0,.14,0,.18-.05.18-.18v-3.29h-2.27v-2.8h3.02v6.09ZM26.76,38.14v.62h1.62v-.62h-1.62ZM28.38,39.97v-.66h-1.62v.66h1.62ZM28.61,34.81v.55h1.56v-.55h-1.56ZM30.16,36.5v-.61h-1.56v.61h1.56Z"/><path class="cls-1" d="M34.92,35.72c0-.39.3-.67.67-.67s.67.28.67.67-.3.66-.67.66-.67-.27-.67-.66ZM34.92,39.6c0-.4.3-.67.67-.67s.67.27.67.67-.3.66-.67.66-.67-.27-.67-.66Z"/><path class="cls-1" d="M47.17,38.55h-3.21v2.72h-.77v-2.72h-3.17v-.75h3.17v-2.62h-2.75v-.73h6.27v.73h-2.75v2.62h3.21v.75ZM41.64,35.5c.3.55.6,1.26.7,1.73l-.71.24c-.1-.46-.38-1.2-.66-1.76l.67-.21ZM44.73,37.27c.27-.48.61-1.24.78-1.8l.79.22c-.29.62-.64,1.34-.94,1.79l-.64-.21Z"/><path class="cls-1" d="M54.28,34.44v6.71h-.79v-.49h-3.77v.52h-.76v-6.74h5.32ZM49.72,35.19v1.95h3.77v-1.95h-3.77ZM53.48,39.91v-2.03h-3.77v2.03h3.77Z"/><path class="cls-1" d="M58.28,39.88h1.29v-3.93h-1.06v-.58c.55-.1.94-.24,1.28-.45h.7v4.96h1.15v.76h-3.36v-.76Z"/><path class="cls-1" d="M62.53,37.75c0-1.93.74-2.95,1.9-2.95s1.9,1.03,1.9,2.95-.73,2.99-1.9,2.99-1.9-1.06-1.9-2.99ZM65.45,37.75c0-1.65-.42-2.22-1.02-2.22s-1.02.58-1.02,2.22.42,2.26,1.02,2.26,1.02-.62,1.02-2.26Z"/><path class="cls-1" d="M71.67,39.72h-1.66v.67h-.69v-5.96h2.35v5.29ZM70.01,35.1v1.61h.96v-1.61h-.96ZM70.97,39.05v-1.69h-.96v1.69h.96ZM75.47,37.02v.8h.86v.66h-.86v1.97c0,.38-.09.58-.35.7-.28.11-.69.12-1.31.12-.03-.2-.14-.49-.24-.7.45.02.89.02,1.01.02.13,0,.17-.04.17-.15v-1.95h-2.91v-.66h2.91v-.8h-2.93v-.66h1.9v-.88h-1.6v-.65h1.6v-.91h.74v.91h1.65v.65h-1.65v.88h1.94v.66h-.93ZM72.85,38.67c.38.4.82.94,1,1.33l-.63.38c-.17-.38-.58-.95-.97-1.37l.6-.34Z"/><path class="cls-1" d="M79.14,37.26c-.58,0-1.09.41-1.41,1.01l-.7-.38c.52-.94,1.27-1.43,2.12-1.43.74,0,1.29.3,1.85.86.39.39.71.62,1.28.62s1.09-.41,1.41-1.02l.7.38c-.52.94-1.27,1.43-2.12,1.43-.74,0-1.29-.3-1.85-.86-.39-.39-.71-.62-1.28-.62Z"/><path class="cls-1" d="M85.4,39.88h1.29v-3.93h-1.06v-.58c.55-.1.94-.24,1.28-.45h.7v4.96h1.15v.76h-3.36v-.76Z"/><path class="cls-1" d="M89.64,39.17c0-.73.51-1.22,1.06-1.5v-.03c-.44-.31-.79-.74-.79-1.34,0-.91.72-1.5,1.68-1.5,1.02,0,1.66.63,1.66,1.54,0,.59-.42,1.08-.78,1.34v.04c.52.3.99.71.99,1.48,0,.87-.77,1.54-1.9,1.54s-1.92-.66-1.92-1.57ZM92.59,39.17c0-.68-.65-.91-1.45-1.24-.4.28-.69.67-.69,1.15,0,.58.49.99,1.12.99s1.02-.35,1.02-.9ZM92.47,36.39c0-.53-.33-.93-.9-.93-.48,0-.84.32-.84.84,0,.62.56.89,1.22,1.14.34-.32.53-.67.53-1.06Z"/><path class="cls-1" d="M98.79,39.72h-1.66v.67h-.69v-5.96h2.35v5.29ZM97.13,35.1v1.61h.96v-1.61h-.96ZM98.09,39.05v-1.69h-.96v1.69h.96ZM102.59,37.02v.8h.86v.66h-.86v1.97c0,.38-.09.58-.35.7-.28.11-.69.12-1.31.12-.03-.2-.14-.49-.24-.7.45.02.89.02,1.01.02.13,0,.17-.04.17-.15v-1.95h-2.91v-.66h2.91v-.8h-2.93v-.66h1.9v-.88h-1.6v-.65h1.6v-.91h.74v.91h1.65v.65h-1.65v.88h1.94v.66h-.93ZM99.97,38.67c.38.4.82.94,1,1.33l-.63.38c-.17-.38-.58-.95-.97-1.37l.6-.34Z"/><path class="cls-1" d="M110.86,33.78l.61.29c-.87.91-1.47,2.06-1.47,3.53s.6,2.62,1.47,3.53l-.61.29c-.91-.92-1.58-2.2-1.58-3.82s.67-2.9,1.58-3.82Z"/><path class="cls-1" d="M116.21,40.36c.35.05.73.07,1.13.07.34,0,1.69,0,2.14-.02-.12.18-.25.54-.28.75h-1.9c-1.57,0-2.72-.26-3.45-1.52-.26.68-.63,1.24-1.13,1.66-.12-.14-.43-.39-.62-.51.88-.66,1.29-1.78,1.46-3.17l.77.07c-.05.37-.11.72-.19,1.05.28.74.73,1.17,1.3,1.41v-3.1h-1.85v-.71h4.5v.71h-1.89v1.17h2.29v.7h-2.29v1.44ZM113.22,36.63h-.73v-1.84h2.93v-.86h.79v.86h2.96v1.84h-.76v-1.14h-5.19v1.14Z"/><path class="cls-1" d="M122.85,34.21c-.23.58-.52,1.15-.85,1.7v5.34h-.74v-4.28c-.26.34-.54.64-.82.9-.08-.18-.3-.59-.44-.77.85-.74,1.63-1.91,2.1-3.13l.74.23ZM125.6,36.63c.48,1.2,1.25,2.4,2.04,3.05-.18.14-.43.4-.56.6-.71-.67-1.37-1.76-1.86-2.92v3.9h-.74v-3.7c-.51,1.11-1.18,2.11-1.91,2.77-.12-.18-.38-.45-.55-.59.85-.66,1.64-1.88,2.13-3.11h-1.8v-.73h2.13v-1.85h.74v1.85h2.2v.73h-1.82Z"/><path class="cls-1" d="M134.52,34.44v6.71h-.79v-.49h-3.77v.52h-.76v-6.74h5.32ZM129.96,35.19v1.95h3.77v-1.95h-3.77ZM133.73,39.91v-2.03h-3.77v2.03h3.77Z"/><path class="cls-1" d="M140.15,34.25h.64l-2.22,7.83h-.64l2.22-7.83Z"/><path class="cls-1" d="M146.26,36.07c-.38,2.13-1.3,3.65-2.46,4.46-.13-.17-.42-.47-.61-.58.99-.64,1.77-1.78,2.14-3.28h-1.92v-.75h2.19l.14-.03.5.18ZM150.44,35.68c-.63.69-1.46,1.5-2.14,2.01.59,1.02,1.38,1.85,2.41,2.3-.18.15-.44.46-.58.69-1.28-.67-2.16-1.88-2.77-3.37v2.95c0,.49-.12.72-.41.86-.3.13-.78.15-1.52.15-.03-.22-.18-.59-.29-.82.54.02,1.05.02,1.21.02.16,0,.22-.06.22-.2v-6.32h.78v1.42c.16.6.37,1.18.62,1.72.62-.54,1.32-1.29,1.77-1.89l.69.49Z"/><path class="cls-1" d="M158.62,40.99h-3.61v.24h-.67v-2.72c-.14.16-.3.3-.46.42-.05-.06-.12-.16-.2-.25v1.07h-1.46v.67h-.65v-6h2.11v3.81c.46-.43.86-1.02,1.1-1.54h-.82v-.52h1.4v-.48h-1.26v-.49h1.26v-.46h-1.39v-.52h2.03v2.47h-.71l.24.07c-.08.17-.18.34-.28.52h.99c.09-.2.17-.41.22-.59h-.18v-.52h1.43v-.48h-1.32v-.49h1.32v-.46h-1.42v-.52h2.07v2.47h-1.45l.31.06c-.1.18-.19.36-.29.53h1.47v.57h-1.66v.51h1.48v.5h-1.48v.52h1.48v.5h-1.48v.55h1.86v.57ZM152.22,35.07v1.64h.81v-1.64h-.81ZM153.03,39.1v-1.74h-.81v1.74h.81ZM156.11,37.85h-1.1v.51h1.1v-.51ZM156.11,38.85h-1.1v.52h1.1v-.52ZM155.01,40.42h1.1v-.55h-1.1v.55Z"/><path class="cls-1" d="M165.64,34.44v6.71h-.79v-.49h-3.77v.52h-.76v-6.74h5.32ZM161.08,35.19v1.95h3.77v-1.95h-3.77ZM164.85,39.91v-2.03h-3.77v2.03h3.77Z"/><path class="cls-1" d="M167.92,41.42l-.61-.29c.87-.91,1.47-2.06,1.47-3.53s-.6-2.62-1.47-3.53l.61-.29c.91.92,1.58,2.2,1.58,3.82s-.67,2.9-1.58,3.82Z"/></g></svg>