<svg id="_レイヤー_2" xmlns="http://www.w3.org/2000/svg" viewBox="0 0 277 83"><defs><style>.cls-3{fill:#fff;stroke-width:0}</style></defs><g id="_文字"><rect x=".5" y=".5" width="276" height="82" rx="35" ry="35" fill="none" stroke-miterlimit="10" stroke="#231815"/><path class="cls-3" d="M40.47 15.9c-.57.62-1.17 1.17-1.74 1.65-.39-.39-1.23-1.05-1.76-1.4 1.94-1.35 3.75-3.53 4.8-5.73l2.08.6c-.32.67-.69 1.31-1.1 1.93h14.06v1.88h-2.24v3.44h3.09v1.93h-3.09v3.44h2.77v1.93H37.71v-1.93h2.77V20.2h-3.11v-1.93h3.11v-2.36zm-3.32 14.75c1.12-.94 2.15-2.68 2.7-4.33l2.06.5c-.57 1.72-1.55 3.53-2.74 4.68l-2.01-.85zm5.24-12.38h2.12v-3.44h-2.12v3.44zm0 5.36h2.12v-3.44h-2.12v3.44zm3.43 3.14c.3 1.35.55 3.12.57 4.17l-2.08.3c0-1.08-.18-2.89-.46-4.27l1.96-.21zm2.69-8.5v-3.44h-2.22v3.44h2.22zm-2.21 1.92v3.44h2.22v-3.44H46.3zm4.11 6.49c.59 1.31 1.19 3.07 1.39 4.17l-2.1.41c-.18-1.1-.71-2.89-1.28-4.27l1.99-.32zm2.17-11.85h-2.26v3.44h2.26v-3.44zm0 5.36h-2.26v3.44h2.26v-3.44zm2.4 6.03c1.1 1.38 2.42 3.28 3.02 4.52l-2.15.76c-.55-1.22-1.78-3.19-2.88-4.63l2.01-.64zm10.56-5.94c.69.73 2.88 3.53 3.36 4.22l-1.35 1.67c-.39-.83-1.26-2.27-2.01-3.49v8.76h-1.99v-8.78c-.78 2.29-1.83 4.63-2.9 6.08-.18-.62-.69-1.56-1.03-2.13 1.23-1.51 2.54-4.24 3.29-6.58h-2.9v-2h3.54v-7.5h1.99v7.5h3.57v2h-3.57v.25zm-4.32-2.86c-.09-1.4-.57-3.55-1.14-5.18l1.53-.39c.62 1.61 1.1 3.71 1.26 5.11l-1.65.46zm8.05-5.26c-.57 1.79-1.28 3.92-1.85 5.25l-1.37-.44c.5-1.4 1.1-3.67 1.39-5.23l1.83.41zm8.87 12.99v6.33h-1.99v-5.96l-6.77 1.24-.34-1.97 7.11-1.28V10.46h1.99v12.68l2.54-.44.3 1.95-2.83.5zm-4.92-3.31c-.8-.85-2.42-2.04-3.77-2.78l1.01-1.54c1.33.71 3.02 1.79 3.82 2.59l-1.05 1.72zm.92-5.55c-.71-.89-2.26-2.13-3.57-2.96l1.07-1.44c1.28.78 2.86 1.93 3.61 2.77l-1.12 1.63zm22.15-1.26c1.9 1.93 4.75 3.6 7.5 4.45-.46.41-1.07 1.19-1.37 1.72-3.06-1.12-6.17-3.33-8.23-5.85v4.27h-2.1v-4.31c-2.03 2.59-5.14 4.82-8.16 6.01-.27-.48-.87-1.26-1.33-1.65 2.67-.89 5.46-2.66 7.34-4.63h-6.79v-1.86h8.94v-2.75h2.1v2.75h9.1v1.86H96.3zm3.33 14.08h3.77v1.93H83.02v-1.93h3.82v-8.85h12.78v8.85zM88.9 22.05v1.28h8.55v-1.28H88.9zm8.55 2.84H88.9v1.33h8.55v-1.33zm-8.55 4.22h8.55v-1.35H88.9v1.35zm28.23-.25c1.01.14 2.08.21 3.22.21.98 0 4.82 0 6.12-.05-.34.5-.71 1.54-.8 2.16h-5.44c-4.48 0-7.77-.76-9.85-4.36-.75 1.95-1.81 3.55-3.22 4.77-.34-.39-1.23-1.12-1.76-1.47 2.51-1.88 3.68-5.09 4.16-9.11l2.19.21c-.14 1.05-.32 2.06-.55 3 .8 2.13 2.08 3.35 3.73 4.04v-8.9h-5.28v-2.04h12.87v2.04h-5.39v3.37h6.54v2h-6.54v4.13zm-8.52-10.69h-2.08v-5.28h8.37v-2.45h2.26v2.45h8.46v5.28h-2.17v-3.26h-14.83v3.26zm38.42-2.43c-.5 2.34-1.55 5.99-3.41 8.42-2.08 2.73-4.94 4.91-9.1 6.21l-1.97-2.16c4.48-1.1 7.06-3.05 8.94-5.46 1.58-2 2.56-4.93 2.86-7.04h-11.22c-.98 0-1.9.04-2.47.09v-2.57c.64.09 1.71.18 2.47.18h11.09c.39 0 .96-.02 1.46-.16l1.76 1.15c-.18.37-.3.87-.41 1.33zm18.33 1.49c0 .44.02 1.01.02 1.68h3.04c.53 0 1.33-.07 1.67-.14v2.25c-.46-.02-1.12-.05-1.6-.05h-3.06c.07 2.82.14 6.28.16 8.53 0 1.08-.8 1.77-1.94 1.77-1 0-2.45-.07-3.41-.14l-.14-2.09c.92.14 2.08.23 2.72.23.41 0 .59-.25.59-.71 0-1.31-.02-3.46-.04-5.62-1.58 2.13-4.8 4.91-7.73 6.47l-1.58-1.81c3.34-1.56 6.7-4.38 8.27-6.63h-5.6c-.62 0-1.3.02-1.9.07v-2.27c.53.09 1.28.14 1.85.14h6.61c-.02-.67-.04-1.22-.07-1.68-.02-.48-.07-1.15-.16-1.7h2.38c-.09.5-.09 1.15-.09 1.7zm13.46 2.34h12.43c1.1 0 1.99-.09 2.56-.14v2.84c-.5-.02-1.55-.11-2.56-.11h-12.43c-1.26 0-2.63.05-3.41.11v-2.84c.75.05 2.17.14 3.41.14zm28.62-4.77c-.69 2.18-2.77 8.67-3.91 11.7 3.11-.28 6.97-.71 9.42-1.03-.87-1.74-1.81-3.42-2.61-4.47l2.22-.96c1.6 2.41 4.05 6.97 5.03 9.43l-2.42 1.1c-.3-.8-.71-1.81-1.19-2.87-3.63.44-10.95 1.24-13.92 1.51-.57.07-1.33.18-2.01.28l-.41-2.66c.71 0 1.6 0 2.29-.05.27-.02.59-.02.94-.05 1.28-3.28 3.45-10.14 4.09-12.45.32-1.1.41-1.72.5-2.38l2.86.6c-.25.62-.53 1.31-.87 2.32zm-166 31.95c1.14-.7 2.28-1.26 2.99-1.65.46-.26.81-.47 1.13-.74l.7 1.28c-.36.22-.75.42-1.2.66-.92.46-2.37 1.14-3.69 2.01-1.22.81-2 1.67-2 2.69 0 1.1 1.04 1.75 3.12 1.75 1.47 0 3.34-.21 4.49-.49v1.58c-1.13.2-2.67.35-4.44.35-2.69 0-4.66-.78-4.66-3.02 0-1.48.95-2.62 2.37-3.64-.64-1.17-1.35-2.74-1.99-4.23l1.38-.59a30.39 30.39 0 001.81 4.03zm6.14-2.27l-.9.41c-.28-.57-.74-1.41-1.11-1.96l.9-.38c.35.52.85 1.38 1.11 1.93zm1.62-.61l-.9.4c-.29-.6-.75-1.41-1.14-1.93l.9-.38c.36.52.89 1.4 1.14 1.9zm7.66-.05c-.64.98-1.79 3.06-2.49 4.36.6-.46 1.25-.67 1.85-.67.99 0 1.63.63 1.68 1.76.03.73 0 1.81.06 2.46.04.64.49.89 1.02.89 1.41 0 2.25-1.76 2.63-3.37l1.17.96c-.72 2.32-1.95 3.9-4.02 3.9-1.52 0-2.1-.94-2.14-1.84-.05-.8-.04-1.9-.08-2.58-.03-.54-.35-.88-.92-.88-1.04 0-1.98 1.06-2.5 2.18-.39.82-.95 2.43-1.14 3.14l-1.53-.52c1.03-2.82 3.99-8.53 4.73-9.87.18-.35.39-.74.58-1.23l1.56.63c-.12.18-.28.43-.45.68zm12.45.59c.71-.11 1.41-.26 2.04-.47l.04 1.29c-.7.2-1.56.38-2.49.5-.68 1.97-1.89 4.4-3.02 5.93l-1.34-.68c1.14-1.37 2.3-3.52 2.92-5.1-.35.01-.68.03-1.02.03-.53 0-1.11-.01-1.67-.04l-.1-1.3c.54.06 1.21.08 1.77.08.46 0 .95-.01 1.43-.06.21-.78.38-1.65.4-2.39l1.53.15c-.11.49-.31 1.27-.51 2.05zm3.79 3.91c.01.46.06 1.27.1 2.07 1.2.43 2.17 1.13 2.88 1.76l-.74 1.19c-.54-.5-1.25-1.1-2.09-1.56v.39c0 1.19-.71 2.15-2.55 2.15-1.61 0-2.92-.7-2.92-2.15 0-1.31 1.18-2.23 2.91-2.23.42 0 .81.04 1.18.1-.04-1.1-.11-2.42-.14-3.34h1.36c-.03.59-.01 1.08 0 1.63zm-2.58 4.72c1.06 0 1.41-.59 1.41-1.34 0-.12 0-.29-.01-.47-.4-.11-.83-.18-1.29-.18-.92 0-1.54.42-1.54.99s.5 1 1.45 1zm1.94-7.78l.71-1.08c1 .45 2.64 1.37 3.34 1.87l-.79 1.16c-.77-.64-2.31-1.52-3.26-1.95zm10.75 3.83c-.54.18-1.08.35-1.63.52v5h-1.2v-4.62l-2.19.67-.33-1.24c.7-.18 1.57-.42 2.52-.68v-2.93h-1.11c-.17.74-.36 1.41-.57 1.94-.21-.17-.68-.45-.95-.59.49-1.13.74-2.89.88-4.55l1.1.18c-.07.6-.14 1.2-.22 1.79h.88v-2.76h1.2v2.76h1.29v1.23h-1.29v2.57l1.46-.42.17 1.14zm7.38-5.04s0 .45-.01.61c-.31 6.27-.57 8.47-1.11 9.16-.29.42-.57.54-1.02.61-.38.07-.96.06-1.57.03-.01-.38-.15-.91-.36-1.27.58.06 1.1.06 1.36.06.22 0 .36-.06.5-.25.4-.46.7-2.44.95-7.75h-.39c-.71 3.6-2.2 7.27-4.45 9.09-.25-.24-.71-.57-1.07-.77 2.24-1.61 3.7-4.94 4.4-8.32h-.93c-.61 2.35-1.82 4.9-3.3 6.21-.24-.24-.65-.56-1-.74 1.43-1.12 2.57-3.32 3.21-5.47h-.99c-.43 1.01-.93 1.88-1.5 2.57-.21-.18-.72-.57-1-.74 1.13-1.23 1.92-3.21 2.38-5.28l1.17.22c-.15.7-.36 1.38-.57 2.02h5.32zm5.49-1.83c-.36 1.02-.83 2.04-1.36 3.02v9.35H93.5v-7.4c-.35.49-.72.96-1.08 1.35-.13-.31-.49-1-.71-1.31 1.27-1.31 2.45-3.34 3.17-5.38l1.21.36zm8.45 7.65h-3.69v4.73h-1.29v-4.73H95.7V48.6h3.85v-2.76h-1.98c-.28.75-.58 1.44-.93 1.97a9.14 9.14 0 00-1.11-.63c.78-1.12 1.35-2.9 1.66-4.65l1.25.25c-.12.6-.28 1.2-.45 1.79h1.56v-2.6h1.29v2.6h3.06v1.27h-3.06v2.76h3.69v1.27zm2.97-5.78c1.02-.1 3.49-.34 6.05-.56 1.49-.13 2.88-.21 3.84-.24v1.41c-.78 0-1.99.01-2.71.2-1.85.56-3.08 2.55-3.08 4.2 0 2.54 2.37 3.39 4.66 3.49l-.5 1.49c-2.73-.14-5.58-1.61-5.58-4.68 0-2.11 1.24-3.8 2.37-4.54-1.41.14-4.65.47-6.21.81l-.14-1.52c.53-.01 1.02-.04 1.29-.07zm9.03 4.09l-.86.39c-.33-.71-.7-1.35-1.11-1.96l.83-.36c.33.49.85 1.34 1.14 1.93zm1.59-.63l-.85.41c-.36-.71-.72-1.33-1.17-1.93l.83-.38c.33.47.88 1.31 1.18 1.9zm7.07-4.01c-.04.31-.1.74-.17 1.27 1.03 0 1.96-.07 2.7-.18l-.04 1.31c-.86.08-1.66.14-2.8.14h-.03c-.1.73-.2 1.52-.28 2.25h.19c.9 0 1.91-.04 2.85-.17l-.04 1.31c-.85.08-1.7.14-2.6.14h-.53c-.04.49-.07.92-.07 1.21 0 1.27.74 2.01 2.23 2.01 2.03 0 3.26-.91 3.26-2.22 0-.95-.5-1.93-1.48-2.79l1.54-.32c.93 1.1 1.39 2.08 1.39 3.28 0 2.09-1.87 3.46-4.75 3.46-2.02 0-3.56-.88-3.56-3.2 0-.36.04-.89.1-1.52-1.02-.08-1.99-.25-2.78-.47l.07-1.34c.9.32 1.91.47 2.85.56.1-.74.19-1.52.29-2.26-1-.08-2.04-.27-2.89-.49l.07-1.28c.85.28 1.93.45 2.96.53.07-.5.11-.95.14-1.31.04-.56.04-.82.01-1.1l1.56.08c-.1.43-.15.77-.21 1.1zm13.77 9.36c-1.14.71-2.92 1.38-4.33 1.76-.22-.25-.68-.74-.97-.96 1.46-.28 3.15-.8 4.12-1.33l1.18.53zm6.43-10.49v3.21H134.6v-3.21h10.79zm-.78 3.91v6.02h-9.21v-6.02h9.21zm-8.79-1.69h1.98V43.4h-1.98v1.23zm.87 3.44h6.58v-.88h-6.58v.88zm0 1.69h6.58v-.87h-6.58v.87zm0 1.73h6.58v-.91h-6.58v.91zm2.22-6.86h2.03V43.4h-2.03v1.23zm3.06 7.75c1.54.47 3.28 1.12 4.33 1.58l-1.38.67c-.89-.45-2.43-1.08-3.97-1.56l1.02-.68zm.07-7.75h2.1V43.4h-2.1v1.23zm8.05.55c-.01.88 0 2.05.1 3.14.21 2.19.78 3.67 1.71 3.67.7 0 1.31-1.52 1.63-2.79l1.1 1.3c-.88 2.39-1.74 3.21-2.76 3.21-1.41 0-2.7-1.34-3.08-5.01-.14-1.23-.15-2.9-.15-3.74 0-.35-.03-.94-.11-1.31l1.7.03c-.07.4-.14 1.13-.14 1.51zm9.76 5.92l-1.43.56c-.24-2.4-1.03-5.5-2.44-7.18l1.38-.46c1.28 1.62 2.31 4.82 2.49 7.08zm13.96-7.28c-.32 3-1.06 5.35-2.13 7.15.72 1.03 1.61 1.87 2.7 2.44-.29.25-.71.74-.89 1.06a8.87 8.87 0 01-2.62-2.34c-.75.96-1.66 1.72-2.66 2.32-.18-.31-.53-.75-.81-1v1.14h-1.25V52.2c-1.68.28-3.4.56-4.69.77l-.24-1.3c.39-.04.82-.11 1.31-.17v-7.67h-1.02v-1.2h6.82v1h4.41l.22-.04.83.22zm-10.03.02v1.62h2.38v-1.62h-2.38zm0 4.48h2.38v-1.7h-2.38v1.7zm2.38 2.68v-1.51h-2.38v1.84l2.38-.33zm1.25 2.37c1.03-.54 1.93-1.37 2.7-2.43-.9-1.61-1.53-3.55-1.98-5.74l1.25-.25c.32 1.73.81 3.34 1.5 4.72.7-1.33 1.21-2.93 1.5-4.76h-4.41v-1.08h-.57v9.54zm11.57-7.51c.61-1.27 1.95-2.76 3.63-2.76 1.89 0 3.3 1.87 3.3 4.87 0 3.9-2.42 5.68-5.97 6.34l-.84-1.27c3.05-.47 5.33-1.61 5.33-5.07 0-2.18-.74-3.6-2.06-3.6-1.7 0-3.24 2.51-3.37 4.36-.04.46-.04.94.06 1.61l-1.36.1c-.07-.53-.15-1.34-.15-2.26 0-1.31.22-3.22.4-4.5.07-.47.1-.94.11-1.33l1.52.07c-.24.88-.51 2.57-.6 3.45zm17.71-2.57c-.01.17-.01.43-.03.74 1.2-.06 2.42-.18 3.66-.39v1.28c-1.03.13-2.32.25-3.67.31v1.73c1.38-.06 2.6-.18 3.81-.35v1.3c-1.29.15-2.45.25-3.79.31.03.64.07 1.31.1 1.94 1.81.5 3.19 1.48 3.99 2.14l-.81 1.24c-.79-.73-1.85-1.52-3.12-2.04.01.29.03.53.03.73 0 1.06-.77 2.02-2.59 2.02-2.09 0-3.21-.78-3.21-2.18s1.24-2.25 3.31-2.25c.36 0 .7.03 1.03.06-.01-.54-.04-1.12-.05-1.63h-.77c-.89 0-2.44-.07-3.4-.18v-1.31c.93.15 2.57.25 3.42.25h.71v-1.72h-.57c-.92 0-2.59-.14-3.49-.25v-1.27c.92.17 2.59.31 3.48.31h.6v-.85c0-.24-.01-.66-.07-.88h1.49c-.03.25-.06.56-.07.95zm-2.59 9.72c.78 0 1.38-.24 1.38-1.13 0-.2 0-.47-.01-.78-.4-.08-.84-.13-1.27-.13-1.18 0-1.82.46-1.82 1.02 0 .6.53 1.02 1.73 1.02zm17.27-9.62c-.01.17-.01.42-.01.7h4.17l-.03 1.31c-.82-.04-2.14-.07-4.16-.07.01.75.01 1.56.01 2.19.32.5.49 1.14.49 1.86 0 1.86-.99 4.05-4.29 5.01l-1.18-1.17c1.64-.36 2.92-.98 3.59-2.05-.28.14-.61.21-.97.21-1.13 0-2.34-.84-2.34-2.43 0-1.47 1.18-2.51 2.59-2.51.28 0 .54.03.78.1 0-.36-.01-.78-.01-1.19-2.12.03-4.4.11-6.12.22l-.04-1.34c1.57-.03 4.16-.1 6.15-.13-.01-.31-.01-.54-.03-.71-.04-.45-.08-.88-.11-1.02h1.6c-.04.18-.08.82-.08 1.02zm-2.15 6.77c.72 0 1.27-.57 1.08-1.88-.22-.46-.63-.67-1.08-.67-.64 0-1.27.48-1.27 1.31 0 .77.6 1.24 1.27 1.24zm12.05 2.42c0-.67.46-1.14 1.06-1.14s1.08.47 1.08 1.14-.47 1.12-1.08 1.12-1.06-.46-1.06-1.12zm.31-7.93l-.04-1.66h1.61l-.05 1.66-.22 5.58h-1.07l-.22-5.58zM40.35 60.46c.6 0 3.35-.13 4.17-.22.39-.04.67-.1.85-.15l.88 1.02c-.24.14-.65.43-.89.63-1.02.82-2.75 2.29-3.8 3.11 2-.21 4.42-.39 6.29-.39v1.31c-1.34-.07-2.7-.07-3.55.04-1.31.2-2.53 1.24-2.53 2.47s1.02 1.73 2.28 1.9c.79.1 1.53.07 2.04.03l-.29 1.45c-3.46.14-5.41-.92-5.41-3.16 0-1.05.72-2 1.35-2.44-1.39.11-3.12.32-4.68.59l-.12-1.33c.75-.07 1.71-.2 2.42-.28 1.39-.95 3.44-2.74 4.3-3.5-.6.04-2.71.14-3.3.18-.36.03-.79.08-1.16.11l-.07-1.42c.39.04.76.06 1.21.06zm16.66 11.02l-.82-1.31c.47-.04.89-.11 1.24-.2 1.78-.4 3.37-1.72 3.37-3.96 0-2.02-1.22-3.63-3.37-3.9-.19 1.26-.43 2.61-.83 3.92-.83 2.85-1.99 4.43-3.37 4.43s-2.64-1.54-2.64-3.87c0-3.13 2.73-5.81 6.22-5.81s5.46 2.35 5.46 5.26-1.87 4.94-5.25 5.43zm-3.74-2.69c.63 0 1.28-.91 1.92-3.06.35-1.1.6-2.37.77-3.6-2.5.4-3.97 2.58-3.97 4.31 0 1.61.68 2.35 1.28 2.35zm14.94-9.13c-.36.96-.83 1.96-1.35 2.89v9.48h-1.27v-7.48c-.38.52-.77.99-1.16 1.41-.12-.31-.5-.99-.71-1.3 1.31-1.3 2.55-3.34 3.3-5.38l1.18.38zm6.34 11.03c.82 0 .97-.38 1.1-1.98.29.21.82.45 1.17.52-.19 1.98-.58 2.62-2.18 2.62h-3.37c-1.81 0-2.32-.45-2.32-2.15v-4.19l-1.21.49-.51-1.16 1.73-.67v-3.49h1.28v2.99l1.74-.67v-3.73h1.22v3.25l1.8-.7.19-.15.22-.18.89.36-.06.2c-.01 2.49-.04 4.34-.15 4.93-.08.66-.36.96-.79 1.1-.4.14-1.03.15-1.46.14-.03-.35-.15-.89-.31-1.19.35.01.79.01.97.01.21 0 .33-.06.42-.36.07-.33.1-1.52.11-3.55l-1.84.71v5.03h-1.22v-4.54l-1.74.67v4.71c0 .81.17.98 1.13.98h3.2zm6.91-6.25c.49.5 1.73 1.97 2 2.33l-.78 1.05c-.24-.46-.75-1.23-1.22-1.9v6.12h-1.24v-6.16c-.5 1.44-1.14 2.81-1.81 3.67-.14-.36-.45-.89-.64-1.19.93-1.14 1.84-3.2 2.28-4.98h-1.96v-1.23h2.13v-2.92h1.24v2.92h1.86v1.23h-1.86v1.06zm8.75-4.43v11.85h-1.29v-.75h-3.79v.82h-1.24V60.01h6.32zm-5.08 1.23v2.05h3.79v-2.05h-3.79zm0 5.36h3.79v-2.12h-3.79v2.12zm3.79 3.33v-2.14h-3.79v2.14h3.79zM97 62.57h-5.19v-1.03H97v1.03zm-.46 8.71h-2.99v.59h-1.11v-4.69h4.11v4.1zm-.01-6.84h-4.08v-1.01h4.08v1.01zm-4.08.85h4.08v1.02h-4.08v-1.02zm4.05-4.58h-3.99v-1.02h3.99v1.02zm-2.95 7.51v2.01h1.88v-2.01h-1.88zm7.92-1.16c0 .82.51 2.86 3.23 3.9-.22.29-.58.8-.75 1.1-1.96-.77-2.91-2.46-3.13-3.29-.24.85-1.28 2.47-3.48 3.29-.15-.29-.49-.8-.74-1.05 2.98-1.06 3.55-3.11 3.55-3.95v-2.04h1.32v2.04zm-4.65 1.44c.64-.5 1.06-1.47 1.25-2.43l1.14.24c-.18 1.05-.64 2.14-1.35 2.78l-1.04-.59zm6.89-2.99c-.65-.6-1.88-1.47-3.01-2.18-.54 1.02-1.45 1.76-3.01 2.29a3.84 3.84 0 00-.74-1.03c2.85-.88 3.17-2.5 3.3-5.36h1.27c-.05 1.16-.15 2.16-.39 3.02 1.2.7 2.66 1.63 3.42 2.28l-.85.99zm-4.43-5.19c-.12.94-.5 1.96-1.13 2.54l-.99-.47c.54-.49.9-1.41 1.06-2.28l1.06.21zm2.73 8.08c.43-.64.95-1.7 1.22-2.43l1.27.42c-.49.84-1.04 1.79-1.49 2.39l-1-.38zm2.34-7.95c-.45.8-.96 1.66-1.36 2.22l-.96-.38c.39-.61.85-1.58 1.08-2.25l1.24.41zm6.92.53c-.04.31-.1.74-.17 1.27 1.03 0 1.96-.07 2.7-.18l-.04 1.31c-.86.08-1.66.14-2.8.14h-.03c-.1.73-.2 1.52-.28 2.25h.19c.91 0 1.91-.04 2.85-.17l-.04 1.31c-.85.08-1.7.14-2.6.14h-.53c-.04.49-.07.92-.07 1.21 0 1.27.74 2.01 2.23 2.01 2.03 0 3.26-.91 3.26-2.22 0-.95-.5-1.93-1.48-2.79l1.54-.32c.93 1.1 1.39 2.08 1.39 3.28 0 2.09-1.86 3.46-4.75 3.46-2.02 0-3.56-.88-3.56-3.2 0-.36.04-.89.1-1.52-1.02-.08-1.99-.25-2.78-.47l.07-1.34c.9.32 1.91.47 2.85.56.1-.74.2-1.52.29-2.26-1-.08-2.05-.27-2.89-.49l.07-1.28c.85.28 1.93.45 2.96.53.07-.5.11-.95.14-1.31.04-.56.04-.82.01-1.1l1.56.08c-.1.43-.15.77-.21 1.1zm12.08 4.79c0-3.31 1.82-5.29 4.45-5.29s4.47 1.98 4.47 5.29-1.84 5.36-4.47 5.36-4.45-2.05-4.45-5.36zm7.26 0c0-2.42-1.11-3.88-2.81-3.88s-2.8 1.47-2.8 3.88 1.1 3.95 2.8 3.95 2.81-1.55 2.81-3.95zm3.79-5.11h1.61v4.87h.04l3.9-4.87h1.79l-3.17 3.98 3.7 6.31h-1.79l-2.89-5.04-1.57 1.94v3.1h-1.61V60.66zm9.19 9.35c0-.67.46-1.14 1.06-1.14s1.08.47 1.08 1.14-.47 1.12-1.08 1.12-1.06-.46-1.06-1.12zm.31-7.93l-.04-1.66h1.62l-.06 1.66-.22 5.58h-1.07l-.22-5.58z"/><path stroke="#000" stroke-width=".5" fill="none" stroke-miterlimit="10" d="M32.41 37.03h198.15"/><path class="cls-3" d="M249.23 54.15v-26.5l10.13 13.25-10.13 13.25z"/></g></svg>