<svg id="_レイヤー_2" xmlns="http://www.w3.org/2000/svg" viewBox="0 0 273.5 57.5"><defs><style>.cls-3,.cls-4{stroke-width:0}.cls-4{fill:#7f84c2}</style></defs><g id="_レイヤー_1-2"><rect x="3.5" y="3.5" width="270" height="54" rx="22.91" ry="22.91" fill="#fadc6e" stroke-width="0"/><rect x=".5" y=".5" width="270" height="54" rx="22.91" ry="22.91" fill="none" stroke-miterlimit="10" stroke="#231815"/><path class="cls-3" d="M21.5 11.41c0 .22-.02.5-.04.83.63-.07 1.28-.2 1.77-.34l.02.88c-.52.12-1.19.23-1.81.3 0 .36-.02.72-.02 1.04v.31c.66-.19 1.32-.29 1.87-.29 1.34 0 2.35.72 2.35 1.87 0 1.07-.62 1.82-1.94 2.13-.4.09-.81.12-1.14.14l-.32-.92c.36 0 .75 0 1.08-.06.76-.14 1.41-.54 1.41-1.3 0-.69-.62-1.08-1.44-1.08-.63 0-1.25.11-1.85.3 0 .75.04 1.5.04 1.86 0 .95-.35 1.23-.88 1.23-.78 0-1.98-.72-1.98-1.58 0-.77.93-1.57 1.99-2.03v-1.56c-.23.02-.42.03-.59.03-.55 0-.89-.02-1.19-.04l-.03-.86c.51.06.86.07 1.2.07.19 0 .4 0 .62-.03v-.89c0-.19-.03-.55-.05-.71h.99c-.03.17-.05.48-.07.69zm-1.15 5.95c.18 0 .31-.12.31-.41s-.02-.81-.03-1.4c-.66.32-1.13.78-1.13 1.14s.54.67.85.67zm6.04-4.35l-.44.72c-.43-.4-1.51-1.04-2.08-1.33l.4-.68c.67.33 1.67.95 2.12 1.3zm.76 4.88c.62-.36 1.03-.99 1.24-1.64l.75.27c-.24.72-.61 1.43-1.29 1.86l-.7-.5zm1.22-4.82c-.19.16-.4.31-.61.45-.14-.2-.41-.48-.59-.61 1.18-.7 1.98-1.69 2.4-2.53l.9.17c-.1.17-.2.34-.31.51h2.21l.14-.03.58.37c-.19.34-.46.74-.74 1.1h1.93v3.25h-3.11c.43.22.86.48 1.1.7l-.56.59c-.31-.32-1.01-.75-1.58-1l.28-.29h-2.2v-.68h5.25v-.63H28.5v-.64h4.96v-.61h-5.08v-.12zm1.31-1.32c-.2.26-.42.51-.67.76h2.38c.18-.22.37-.5.53-.76h-2.24zm2.44 6.09c.34 0 .41-.12.44-.93.17.13.5.24.72.29-.08 1.1-.32 1.36-1.08 1.36h-1.49c-.98 0-1.21-.23-1.21-.97v-1.22h.81v1.21c0 .23.08.26.49.26h1.32zm1.69-1.69c.6.51 1.31 1.26 1.62 1.8l-.76.43c-.28-.52-.95-1.3-1.56-1.84l.69-.4zm5.77-5.3l.96-.12c.05.33.11.68.19 1.02.61-.08 1.13-.2 1.54-.32l.12.82c-.39.1-.87.21-1.44.27.05.19.12.37.17.54.05.15.12.31.19.49.73-.1 1.32-.25 1.76-.38l.14.84c-.42.11-.95.22-1.55.31.17.35.36.68.56.98.11.15.22.29.36.42l-.44.67c-.5-.12-1.4-.22-2.04-.29l.07-.68c.43.04.98.1 1.25.13-.23-.38-.43-.76-.61-1.13-1.1.09-2.57.09-3.93 0l-.05-.85c1.35.14 2.65.14 3.66.06-.04-.13-.1-.27-.14-.41-.08-.23-.15-.44-.22-.63-.86.05-1.94.04-3.07-.06l-.05-.83c1.08.13 2.06.16 2.9.13 0-.03 0-.05-.02-.08-.08-.3-.18-.59-.29-.89zm-1.66 5.73c0 .71.65 1.04 1.96 1.04.85 0 1.55-.07 2.2-.2l-.04.9c-.63.11-1.39.16-2.14.16-1.77 0-2.83-.52-2.84-1.74 0-.54.16-.95.37-1.36l.88.18c-.22.31-.39.61-.39 1.01zm5.47-4.65l-.56.25a8.1 8.1 0 00-.72-1.26l.55-.23c.22.31.54.86.73 1.24zm1-.4l-.55.26c-.23-.45-.47-.85-.76-1.23l.54-.24c.22.3.57.84.77 1.22zm5.24 6.78l-.53-.85c.31-.03.58-.07.8-.13 1.15-.26 2.18-1.11 2.18-2.56 0-1.31-.79-2.34-2.18-2.51-.13.81-.28 1.68-.54 2.53-.54 1.84-1.29 2.85-2.18 2.85s-1.71-.99-1.71-2.49c0-2.02 1.76-3.75 4.02-3.75s3.53 1.51 3.53 3.39-1.21 3.19-3.39 3.5zm-2.42-1.73c.41 0 .83-.59 1.24-1.97.23-.71.39-1.53.5-2.32-1.62.26-2.57 1.67-2.57 2.78 0 1.04.44 1.51.83 1.51zm10.65-3.87c-.03.44-.06.89-.12 1.33h3.51s0 .26-.03.39c-.16 2.5-.35 3.5-.7 3.87-.23.25-.48.32-.85.34-.32.03-.92.02-1.52 0 0-.24-.13-.58-.29-.82.62.05 1.25.06 1.5.06.2 0 .31-.02.43-.12.24-.21.41-1.05.54-2.93h-2.74c-.32 1.56-1.05 3-2.86 3.89a2.47 2.47 0 00-.6-.69c2.45-1.13 2.69-3.32 2.79-5.32h-2.67v-.8h3.54v-1.53h.86v1.53h3.62v.8h-4.42zm7.14-.96c-.15.73-.44 2.6-.44 3.56 0 .32.02.63.07.96.13-.37.32-.82.47-1.15l.45.35c-.24.68-.55 1.6-.65 2.06-.03.13-.04.31-.04.41 0 .09.02.22.03.33l-.8.06c-.19-.64-.35-1.64-.35-2.86 0-1.33.29-3.05.4-3.77.03-.23.06-.51.07-.75l.98.09c-.05.16-.14.53-.18.69zm4.55-.21c0 .23-.02.61-.03 1.03.53-.05 1.04-.12 1.49-.21v.87c-.47.07-.97.13-1.49.17 0 .9.07 1.71.1 2.4.75.3 1.32.76 1.77 1.16l-.49.76c-.42-.4-.84-.74-1.25-1v.04c0 .83-.4 1.54-1.65 1.54s-1.93-.5-1.93-1.37.71-1.44 1.92-1.44c.25 0 .5.02.73.05-.04-.63-.07-1.4-.09-2.11-.25 0-.5.02-.76.02-.52 0-1.02-.03-1.54-.06v-.85c.5.05 1.01.08 1.55.08.25 0 .5 0 .75-.02v-1.06c0-.15-.03-.4-.05-.58h1.02c-.03.18-.05.38-.05.56zm-1.66 5.93c.67 0 .87-.34.87-.91v-.24c-.27-.08-.55-.13-.84-.13-.6 0-1.03.26-1.03.65 0 .42.41.63.99.63zM21.5 23.51c0 .22-.02.5-.04.83.63-.07 1.28-.2 1.77-.34l.02.88c-.52.12-1.19.23-1.81.3 0 .36-.02.72-.02 1.04v.31c.66-.19 1.32-.29 1.87-.29 1.34 0 2.35.72 2.35 1.87 0 1.07-.62 1.82-1.94 2.13-.4.09-.81.12-1.14.13l-.32-.92c.36 0 .75 0 1.08-.06.76-.14 1.41-.54 1.41-1.3 0-.69-.62-1.08-1.44-1.08-.63 0-1.25.11-1.85.3 0 .75.04 1.5.04 1.86 0 .95-.35 1.23-.88 1.23-.78 0-1.98-.72-1.98-1.58 0-.76.93-1.57 1.99-2.03v-1.56c-.23.02-.42.03-.59.03-.55 0-.89-.02-1.19-.04l-.03-.86c.51.06.86.07 1.2.07.19 0 .4 0 .62-.03v-.89c0-.19-.03-.55-.05-.71h.99c-.03.17-.05.48-.07.69zm-1.15 5.95c.18 0 .31-.12.31-.41s-.02-.81-.03-1.4c-.66.32-1.13.78-1.13 1.14s.54.67.85.67zm6.04-4.35l-.44.72c-.43-.4-1.51-1.04-2.08-1.33l.4-.68c.67.33 1.67.95 2.12 1.3zm4.46-.57h-2.66v1.19h-.75v-1.77h3.4v-.46h-2.85v-.64h6.55v.64h-2.89v.46h3.47v1.77h-.77v-1.19h-2.69v1.97h-.81v-1.97zm3.29 5.53c.45 0 .54-.15.59-.99.17.13.49.24.71.27-.11 1.09-.35 1.37-1.26 1.37h-1.97c-1.11 0-1.41-.21-1.41-1.02v-.17h-1.76v.43h-.8v-3.18h6.1v2.75H31.6v.17c0 .32.11.37.67.37h1.87zm-5.71-4.23h2.02v.49h-2.02v-.49zm2.01-.9v.49h-1.83v-.49h1.83zm-1.4 2.43v.53h1.76v-.53h-1.76zm1.76 1.56v-.51h-1.76v.51h1.76zm2.72-1.56H31.6v.53h1.92v-.53zm0 1.56v-.51H31.6v.51h1.92zm.4-3.99v.49h-1.85v-.49h1.85zm-1.85.9h2.07v.49h-2.07v-.49zm4.07-1.81h3.36v.67h-3.36v-.67zm3.09 6.35h-1.97v.39h-.72v-3.02h2.69v2.64zm-.03-4.46h-2.64v-.65h2.64v.65zm-2.64.58h2.64v.65h-2.64v-.65zm2.63-3.03h-2.57v-.66h2.57v.66zm-1.93 4.95v1.3h1.25v-1.3h-1.25zm5.17-2.53v1.37h1.62v3.47h-.83v-.4h-2.37v.44h-.8v-3.52h1.52v-1.37h-2.02v-.79h2.02v-1.27c-.54.06-1.08.13-1.59.16-.03-.21-.14-.52-.24-.71 1.35-.12 2.92-.35 3.84-.64l.58.68c-.5.14-1.1.27-1.73.38v1.4h2.03v.79h-2.03zm.79 2.12h-2.37v1.57h2.37v-1.57zm3.07-4.02c.66-.06 2.26-.22 3.92-.36.96-.08 1.86-.13 2.48-.15v.91c-.5 0-1.29 0-1.76.13-1.2.36-1.99 1.65-1.99 2.71 0 1.64 1.53 2.19 3.02 2.25l-.32.96c-1.76-.09-3.61-1.04-3.61-3.02 0-1.36.8-2.45 1.53-2.93-.91.09-3.01.31-4.02.52l-.09-.98c.34 0 .66-.03.84-.04zm5.84 2.64l-.56.25c-.22-.46-.45-.87-.72-1.26l.54-.23c.22.32.55.86.74 1.24zm1.03-.41l-.55.26a7.6 7.6 0 00-.76-1.24l.54-.24c.22.31.57.85.77 1.22z"/><path class="cls-4" d="M78.74 18.34c0-2.63.36-4.13 1.25-5.25 1.01-1.3 2.34-1.85 4.45-1.85 2.26 0 3.69.65 4.68 2.16.7 1.07 1.01 2.55 1.01 4.94v4.89c0 2.63-.36 4.13-1.25 5.25-1.01 1.3-2.34 1.85-4.45 1.85-2.26 0-3.69-.65-4.68-2.16-.7-1.07-1.01-2.52-1.01-4.94v-4.89zm8.04.31c0-3.46-.6-4.65-2.34-4.65s-2.34 1.22-2.34 4.65v4.26c0 3.43.6 4.65 2.34 4.65s2.34-1.2 2.34-4.65v-4.26zm6-.31c0-2.63.36-4.13 1.25-5.25 1.01-1.3 2.34-1.85 4.45-1.85 2.26 0 3.69.65 4.68 2.16.7 1.07 1.01 2.55 1.01 4.94v4.89c0 2.63-.36 4.13-1.25 5.25-1.01 1.3-2.34 1.85-4.45 1.85-2.26 0-3.69-.65-4.68-2.16-.7-1.07-1.01-2.52-1.01-4.94v-4.89zm8.04.31c0-3.46-.6-4.65-2.34-4.65s-2.34 1.22-2.34 4.65v4.26c0 3.43.6 4.65 2.34 4.65s2.34-1.2 2.34-4.65v-4.26zm6-.31c0-2.63.36-4.13 1.25-5.25 1.01-1.3 2.34-1.85 4.45-1.85 2.26 0 3.69.65 4.68 2.16.7 1.07 1.01 2.55 1.01 4.94v4.89c0 2.63-.36 4.13-1.25 5.25-1.01 1.3-2.34 1.85-4.45 1.85-2.26 0-3.69-.65-4.68-2.16-.7-1.07-1.01-2.52-1.01-4.94v-4.89zm8.04.31c0-3.46-.6-4.65-2.34-4.65s-2.34 1.22-2.34 4.65v4.26c0 3.43.6 4.65 2.34 4.65s2.34-1.2 2.34-4.65v-4.26zm6.7.75h8.06v2.78h-8.06V19.4zM133 18.34c0-2.63.36-4.13 1.25-5.25 1.01-1.3 2.34-1.85 4.45-1.85 2.26 0 3.69.65 4.68 2.16.7 1.07 1.01 2.55 1.01 4.94v4.89c0 2.63-.36 4.13-1.25 5.25-1.01 1.3-2.34 1.85-4.45 1.85-2.26 0-3.69-.65-4.68-2.16-.7-1.07-1.01-2.52-1.01-4.94v-4.89zm8.04.31c0-3.46-.6-4.65-2.34-4.65s-2.34 1.22-2.34 4.65v4.26c0 3.43.6 4.65 2.34 4.65s2.34-1.2 2.34-4.65v-4.26zm6-.31c0-2.63.36-4.13 1.25-5.25 1.01-1.3 2.34-1.85 4.45-1.85 2.26 0 3.69.65 4.68 2.16.7 1.07 1.01 2.55 1.01 4.94v4.89c0 2.63-.36 4.13-1.25 5.25-1.01 1.3-2.34 1.85-4.45 1.85-2.26 0-3.69-.65-4.68-2.16-.7-1.07-1.01-2.52-1.01-4.94v-4.89zm8.04.31c0-3.46-.6-4.65-2.34-4.65s-2.34 1.22-2.34 4.65v4.26c0 3.43.6 4.65 2.34 4.65s2.34-1.2 2.34-4.65v-4.26zm6-.31c0-2.63.36-4.13 1.25-5.25 1.01-1.3 2.34-1.85 4.45-1.85 2.26 0 3.69.65 4.68 2.16.7 1.07 1.01 2.55 1.01 4.94v4.89c0 2.63-.36 4.13-1.25 5.25-1.01 1.3-2.34 1.85-4.45 1.85-2.26 0-3.69-.65-4.68-2.16-.7-1.07-1.01-2.52-1.01-4.94v-4.89zm8.04.31c0-3.46-.6-4.65-2.34-4.65s-2.34 1.22-2.34 4.65v4.26c0 3.43.6 4.65 2.34 4.65s2.34-1.2 2.34-4.65v-4.26zm6.71.75h8.06v2.78h-8.06V19.4zm11.43-1.06c0-2.63.36-4.13 1.25-5.25 1.01-1.3 2.34-1.85 4.45-1.85 2.26 0 3.69.65 4.68 2.16.7 1.07 1.01 2.55 1.01 4.94v4.89c0 2.63-.36 4.13-1.25 5.25-1.01 1.3-2.34 1.85-4.45 1.85-2.26 0-3.69-.65-4.68-2.16-.7-1.07-1.01-2.52-1.01-4.94v-4.89zm8.04.31c0-3.46-.6-4.65-2.34-4.65s-2.34 1.22-2.34 4.65v4.26c0 3.43.6 4.65 2.34 4.65s2.34-1.2 2.34-4.65v-4.26zm6-.31c0-2.63.36-4.13 1.25-5.25 1.01-1.3 2.34-1.85 4.45-1.85 2.26 0 3.69.65 4.68 2.16.7 1.07 1.01 2.55 1.01 4.94v4.89c0 2.63-.36 4.13-1.25 5.25-1.01 1.3-2.34 1.85-4.45 1.85-2.26 0-3.69-.65-4.68-2.16-.7-1.07-1.01-2.52-1.01-4.94v-4.89zm8.04.31c0-3.46-.6-4.65-2.34-4.65s-2.34 1.22-2.34 4.65v4.26c0 3.43.6 4.65 2.34 4.65s2.34-1.2 2.34-4.65v-4.26zm6-.31c0-2.63.36-4.13 1.25-5.25 1.01-1.3 2.34-1.85 4.45-1.85 2.26 0 3.69.65 4.68 2.16.7 1.07 1.01 2.55 1.01 4.94v4.89c0 2.63-.36 4.13-1.25 5.25-1.01 1.3-2.34 1.85-4.45 1.85-2.26 0-3.69-.65-4.68-2.16-.7-1.07-1.01-2.52-1.01-4.94v-4.89zm8.04.31c0-3.46-.6-4.65-2.34-4.65s-2.34 1.22-2.34 4.65v4.26c0 3.43.6 4.65 2.34 4.65s2.34-1.2 2.34-4.65v-4.26zm6-.31c0-2.63.36-4.13 1.25-5.25 1.01-1.3 2.34-1.85 4.45-1.85 2.26 0 3.69.65 4.68 2.16.7 1.07 1.01 2.55 1.01 4.94v4.89c0 2.63-.36 4.13-1.25 5.25-1.01 1.3-2.34 1.85-4.45 1.85-2.26 0-3.69-.65-4.68-2.16-.7-1.07-1.01-2.52-1.01-4.94v-4.89zm8.04.31c0-3.46-.6-4.65-2.34-4.65s-2.34 1.22-2.34 4.65v4.26c0 3.43.6 4.65 2.34 4.65s2.34-1.2 2.34-4.65v-4.26z"/><path stroke="#000" stroke-width=".75" fill="none" stroke-miterlimit="10" d="M13.57 35.23h226.18"/><path class="cls-3" d="M39.15 44.21c-.43.92-1.11 1.63-1.92 2.19.92.37 1.98.62 3.17.75-.18.19-.4.55-.51.79-1.33-.19-2.51-.53-3.51-1.04-1.05.52-2.28.85-3.56 1.05-.08-.22-.31-.58-.49-.76 1.19-.14 2.29-.4 3.23-.79a6.024 6.024 0 01-1.64-1.66l.16-.07h-.39v-.77h4.73l.15-.03.57.34zm-5.83-.05h-.78V42.3h1.36c-.11-.32-.31-.75-.51-1.07l.73-.21c.24.34.48.82.58 1.12l-.49.15h1.94c-.04-.33-.22-.86-.4-1.27l.75-.16c.2.4.4.91.45 1.24l-.76.19h1.79c.26-.42.55-1.01.72-1.45l.87.23c-.23.41-.5.86-.75 1.22h1.41v1.86h-.82v-1.12h-6.09v1.12zm6.49-3.79c-1.89.38-4.66.59-7 .67 0-.21-.1-.53-.18-.71 2.31-.09 5.03-.32 6.6-.65l.58.68zm-4.99 4.3c.4.52.93.96 1.58 1.32.61-.35 1.12-.78 1.49-1.32h-3.07zm9.45-4.62c-.25.64-.56 1.3-.91 1.9v6.03h-.85v-4.73c-.25.34-.52.66-.79.93-.09-.2-.34-.65-.5-.86.89-.86 1.73-2.18 2.22-3.54l.83.26zm5.2 2.48H48.4v4.39c0 .58-.15.82-.53.95-.38.14-1.01.15-1.99.14-.04-.23-.2-.61-.32-.84.73.04 1.48.03 1.69.02.21 0 .29-.07.29-.27v-4.39h-3.52v-.84h3.52v-1.86h.86v1.86h1.07v.84zm-3.72 3.37c-.24-.56-.8-1.5-1.23-2.21l.73-.34c.43.68 1.02 1.58 1.29 2.12l-.78.42zm7.46.35h-1.87v.76h-.77V40.3h2.65v5.95zm-1.87-5.19v1.81h1.08v-1.81h-1.08zm1.08 4.44v-1.9h-1.08v1.9h1.08zm5.06-2.29v.9h.96v.74h-.96v2.21c0 .43-.1.66-.4.78-.31.13-.77.13-1.48.13-.04-.23-.15-.55-.27-.78.5.02 1 .02 1.13.02.14 0 .19-.04.19-.17v-2.2h-3.28v-.74h3.28v-.9h-3.3v-.74h2.14v-.99h-1.8v-.73h1.8v-1.03h.84v1.03h1.85v.73h-1.85v.99h2.19v.74h-1.04zm-2.95 1.86c.43.45.93 1.06 1.13 1.49l-.71.43c-.19-.43-.66-1.07-1.09-1.54l.68-.39zm5.99-1.85v4.77h-.83v-7.9h3.32v3.13h-2.49zm0-2.5v.62h1.7v-.62h-1.7zm1.7 1.88v-.67h-1.7v.67h1.7zm4.9 4.35c0 .48-.1.75-.42.89-.31.13-.81.14-1.57.14-.04-.22-.15-.58-.26-.82h-2.43v.45h-.77v-3.77h3.38v3.29c.44.02.87 0 1.02 0 .16 0 .21-.05.21-.21v-3.7h-2.56v-3.15h3.4v6.86zm-4.68-2.47v.7h1.83v-.7h-1.83zm1.83 2.06v-.75h-1.83v.75h1.83zm.25-5.82v.62h1.76v-.62h-1.76zm1.76 1.9v-.68h-1.76v.68h1.76zm5.34-.87c0-.44.34-.76.76-.76s.76.32.76.76-.34.75-.76.75-.76-.31-.76-.75zm0 4.37c0-.45.34-.76.76-.76s.76.31.76.76-.34.74-.76.74-.76-.31-.76-.74zm13.79-1.18H81.8V48h-.86v-3.06h-3.56v-.85h3.56v-2.95h-3.1v-.82h7.06v.82h-3.1v2.95h3.61v.85zm-6.23-3.43c.33.62.68 1.42.79 1.94l-.8.27c-.12-.51-.42-1.35-.75-1.98l.76-.23zm3.49 1.99c.31-.54.68-1.4.88-2.03l.89.24c-.32.7-.72 1.51-1.05 2.02l-.72-.23zm10.73-3.19v7.55h-.89v-.55h-4.24v.58h-.85V40.3h5.99zm-5.13.84v2.2h4.24v-2.2h-4.24zm4.24 5.32v-2.29h-4.24v2.29h4.24zm5.39-.04h1.45V42h-1.19v-.66c.62-.11 1.06-.27 1.44-.5h.78v5.59h1.3v.86H97.9v-.86zm4.78-2.39c0-2.17.83-3.32 2.14-3.32s2.14 1.16 2.14 3.32-.82 3.37-2.14 3.37-2.14-1.2-2.14-3.37zm3.3 0c0-1.85-.48-2.5-1.15-2.5s-1.15.65-1.15 2.5.48 2.55 1.15 2.55 1.15-.69 1.15-2.55zm6.99 2.21h-1.87v.76h-.77V40.3h2.65v5.95zm-1.87-5.19v1.81h1.08v-1.81h-1.08zm1.08 4.44v-1.9h-1.08v1.9h1.08zm5.06-2.29v.9h.96v.74h-.96v2.21c0 .43-.1.66-.4.78-.31.13-.77.13-1.48.13-.04-.23-.15-.55-.27-.78.5.02 1 .02 1.13.02.14 0 .19-.04.19-.17v-2.2h-3.28v-.74h3.28v-.9h-3.3v-.74h2.14v-.99h-1.8v-.73h1.8v-1.03h.84v1.03h1.85v.73h-1.85v.99h2.19v.74h-1.04zm-2.95 1.86c.43.45.93 1.06 1.13 1.49l-.71.43c-.19-.43-.66-1.07-1.09-1.54l.68-.39zm7.08-1.59c-.66 0-1.22.46-1.58 1.14l-.79-.43c.58-1.06 1.43-1.61 2.39-1.61.84 0 1.45.33 2.08.97.44.44.8.7 1.44.7s1.22-.46 1.58-1.14l.79.43c-.58 1.06-1.43 1.61-2.39 1.61-.84 0-1.45-.33-2.08-.97-.44-.44-.8-.7-1.44-.7zm7.04 2.95h1.45V42h-1.19v-.66c.62-.11 1.06-.27 1.44-.5h.78v5.59h1.3v.86h-3.78v-.86zm4.77-.79c0-.82.58-1.37 1.19-1.69v-.04c-.5-.35-.89-.83-.89-1.5 0-1.03.81-1.69 1.89-1.69 1.15 0 1.87.71 1.87 1.73 0 .67-.47 1.22-.87 1.51V44c.58.34 1.12.8 1.12 1.67 0 .98-.86 1.74-2.14 1.74s-2.16-.74-2.16-1.76zm3.32 0c0-.77-.73-1.03-1.63-1.4-.45.32-.77.76-.77 1.3 0 .66.55 1.12 1.26 1.12s1.14-.4 1.14-1.02zm-.13-3.14c0-.59-.37-1.04-1.02-1.04-.54 0-.95.36-.95.95 0 .69.63 1 1.37 1.29.39-.36.59-.76.59-1.19zm7.11 3.75h-1.87v.76h-.77V40.3h2.65v5.95zm-1.88-5.19v1.81h1.08v-1.81h-1.08zm1.09 4.44v-1.9h-1.08v1.9h1.08zm5.06-2.29v.9h.96v.74h-.96v2.21c0 .43-.1.66-.4.78-.31.13-.77.13-1.48.13-.04-.23-.15-.55-.27-.78.5.02 1 .02 1.13.02.14 0 .19-.04.19-.17v-2.2h-3.28v-.74h3.28v-.9h-3.3v-.74h2.14v-.99h-1.8v-.73h1.8v-1.03h.84v1.03h1.85v.73h-1.85v.99h2.19v.74h-1.04zm-2.95 1.86c.43.45.93 1.06 1.12 1.49l-.71.43c-.19-.43-.66-1.07-1.09-1.54l.67-.39zm12.26-5.51l.68.32c-.98 1.03-1.66 2.32-1.66 3.98s.67 2.95 1.66 3.98l-.68.32c-1.03-1.04-1.78-2.48-1.78-4.3s.76-3.27 1.78-4.3zm6.01 7.41c.4.05.82.08 1.27.08.39 0 1.9 0 2.41-.02-.13.2-.28.6-.32.85h-2.14c-1.76 0-3.06-.3-3.88-1.71-.3.76-.71 1.4-1.27 1.87-.13-.15-.49-.44-.69-.58.99-.74 1.45-2 1.64-3.57l.86.08c-.05.41-.13.81-.22 1.18.32.84.82 1.31 1.47 1.58v-3.49h-2.08v-.8h5.07v.8h-2.12v1.32h2.57v.78h-2.57v1.62zm-3.36-4.2h-.82V40.7h3.29v-.96h.89v.96h3.33v2.07h-.86v-1.28h-5.84v1.28zm10.83-2.72c-.26.65-.58 1.3-.95 1.91v6.01h-.83v-4.82c-.29.38-.6.72-.92 1.02-.09-.21-.34-.67-.5-.86.95-.84 1.84-2.15 2.37-3.52l.83.26zm3.11 2.72c.54 1.35 1.4 2.7 2.3 3.44-.21.16-.49.45-.63.67-.8-.76-1.54-1.98-2.1-3.29v4.39h-.83v-4.17c-.58 1.25-1.33 2.38-2.15 3.12-.13-.21-.43-.5-.62-.67.95-.74 1.85-2.12 2.39-3.5h-2.03v-.82h2.4v-2.09h.83v2.09h2.48v.82h-2.04zm10.02-2.46v7.55h-.89v-.55h-4.24v.58h-.86V40.3h5.99zm-5.13.84v2.2h4.24v-2.2h-4.24zm4.24 5.32v-2.29h-4.24v2.29h4.24zm7.23-6.38h.72l-2.5 8.81h-.72l2.5-8.81zm6.87 2.05c-.43 2.39-1.47 4.11-2.76 5.02-.14-.19-.48-.53-.68-.66 1.12-.72 1.99-2.01 2.41-3.69h-2.16v-.85h2.47l.16-.04.57.21zm4.7-.44c-.71.77-1.65 1.68-2.4 2.26.67 1.15 1.56 2.08 2.71 2.59-.21.17-.5.52-.65.77-1.44-.76-2.43-2.12-3.11-3.79v3.32c0 .55-.14.81-.46.96-.34.14-.88.17-1.71.17-.04-.25-.2-.67-.32-.93.61.03 1.19.03 1.36.02.18 0 .25-.06.25-.22v-7.12h.88v1.6c.18.67.41 1.32.69 1.94.69-.61 1.49-1.45 1.99-2.12l.77.55zm9.21 5.98h-4.06v.27h-.76v-3.06c-.16.18-.34.34-.51.48a3.24 3.24 0 00-.22-.28v1.21h-1.65v.76h-.73V40.3h2.38v4.29c.51-.49.97-1.14 1.23-1.74h-.92v-.58h1.58v-.54h-1.42v-.55h1.42v-.52h-1.57v-.59h2.29v2.78h-.8l.27.08c-.09.19-.2.39-.31.58h1.12c.1-.22.19-.46.25-.67h-.21v-.58h1.61v-.54h-1.49v-.55h1.49v-.52h-1.59v-.59h2.33v2.78h-1.63l.35.07c-.11.21-.22.41-.32.59h1.66v.64h-1.87v.58h1.67v.56h-1.67v.58h1.67v.56h-1.67v.62h2.1v.64zm-7.2-6.66v1.85h.91v-1.85h-.91zm.91 4.54V43.6h-.91v1.96h.91zm3.46-1.42h-1.23v.58h1.23v-.58zm0 1.14h-1.23v.58h1.23v-.58zm-1.23 1.76h1.23v-.62h-1.23v.62zm11.95-6.73v7.55h-.89v-.55h-4.24v.58h-.86V40.3h5.99zm-5.13.84v2.2h4.24v-2.2h-4.24zm4.24 5.32v-2.29h-4.24v2.29h4.24zm3.46 1.7l-.68-.32c.98-1.03 1.66-2.32 1.66-3.98s-.67-2.95-1.66-3.98l.68-.32c1.03 1.04 1.78 2.48 1.78 4.3s-.76 3.27-1.78 4.3z"/><path class="cls-4" d="M252.78 36.49V19.41l6.52 8.54-6.52 8.54z"/></g></svg>