<svg id="_レイヤー_2" xmlns="http://www.w3.org/2000/svg" viewBox="0 0 221 67"><defs><style>.cls-3{fill:#fff;stroke-width:0}</style></defs><g id="_文字"><rect x=".5" y=".5" width="220" height="66" rx="30" ry="30" fill="none" stroke-miterlimit="10" stroke="#231815"/><path class="cls-3" d="M32.41 14.08c-.45.49-.92.92-1.37 1.3-.31-.31-.97-.83-1.39-1.1 1.53-1.06 2.95-2.77 3.78-4.5l1.64.47a12.5 12.5 0 01-.86 1.51h11.07v1.48h-1.76v2.7h2.43v1.51h-2.43v2.7h2.18v1.51H30.23v-1.51h2.18v-2.7h-2.45v-1.51h2.45v-1.85zM29.8 25.65c.88-.74 1.69-2.11 2.12-3.4l1.62.4c-.45 1.35-1.22 2.77-2.16 3.67l-1.58-.67zm4.12-9.72h1.67v-2.7h-1.67v2.7zm0 4.21h1.67v-2.7h-1.67v2.7zm2.7 2.47c.23 1.06.43 2.45.45 3.28l-1.64.23c0-.85-.14-2.27-.36-3.35l1.55-.16zm2.12-6.68v-2.7h-1.75v2.7h1.75zM37 17.44v2.7h1.75v-2.7H37zm3.24 5.1c.47 1.03.94 2.41 1.1 3.28l-1.66.32c-.14-.86-.56-2.27-1.01-3.35l1.57-.25zm1.71-9.31h-1.78v2.7h1.78v-2.7zm0 4.21h-1.78v2.7h1.78v-2.7zm1.89 4.74c.86 1.08 1.91 2.58 2.38 3.55l-1.69.59c-.43-.95-1.4-2.5-2.27-3.64l1.58-.5zm8.31-4.66c.54.58 2.27 2.77 2.65 3.31l-1.06 1.31c-.31-.65-.99-1.78-1.58-2.74v6.88h-1.57v-6.9c-.61 1.8-1.44 3.64-2.29 4.77-.14-.49-.54-1.22-.81-1.67.97-1.19 2-3.33 2.59-5.17h-2.29v-1.57h2.79V9.85h1.57v5.89h2.81v1.57h-2.81v.2zm-3.4-2.26c-.07-1.1-.45-2.79-.9-4.07l1.21-.31c.49 1.26.86 2.92.99 4.02l-1.3.36zm6.34-4.12c-.45 1.4-1.01 3.08-1.46 4.12l-1.08-.34c.4-1.1.86-2.88 1.1-4.11l1.44.32zm6.98 10.19v4.97H60.5v-4.68l-5.33.97-.27-1.55 5.6-1.01V9.78h1.57v9.96l2-.34.23 1.53-2.23.4zm-3.87-2.59c-.63-.67-1.91-1.6-2.97-2.18l.79-1.21c1.04.56 2.38 1.4 3.01 2.03l-.83 1.35zm.72-4.36c-.56-.7-1.78-1.67-2.81-2.32l.85-1.13c1.01.61 2.25 1.51 2.84 2.18l-.88 1.28zm17.44-.99c1.49 1.51 3.75 2.83 5.91 3.49-.36.32-.85.94-1.08 1.35-2.41-.88-4.86-2.61-6.48-4.59v3.35h-1.66v-3.38c-1.6 2.04-4.05 3.78-6.43 4.72-.22-.38-.68-.99-1.04-1.3 2.11-.7 4.3-2.09 5.78-3.64h-5.35v-1.46h7.04V9.77h1.66v2.16h7.17v1.46h-5.51zm2.63 11.06h2.97v1.51H65.92v-1.51h3.01V17.5H79v6.95zm-8.44-5.55v1.01h6.73V18.9h-6.73zm6.73 2.23h-6.73v1.04h6.73v-1.04zm-6.73 3.32h6.73v-1.06h-6.73v1.06zm22.23-.2c.79.11 1.64.16 2.54.16.77 0 3.8 0 4.83-.04-.27.4-.56 1.21-.63 1.69h-4.29c-3.53 0-6.12-.59-7.76-3.42-.59 1.53-1.42 2.79-2.54 3.75-.27-.31-.97-.88-1.39-1.15 1.98-1.48 2.9-4 3.28-7.15l1.73.16c-.11.83-.25 1.62-.43 2.36.63 1.67 1.64 2.63 2.93 3.17v-6.99h-4.16v-1.6h10.14v1.6h-4.25v2.65h5.15v1.57h-5.15v3.24zm-6.72-8.39h-1.64v-4.14h6.59V9.79h1.78v1.93h6.66v4.14h-1.71V13.3H86.05v2.56zm30.27-1.91c-.4 1.84-1.22 4.7-2.68 6.61-1.64 2.14-3.89 3.85-7.17 4.88l-1.55-1.69c3.53-.86 5.56-2.39 7.04-4.29 1.24-1.57 2.02-3.87 2.25-5.53h-8.84c-.77 0-1.49.04-1.94.07v-2.02c.5.07 1.35.14 1.94.14h8.73c.31 0 .76-.02 1.15-.13l1.39.9c-.14.29-.23.68-.32 1.04zm14.43 1.17c0 .34.02.79.02 1.31h2.39c.41 0 1.04-.05 1.31-.11v1.76c-.36-.02-.88-.04-1.26-.04h-2.41c.05 2.21.11 4.93.13 6.7 0 .85-.63 1.39-1.53 1.39-.79 0-1.93-.05-2.68-.11l-.11-1.64c.72.11 1.64.18 2.14.18.32 0 .47-.2.47-.56 0-1.03-.02-2.72-.04-4.41-1.24 1.67-3.78 3.85-6.09 5.08l-1.24-1.42c2.63-1.22 5.28-3.44 6.52-5.2h-4.41c-.49 0-1.03.02-1.5.05v-1.78c.41.07 1.01.11 1.46.11h5.2c-.02-.52-.04-.95-.05-1.31-.02-.38-.05-.9-.13-1.33h1.87c-.07.4-.07.9-.07 1.33zm10.6 1.84h9.79c.86 0 1.57-.07 2.02-.11v2.23c-.4-.02-1.22-.09-2.02-.09h-9.79c-.99 0-2.07.04-2.68.09v-2.23c.59.04 1.71.11 2.68.11zm22.54-3.75c-.54 1.71-2.18 6.81-3.08 9.18 2.45-.22 5.49-.56 7.42-.81-.68-1.37-1.42-2.68-2.05-3.51l1.75-.76c1.26 1.89 3.19 5.47 3.96 7.4l-1.91.86c-.23-.63-.56-1.42-.94-2.25-2.86.34-8.62.97-10.96 1.19-.45.05-1.04.14-1.58.22l-.32-2.09c.56 0 1.26 0 1.8-.04.22-.02.47-.02.74-.04 1.01-2.58 2.72-7.96 3.22-9.78.25-.86.32-1.35.4-1.87l2.25.47c-.2.49-.42 1.03-.68 1.82z"/><path stroke="#000" stroke-width=".5" fill="none" stroke-miterlimit="10" d="M26.02 30.7h157.79"/><path class="cls-3" d="M29.52 39.72c.9-.55 1.8-.99 2.37-1.3.36-.21.64-.37.89-.58l.55 1.01c-.29.18-.59.33-.95.52-.73.36-1.87.9-2.92 1.58-.97.64-1.58 1.32-1.58 2.12 0 .87.83 1.38 2.46 1.38 1.17 0 2.64-.17 3.55-.39v1.24c-.89.15-2.11.28-3.51.28-2.12 0-3.69-.62-3.69-2.38 0-1.17.75-2.07 1.87-2.87-.51-.92-1.07-2.16-1.57-3.33l1.09-.46c.43 1.19.97 2.31 1.43 3.18zm4.85-1.79l-.72.32c-.22-.45-.58-1.11-.88-1.54l.71-.3c.28.41.67 1.09.88 1.52zm1.28-.48l-.72.32c-.23-.47-.59-1.11-.9-1.52l.72-.3c.29.41.7 1.1.9 1.5zm6.06-.04c-.51.77-1.42 2.41-1.97 3.43.47-.36.99-.53 1.46-.53.78 0 1.29.5 1.33 1.39.02.57 0 1.43.04 1.94.03.51.39.7.8.7 1.11 0 1.78-1.39 2.08-2.65l.92.76c-.57 1.83-1.54 3.07-3.18 3.07-1.2 0-1.66-.74-1.69-1.45-.04-.63-.03-1.5-.07-2.04-.02-.43-.28-.69-.73-.69-.83 0-1.56.84-1.98 1.72-.31.65-.75 1.91-.9 2.48l-1.21-.41c.81-2.22 3.16-6.72 3.74-7.78.14-.28.31-.58.46-.97l1.23.5c-.1.14-.22.34-.35.54zm9.84.47c.56-.09 1.11-.21 1.62-.37l.03 1.01c-.55.15-1.23.3-1.97.4-.54 1.55-1.5 3.46-2.39 4.68l-1.06-.54c.9-1.08 1.81-2.77 2.31-4.02-.27.01-.54.02-.8.02-.42 0-.88-.01-1.32-.03l-.08-1.02a14.56 14.56 0 002.53.03c.17-.62.3-1.3.32-1.88l1.21.12c-.09.38-.24 1-.41 1.62zm2.99 3.08c.01.36.04 1 .08 1.63.95.34 1.72.89 2.28 1.39l-.58.94c-.43-.4-.99-.87-1.65-1.23V44c0 .94-.56 1.69-2.01 1.69-1.28 0-2.31-.55-2.31-1.69 0-1.03.94-1.76 2.3-1.76.33 0 .64.03.93.08-.03-.87-.09-1.9-.11-2.63h1.08c-.02.46-.01.85 0 1.29zm-2.03 3.71c.84 0 1.11-.46 1.11-1.06 0-.1 0-.23-.01-.37-.32-.09-.66-.14-1.02-.14-.73 0-1.22.33-1.22.78s.4.79 1.14.79zm1.53-6.12l.56-.85c.79.35 2.09 1.08 2.64 1.47l-.63.91c-.61-.51-1.83-1.2-2.58-1.54zm8.5 3.01c-.43.14-.86.27-1.29.41v3.94h-.95v-3.64l-1.73.53-.26-.98c.55-.14 1.24-.33 1.99-.54v-2.31h-.88c-.13.58-.29 1.11-.45 1.53-.17-.13-.54-.35-.75-.46.38-.89.58-2.28.69-3.59l.87.14c-.06.47-.11.95-.18 1.41h.69v-2.18h.95V38h1.02v.97h-1.02v2.02l1.16-.33.13.9zm5.83-3.97s0 .35-.01.48c-.24 4.94-.45 6.68-.88 7.22-.23.33-.45.43-.8.48-.3.05-.76.04-1.24.02-.01-.3-.12-.71-.29-1 .46.04.87.04 1.08.04.18 0 .29-.04.4-.2.32-.36.55-1.92.75-6.11h-.31c-.56 2.84-1.74 5.73-3.52 7.16-.2-.19-.56-.45-.85-.61 1.77-1.26 2.93-3.89 3.48-6.56h-.74c-.48 1.85-1.44 3.86-2.61 4.9-.19-.19-.52-.44-.79-.58 1.13-.88 2.04-2.62 2.54-4.31h-.78c-.34.79-.74 1.49-1.19 2.02-.17-.14-.57-.45-.79-.58.89-.97 1.52-2.53 1.88-4.16l.92.18c-.12.55-.29 1.09-.45 1.6h4.2zm4.34-1.44c-.29.8-.66 1.61-1.08 2.38v7.37h-.97v-5.83c-.28.38-.57.76-.86 1.07-.1-.24-.38-.79-.56-1.03 1-1.03 1.94-2.63 2.51-4.24l.96.29zm6.68 6.03h-2.92v3.73h-1.02v-3.73H72.4v-1h3.05V39h-1.56c-.22.59-.46 1.13-.74 1.55-.2-.14-.64-.38-.88-.5.62-.88 1.07-2.29 1.31-3.66l.99.2c-.1.47-.22.95-.35 1.41h1.23v-2.05h1.02V38h2.42v1h-2.42v2.18h2.92v1zm2.36-4.56c.8-.08 2.76-.26 4.79-.44 1.18-.1 2.28-.17 3.04-.19v1.11c-.62 0-1.57.01-2.14.15-1.46.44-2.43 2.01-2.43 3.31 0 2 1.87 2.67 3.69 2.75l-.4 1.18c-2.16-.11-4.41-1.27-4.41-3.69 0-1.66.98-2.99 1.87-3.58-1.11.11-3.67.37-4.91.64l-.11-1.2c.42-.01.8-.03 1.02-.05zm7.14 3.23l-.68.31c-.26-.56-.55-1.07-.88-1.54l.66-.29c.26.38.67 1.06.9 1.52zm1.25-.5l-.67.32c-.29-.56-.57-1.04-.92-1.52l.66-.3c.26.37.69 1.03.93 1.5zm5.59-3.16c-.03.24-.08.58-.13 1 .81 0 1.55-.06 2.13-.14l-.03 1.03c-.68.07-1.31.11-2.21.11h-.02c-.08.57-.15 1.2-.22 1.77h.15c.71 0 1.51-.03 2.25-.13l-.03 1.03c-.67.07-1.34.11-2.06.11h-.42c-.03.38-.06.73-.06.96 0 1 .58 1.58 1.76 1.58 1.61 0 2.57-.71 2.57-1.75 0-.75-.4-1.52-1.17-2.2l1.22-.25c.74.87 1.1 1.64 1.1 2.58 0 1.65-1.47 2.73-3.75 2.73-1.59 0-2.82-.69-2.82-2.52 0-.29.03-.7.08-1.2-.8-.07-1.57-.2-2.2-.37l.05-1.06c.71.25 1.51.37 2.26.44.08-.58.15-1.2.23-1.78-.79-.07-1.62-.21-2.29-.38l.05-1.01c.67.22 1.53.35 2.34.42.05-.4.09-.75.11-1.03.03-.44.03-.65.01-.87l1.23.07c-.08.34-.12.61-.17.87zm10.89 7.37c-.9.56-2.31 1.09-3.42 1.39-.18-.2-.54-.58-.77-.76 1.16-.22 2.49-.63 3.26-1.04l.94.42zm5.08-8.26v2.53h-8.53V36.3h8.53zm-.62 3.08v4.74h-7.28v-4.74h7.28zm-6.95-1.33h1.56v-.97h-1.56v.97zm.69 2.71h5.2v-.69h-5.2v.69zm0 1.33h5.2v-.68h-5.2v.68zm0 1.36h5.2v-.71h-5.2v.71zm1.75-5.4h1.61v-.97h-1.61v.97zm2.42 6.11c1.22.38 2.6.88 3.42 1.24l-1.09.53c-.7-.35-1.93-.85-3.14-1.23l.8-.54zm.06-6.11h1.66v-.97h-1.66v.97zm6.37.43c-.01.69 0 1.62.08 2.48.17 1.73.62 2.89 1.35 2.89.55 0 1.03-1.2 1.29-2.2l.87 1.02c-.69 1.88-1.38 2.53-2.18 2.53-1.11 0-2.13-1.06-2.43-3.95-.11-.97-.12-2.29-.12-2.95 0-.27-.02-.74-.09-1.03l1.34.02c-.05.32-.11.89-.11 1.19zm7.71 4.67l-1.13.44c-.19-1.89-.81-4.33-1.93-5.66l1.09-.36c1.01 1.28 1.83 3.8 1.97 5.58zm11.04-5.74c-.25 2.37-.84 4.21-1.68 5.63.57.81 1.28 1.47 2.13 1.92-.23.2-.56.58-.7.84a6.9 6.9 0 01-2.07-1.85c-.59.76-1.31 1.35-2.1 1.83a3.96 3.96 0 00-.64-.79v.9h-.99v-1.88c-1.33.22-2.68.44-3.71.61l-.19-1.02c.31-.03.65-.09 1.03-.13v-6.04h-.8v-.95h5.39v.79h3.49l.18-.03.66.18zm-7.93.01v1.28h1.88v-1.28h-1.88zm0 3.54h1.88v-1.34h-1.88v1.34zm1.88 2.11v-1.19h-1.88v1.45l1.88-.26zm.99 1.87c.81-.43 1.53-1.08 2.13-1.91-.71-1.26-1.21-2.79-1.56-4.52l.99-.2c.25 1.36.64 2.63 1.19 3.72.55-1.04.96-2.31 1.19-3.75h-3.49v-.85h-.45v7.51zm9.14-5.92c.48-1 1.54-2.18 2.87-2.18 1.5 0 2.61 1.47 2.61 3.84 0 3.07-1.91 4.48-4.72 4.99l-.66-1c2.41-.37 4.21-1.27 4.21-3.99 0-1.72-.58-2.84-1.63-2.84-1.34 0-2.56 1.98-2.66 3.43-.03.36-.03.74.04 1.26l-1.08.08c-.06-.42-.12-1.06-.12-1.78 0-1.03.18-2.54.32-3.54.06-.37.08-.74.09-1.05l1.2.06c-.19.69-.41 2.02-.47 2.72zM152.26 37c-.01.13-.01.34-.02.58.95-.04 1.91-.14 2.89-.31v1.01c-.81.1-1.84.2-2.9.24v1.36c1.09-.04 2.06-.14 3.01-.27v1.02c-1.02.12-1.94.2-2.99.24.02.51.06 1.03.08 1.53 1.43.4 2.52 1.17 3.16 1.68l-.64.98c-.63-.57-1.46-1.2-2.46-1.61.01.23.02.42.02.57 0 .84-.61 1.59-2.05 1.59-1.65 0-2.54-.62-2.54-1.72s.98-1.77 2.62-1.77c.29 0 .55.02.81.04-.01-.43-.03-.88-.04-1.29h-.61c-.7 0-1.92-.05-2.68-.14V39.7c.74.12 2.04.2 2.71.2h.56v-1.35h-.45c-.73 0-2.05-.11-2.76-.2v-1c.73.13 2.05.24 2.75.24h.47v-.67c0-.19-.01-.52-.06-.69h1.18c-.02.2-.04.44-.05.75zm-2.05 7.65c.62 0 1.09-.19 1.09-.89 0-.15 0-.37-.01-.62-.32-.07-.66-.1-1-.1-.94 0-1.44.36-1.44.8 0 .47.42.8 1.36.8zm13.65-7.58c-.01.13-.01.33-.01.55h3.3l-.02 1.03c-.65-.03-1.69-.06-3.29-.06.01.59.01 1.23.01 1.73.25.4.38.9.38 1.46 0 1.46-.78 3.19-3.39 3.95l-.93-.92c1.3-.29 2.31-.77 2.84-1.62-.22.11-.48.17-.77.17-.89 0-1.85-.66-1.85-1.91 0-1.16.94-1.98 2.05-1.98.22 0 .43.02.62.08 0-.29-.01-.62-.01-.93-1.67.02-3.48.09-4.84.18l-.03-1.06c1.24-.02 3.29-.08 4.86-.1-.01-.24-.01-.43-.02-.56-.03-.35-.07-.69-.09-.8h1.27c-.03.14-.07.65-.07.8zm-1.69 5.34c.57 0 1-.45.86-1.49a.923.923 0 00-.86-.53c-.51 0-1 .37-1 1.03 0 .6.47.98 1 .98zm9.52 1.9c0-.53.36-.9.84-.9s.86.37.86.9-.37.88-.86.88-.84-.36-.84-.88zm.24-6.25l-.03-1.31h1.28l-.04 1.31-.18 4.4h-.85l-.18-4.4zM28.65 50.62c.47 0 2.65-.1 3.3-.18.31-.03.53-.08.67-.12l.69.8c-.19.11-.52.34-.7.5-.8.65-2.18 1.8-3 2.45 1.58-.17 3.5-.31 4.97-.31v1.03c-1.06-.05-2.13-.05-2.81.03-1.03.15-2 .98-2 1.95s.8 1.36 1.8 1.5c.63.08 1.21.06 1.62.02l-.23 1.14c-2.74.11-4.28-.73-4.28-2.49 0-.83.57-1.57 1.07-1.93-1.1.09-2.46.25-3.7.46l-.1-1.04c.59-.05 1.35-.15 1.91-.22 1.1-.75 2.72-2.16 3.4-2.76-.47.03-2.15.11-2.61.14-.29.02-.63.07-.91.09l-.06-1.12c.31.03.61.04.96.04zm13.18 8.68l-.65-1.03c.37-.03.7-.09.98-.15 1.41-.32 2.66-1.35 2.66-3.12 0-1.6-.97-2.86-2.66-3.07-.15.99-.34 2.06-.66 3.09-.66 2.25-1.57 3.49-2.66 3.49s-2.09-1.21-2.09-3.05c0-2.46 2.16-4.58 4.92-4.58s4.31 1.85 4.31 4.15-1.47 3.89-4.15 4.28zm-2.96-2.11c.5 0 1.01-.71 1.52-2.41.28-.87.47-1.87.61-2.84-1.98.32-3.14 2.04-3.14 3.4 0 1.27.54 1.85 1.01 1.85zm11.81-7.2c-.29.76-.66 1.54-1.07 2.28v7.47h-1v-5.9c-.3.41-.6.78-.91 1.11-.1-.24-.4-.78-.56-1.02 1.03-1.02 2.01-2.63 2.61-4.24l.93.3zm5.01 8.69c.65 0 .77-.3.87-1.56.23.16.65.35.92.41-.15 1.56-.46 2.07-1.73 2.07h-2.66c-1.43 0-1.84-.35-1.84-1.69v-3.3l-.96.38-.41-.91 1.36-.53V50.8h1.01v2.35l1.38-.53v-2.94h.97v2.56l1.42-.55.15-.12.18-.14.7.29-.04.15c-.01 1.96-.03 3.42-.12 3.88-.07.52-.29.76-.63.87-.32.11-.81.12-1.16.11-.02-.27-.12-.7-.24-.93.27.01.63.01.77.01.17 0 .26-.04.33-.29.05-.26.08-1.2.09-2.79l-1.45.56v3.96h-.97v-3.58l-1.38.53v3.71c0 .64.13.77.89.77h2.53zm5.46-4.93c.38.4 1.36 1.55 1.58 1.84l-.62.82c-.19-.36-.59-.97-.97-1.5v4.82h-.98v-4.85c-.4 1.13-.9 2.21-1.43 2.89-.11-.29-.35-.7-.51-.93.74-.9 1.45-2.52 1.8-3.93h-1.55v-.97h1.68v-2.3h.98v2.3h1.47v.97h-1.47v.84zm6.92-3.48v9.34h-1.02v-.59h-2.99v.65h-.98v-9.4h5zm-4.01.96v1.62h2.99v-1.62h-2.99zm0 4.23h2.99v-1.67h-2.99v1.67zm2.99 2.62V56.4h-2.99v1.68h2.99zm6.39-5.8h-4.1v-.81h4.1v.81zm-.36 6.86h-2.37v.46h-.88v-3.7h3.25v3.23zm-.01-5.39h-3.22v-.79h3.22v.79zm-3.23.67h3.22v.8h-3.22v-.8zm3.2-3.6h-3.16v-.8h3.16v.8zm-2.33 5.91v1.58h1.49v-1.58h-1.49zm6.26-.91c0 .65.41 2.26 2.55 3.07-.18.23-.46.63-.59.87-1.55-.6-2.3-1.94-2.48-2.6-.19.67-1.01 1.95-2.75 2.6-.12-.23-.38-.63-.58-.83 2.35-.84 2.81-2.45 2.81-3.11v-1.61h1.04v1.61zm-3.67 1.14c.51-.4.84-1.16.99-1.92l.9.19c-.14.83-.51 1.68-1.07 2.19l-.83-.46zm5.44-2.36c-.52-.47-1.49-1.16-2.38-1.72-.43.8-1.14 1.39-2.38 1.8-.11-.24-.37-.62-.58-.81 2.25-.69 2.51-1.97 2.61-4.22h1c-.04.91-.12 1.71-.31 2.38.95.55 2.1 1.29 2.71 1.79l-.67.78zm-3.5-4.09c-.1.74-.4 1.54-.89 2l-.78-.37c.43-.38.71-1.11.84-1.79l.84.17zm2.16 6.37c.34-.51.75-1.34.97-1.92l1 .33c-.38.66-.83 1.41-1.18 1.88l-.79-.3zm1.85-6.27c-.35.63-.76 1.31-1.08 1.75l-.76-.3c.31-.48.67-1.24.86-1.77l.98.32zm5.48.41c-.03.24-.08.58-.13 1 .81 0 1.55-.06 2.13-.14l-.03 1.03c-.68.07-1.31.11-2.21.11h-.02c-.08.57-.15 1.2-.22 1.77h.15c.71 0 1.51-.03 2.25-.13l-.03 1.03c-.67.07-1.34.11-2.06.11h-.42c-.03.38-.06.73-.06.96 0 1 .58 1.58 1.76 1.58 1.61 0 2.57-.71 2.57-1.75 0-.75-.4-1.52-1.17-2.2l1.22-.25c.74.87 1.1 1.64 1.1 2.58 0 1.65-1.47 2.73-3.75 2.73-1.59 0-2.82-.69-2.82-2.52 0-.29.03-.7.08-1.2-.8-.07-1.57-.2-2.2-.37l.05-1.06c.71.25 1.51.37 2.26.44.08-.58.15-1.2.23-1.78-.79-.07-1.62-.21-2.29-.38l.05-1.01c.67.22 1.53.35 2.34.42.05-.4.09-.75.11-1.03.03-.44.03-.65.01-.87l1.23.07c-.08.34-.12.61-.17.87zm9.54 3.78c0-2.61 1.44-4.17 3.52-4.17s3.53 1.56 3.53 4.17-1.45 4.22-3.53 4.22-3.52-1.62-3.52-4.22zm5.75 0c0-1.9-.88-3.06-2.22-3.06s-2.21 1.16-2.21 3.06.87 3.11 2.21 3.11 2.22-1.22 2.22-3.11zm2.99-4.03h1.28v3.84h.03l3.08-3.84h1.42l-2.51 3.14 2.93 4.97h-1.42l-2.29-3.97-1.24 1.53v2.44h-1.28v-8.11zm7.27 7.37c0-.53.36-.9.84-.9s.86.37.86.9-.37.88-.86.88-.84-.36-.84-.88zm.24-6.25l-.03-1.31h1.28l-.04 1.31-.18 4.4h-.85l-.18-4.4zm88.15-7.53V23.2l8.07 10.58-8.07 10.58z"/></g></svg>