<svg id="_レイヤー_2" xmlns="http://www.w3.org/2000/svg" viewBox="0 0 336 67"><defs><style>.cls-3,.cls-4{stroke-width:0}.cls-4{fill:#7f84c2}</style></defs><g id="_文字"><rect x=".5" y=".5" width="335" height="66" rx="30" ry="30" fill="none" stroke-miterlimit="10" stroke="#231815"/><path class="cls-3" d="M26.78 12.99c-.01.26-.02.62-.04 1.01.77-.09 1.56-.24 2.17-.42l.02 1.08c-.64.14-1.45.28-2.21.36-.01.44-.02.88-.02 1.28v.38c.8-.23 1.62-.35 2.29-.35 1.64 0 2.87.88 2.87 2.29 0 1.31-.76 2.22-2.38 2.61-.5.11-.99.14-1.4.17l-.4-1.12c.44.01.91.01 1.32-.08.92-.18 1.73-.66 1.73-1.58 0-.85-.76-1.32-1.76-1.32-.77 0-1.53.13-2.26.36.01.91.04 1.84.04 2.28 0 1.17-.43 1.51-1.08 1.51-.96 0-2.42-.88-2.42-1.94 0-.94 1.13-1.91 2.43-2.48v-.68c0-.39 0-.8.01-1.22-.28.02-.52.03-.73.03-.67 0-1.09-.02-1.45-.05l-.03-1.06a10.712 10.712 0 002.22.06c0-.5.01-.89.01-1.09 0-.23-.03-.67-.07-.87h1.21c-.03.21-.07.58-.09.85zm-1.4 7.27c.22 0 .37-.14.37-.51s-.02-.99-.03-1.71c-.8.4-1.38.96-1.38 1.4s.66.81 1.03.81zm7.38-5.32l-.54.88c-.53-.48-1.85-1.27-2.54-1.63l.48-.84c.81.41 2.05 1.16 2.6 1.58zm.93 5.97c.76-.44 1.25-1.21 1.52-2l.91.33c-.3.88-.75 1.75-1.57 2.28l-.86-.6zm1.49-5.9c-.23.2-.48.38-.75.55-.17-.24-.5-.58-.73-.75 1.44-.86 2.42-2.07 2.94-3.09l1.1.21c-.12.21-.24.42-.37.63h2.71l.17-.03.7.45c-.23.42-.56.9-.9 1.34h2.35v3.97h-3.81c.53.26 1.04.58 1.34.86l-.68.72c-.38-.4-1.23-.91-1.94-1.22l.34-.35h-2.68v-.84h6.41v-.77h-6.06v-.78h6.06v-.75h-6.21v-.14zm1.59-1.62c-.24.32-.52.63-.81.92h2.9c.22-.28.45-.61.65-.92h-2.74zm2.99 7.45c.42 0 .49-.14.54-1.13.21.15.62.3.88.35-.1 1.34-.4 1.66-1.32 1.66h-1.83c-1.2 0-1.47-.28-1.47-1.19v-1.49h.99v1.47c0 .27.1.32.59.32h1.62zm2.06-2.07c.74.63 1.6 1.54 1.98 2.2l-.92.53c-.34-.64-1.17-1.58-1.9-2.24l.85-.48zm7.05-6.46l1.18-.14c.06.41.13.84.23 1.24.75-.1 1.39-.24 1.88-.4l.14 1c-.47.12-1.07.25-1.76.33.07.23.14.45.21.66.07.19.14.39.23.59.89-.12 1.62-.31 2.15-.46l.18 1.02c-.52.13-1.17.28-1.89.37.21.43.44.84.68 1.2.13.19.26.35.44.52l-.54.81c-.62-.14-1.72-.26-2.5-.35l.09-.84c.53.05 1.2.12 1.53.17-.29-.46-.53-.92-.75-1.39-1.34.11-3.14.11-4.81 0l-.07-1.03c1.65.17 3.23.17 4.47.08-.05-.17-.12-.33-.18-.5-.1-.29-.19-.54-.26-.77-1.06.07-2.37.04-3.75-.08l-.07-1.01c1.32.15 2.52.2 3.54.15 0-.03-.01-.07-.02-.1-.1-.36-.22-.73-.35-1.09zm-2.02 6.99c0 .87.79 1.28 2.4 1.28 1.03 0 1.89-.09 2.68-.24l-.06 1.1c-.77.13-1.69.2-2.62.2-2.17 0-3.45-.64-3.47-2.12-.01-.66.2-1.16.45-1.66l1.08.22c-.26.37-.47.75-.47 1.23zm6.69-5.67l-.68.31c-.26-.56-.54-1.07-.88-1.54l.67-.29c.26.37.66 1.05.89 1.52zm1.22-.5l-.67.32c-.29-.55-.57-1.03-.92-1.51l.66-.3c.28.36.69 1.02.94 1.49zm6.4 8.28l-.65-1.03c.37-.03.7-.09.98-.15 1.41-.32 2.66-1.35 2.66-3.12 0-1.6-.97-2.86-2.66-3.07-.15.99-.34 2.06-.66 3.09-.66 2.24-1.57 3.49-2.66 3.49s-2.09-1.21-2.09-3.05c0-2.46 2.16-4.58 4.92-4.58s4.31 1.85 4.31 4.15-1.47 3.89-4.15 4.28zM58.2 19.3c.5 0 1.01-.71 1.52-2.41.28-.87.47-1.87.61-2.84-1.98.32-3.14 2.04-3.14 3.4 0 1.27.54 1.85 1.01 1.85zm13.02-4.73c-.03.54-.08 1.09-.14 1.63h4.29s-.01.32-.03.47c-.2 3.06-.43 4.28-.86 4.73-.29.31-.58.38-1.03.42-.4.03-1.12.02-1.86-.01-.01-.3-.15-.72-.35-1 .76.07 1.53.08 1.84.08.24 0 .38-.02.53-.14.3-.25.51-1.29.66-3.58h-3.34c-.4 1.9-1.29 3.66-3.5 4.75-.15-.27-.46-.65-.74-.85 2.99-1.38 3.29-4.06 3.41-6.5h-3.26v-.98h4.32v-1.87h1.04v1.87h4.42v.98h-5.4zm8.73-1.16c-.19.89-.54 3.18-.54 4.36 0 .4.02.77.09 1.18.15-.45.4-1 .57-1.41l.55.43c-.3.84-.67 1.96-.79 2.52-.03.15-.05.37-.05.51.01.11.02.27.03.41l-.98.08c-.23-.78-.43-2-.43-3.5 0-1.63.35-3.73.48-4.61.03-.28.08-.63.09-.91l1.2.11c-.07.2-.18.65-.22.85zm5.55-.27c-.01.28-.02.75-.03 1.25.65-.06 1.26-.14 1.83-.25v1.07c-.57.09-1.19.17-1.83.21.01 1.1.09 2.09.12 2.94.91.36 1.62.92 2.17 1.42l-.59.92c-.52-.48-1.02-.9-1.53-1.22v.06c0 1.01-.48 1.88-2.01 1.88s-2.35-.62-2.35-1.67.87-1.76 2.34-1.76c.31 0 .6.02.89.07-.04-.77-.09-1.72-.11-2.57-.31.01-.62.02-.92.02-.64 0-1.24-.03-1.88-.08V14.4c.62.07 1.23.1 1.89.1.31 0 .6-.01.91-.02v-1.3c0-.19-.03-.5-.07-.7h1.24c-.03.22-.05.46-.07.68zm-2.02 7.25c.81 0 1.07-.42 1.07-1.11v-.3c-.33-.1-.67-.15-1.02-.15-.74 0-1.25.32-1.25.79 0 .52.51.77 1.21.77zm-56.7 7.58c-.01.26-.02.62-.04 1.01.77-.09 1.56-.24 2.17-.42l.02 1.08c-.64.14-1.45.28-2.21.36-.01.44-.02.88-.02 1.28v.38c.8-.23 1.62-.35 2.29-.35 1.64 0 2.87.88 2.87 2.29 0 1.31-.76 2.22-2.38 2.61-.5.11-.99.14-1.4.17l-.4-1.12c.44.01.91.01 1.32-.08.92-.18 1.73-.66 1.73-1.58 0-.85-.76-1.32-1.76-1.32-.77 0-1.53.13-2.26.36.01.91.04 1.84.04 2.28 0 1.17-.43 1.51-1.08 1.51-.96 0-2.42-.88-2.42-1.94 0-.94 1.13-1.91 2.43-2.48v-.68c0-.39 0-.8.01-1.22-.28.02-.52.03-.73.03-.67 0-1.09-.02-1.45-.05l-.03-1.06a10.712 10.712 0 002.22.06c0-.49.01-.89.01-1.09 0-.23-.03-.67-.07-.87h1.21c-.03.21-.07.58-.09.85zm-1.4 7.27c.22 0 .37-.14.37-.51s-.02-.99-.03-1.71c-.8.4-1.38.96-1.38 1.4s.66.81 1.03.81zm7.38-5.32l-.54.88c-.53-.48-1.85-1.27-2.54-1.63l.48-.84c.81.41 2.05 1.16 2.6 1.58zm5.44-.69h-3.25v1.45h-.91v-2.16h4.16v-.56h-3.49v-.78h8.01v.78h-3.53v.56h4.24v2.16h-.95v-1.45h-3.29v2.41h-.99v-2.41zm4.03 6.75c.55 0 .66-.19.73-1.21.21.15.59.3.87.33-.13 1.33-.43 1.67-1.54 1.67h-2.41c-1.35 0-1.73-.25-1.73-1.24v-.21h-2.16v.53h-.98v-3.88h7.46v3.36h-3.34v.21c0 .38.13.45.81.45h2.29zm-6.98-5.16h2.46v.59h-2.46v-.59zm2.46-1.1v.59h-2.23v-.59h2.23zm-1.72 2.96v.65h2.16v-.65h-2.16zm2.16 1.91v-.63h-2.16v.63h2.16zm3.32-1.91h-2.34v.65h2.34v-.65zm0 1.91v-.63h-2.34v.63h2.34zm.48-4.87v.59H39.7v-.59h2.25zm-2.25 1.1h2.53v.59H39.7v-.59zm4.97-2.22h4.1v.81h-4.1v-.81zm3.78 7.77h-2.41v.47h-.88v-3.7h3.29v3.22zm-.04-5.45h-3.22v-.79h3.22v.79zm-3.22.7h3.22v.79h-3.22v-.79zm3.21-3.7h-3.15v-.8h3.15v.8zm-2.36 6.05v1.58h1.53v-1.58h-1.53zm6.32-3.09v1.67h1.98v4.25h-1.01v-.48h-2.89v.54h-.98v-4.3h1.86v-1.67h-2.46v-.97h2.46v-1.55c-.66.08-1.32.15-1.95.2-.03-.25-.18-.64-.3-.87 1.65-.14 3.56-.43 4.69-.78l.71.84c-.61.18-1.34.33-2.11.46v1.71h2.48v.97h-2.48zm.97 2.59h-2.89v1.92h2.89v-1.92zm3.75-4.92c.8-.08 2.76-.26 4.79-.44 1.18-.1 2.28-.17 3.04-.19v1.11c-.62 0-1.57.01-2.15.15-1.46.44-2.43 2.01-2.43 3.31 0 2 1.87 2.67 3.69 2.75l-.4 1.18c-2.16-.11-4.41-1.27-4.41-3.69 0-1.66.98-2.99 1.87-3.58-1.11.11-3.67.37-4.91.64l-.11-1.2c.42-.01.8-.03 1.02-.05zm7.14 3.23l-.68.31c-.26-.56-.55-1.07-.88-1.54l.66-.29c.26.38.67 1.06.9 1.52zm1.25-.5l-.67.32c-.29-.56-.57-1.04-.92-1.52l.66-.3c.26.37.69 1.03.94 1.5z"/><path class="cls-4" d="M96.42 22c0-3.13.43-4.93 1.49-6.26 1.21-1.55 2.79-2.2 5.3-2.2 2.7 0 4.4.78 5.58 2.57.84 1.27 1.21 3.04 1.21 5.89v5.83c0 3.13-.43 4.93-1.49 6.26-1.21 1.55-2.79 2.2-5.3 2.2-2.7 0-4.4-.78-5.58-2.57-.84-1.27-1.21-3.01-1.21-5.89V22zm9.58.37c0-4.12-.71-5.55-2.79-5.55s-2.79 1.46-2.79 5.55v5.08c0 4.09.71 5.55 2.79 5.55s2.79-1.43 2.79-5.55v-5.08zm7.16-.37c0-3.13.43-4.93 1.49-6.26 1.21-1.55 2.79-2.2 5.3-2.2 2.7 0 4.4.78 5.58 2.57.84 1.27 1.21 3.04 1.21 5.89v5.83c0 3.13-.43 4.93-1.49 6.26-1.21 1.55-2.79 2.2-5.3 2.2-2.7 0-4.4-.78-5.58-2.57-.84-1.27-1.21-3.01-1.21-5.89V22zm9.58.37c0-4.12-.71-5.55-2.79-5.55s-2.79 1.46-2.79 5.55v5.08c0 4.09.71 5.55 2.79 5.55s2.79-1.43 2.79-5.55v-5.08zm7.16-.37c0-3.13.43-4.93 1.49-6.26 1.21-1.55 2.79-2.2 5.3-2.2 2.7 0 4.4.78 5.58 2.57.84 1.27 1.21 3.04 1.21 5.89v5.83c0 3.13-.43 4.93-1.49 6.26-1.21 1.55-2.79 2.2-5.3 2.2-2.7 0-4.4-.78-5.58-2.57-.84-1.27-1.21-3.01-1.21-5.89V22zm9.58.37c0-4.12-.71-5.55-2.79-5.55s-2.79 1.46-2.79 5.55v5.08c0 4.09.71 5.55 2.79 5.55s2.79-1.43 2.79-5.55v-5.08zm8 .9h9.61v3.32h-9.61v-3.32zM161.12 22c0-3.13.43-4.93 1.49-6.26 1.21-1.55 2.79-2.2 5.3-2.2 2.7 0 4.4.78 5.58 2.57.84 1.27 1.21 3.04 1.21 5.89v5.83c0 3.13-.43 4.93-1.49 6.26-1.21 1.55-2.79 2.2-5.3 2.2-2.7 0-4.4-.78-5.58-2.57-.84-1.27-1.21-3.01-1.21-5.89V22zm9.58.37c0-4.12-.71-5.55-2.79-5.55s-2.79 1.46-2.79 5.55v5.08c0 4.09.71 5.55 2.79 5.55s2.79-1.43 2.79-5.55v-5.08zm7.16-.37c0-3.13.43-4.93 1.49-6.26 1.21-1.55 2.79-2.2 5.3-2.2 2.7 0 4.4.78 5.58 2.57.84 1.27 1.21 3.04 1.21 5.89v5.83c0 3.13-.43 4.93-1.49 6.26-1.21 1.55-2.79 2.2-5.3 2.2-2.7 0-4.4-.78-5.58-2.57-.84-1.27-1.21-3.01-1.21-5.89V22zm9.58.37c0-4.12-.71-5.55-2.79-5.55s-2.79 1.46-2.79 5.55v5.08c0 4.09.71 5.55 2.79 5.55s2.79-1.43 2.79-5.55v-5.08zm7.16-.37c0-3.13.43-4.93 1.49-6.26 1.21-1.55 2.79-2.2 5.3-2.2 2.7 0 4.4.78 5.58 2.57.84 1.27 1.21 3.04 1.21 5.89v5.83c0 3.13-.43 4.93-1.49 6.26-1.21 1.55-2.79 2.2-5.3 2.2-2.7 0-4.4-.78-5.58-2.57-.84-1.27-1.21-3.01-1.21-5.89V22zm9.58.37c0-4.12-.71-5.55-2.79-5.55s-2.79 1.46-2.79 5.55v5.08c0 4.09.71 5.55 2.79 5.55s2.79-1.43 2.79-5.55v-5.08zm7.99.9h9.61v3.32h-9.61v-3.32zM225.81 22c0-3.13.43-4.93 1.49-6.26 1.21-1.55 2.79-2.2 5.3-2.2 2.7 0 4.4.78 5.58 2.57.84 1.27 1.21 3.04 1.21 5.89v5.83c0 3.13-.43 4.93-1.49 6.26-1.21 1.55-2.79 2.2-5.3 2.2-2.7 0-4.4-.78-5.58-2.57-.84-1.27-1.21-3.01-1.21-5.89V22zm9.58.37c0-4.12-.71-5.55-2.79-5.55s-2.79 1.46-2.79 5.55v5.08c0 4.09.71 5.55 2.79 5.55s2.79-1.43 2.79-5.55v-5.08zm7.16-.37c0-3.13.43-4.93 1.49-6.26 1.21-1.55 2.79-2.2 5.3-2.2 2.7 0 4.4.78 5.58 2.57.84 1.27 1.21 3.04 1.21 5.89v5.83c0 3.13-.43 4.93-1.49 6.26-1.21 1.55-2.79 2.2-5.3 2.2-2.7 0-4.4-.78-5.58-2.57-.84-1.27-1.21-3.01-1.21-5.89V22zm9.58.37c0-4.12-.71-5.55-2.79-5.55s-2.79 1.46-2.79 5.55v5.08c0 4.09.71 5.55 2.79 5.55s2.79-1.43 2.79-5.55v-5.08zm7.16-.37c0-3.13.43-4.93 1.49-6.26 1.21-1.55 2.79-2.2 5.3-2.2 2.7 0 4.4.78 5.58 2.57.84 1.27 1.21 3.04 1.21 5.89v5.83c0 3.13-.43 4.93-1.49 6.26-1.21 1.55-2.79 2.2-5.3 2.2-2.7 0-4.4-.78-5.58-2.57-.84-1.27-1.21-3.01-1.21-5.89V22zm9.58.37c0-4.12-.71-5.55-2.79-5.55s-2.79 1.46-2.79 5.55v5.08c0 4.09.71 5.55 2.79 5.55s2.79-1.43 2.79-5.55v-5.08zm7.16-.37c0-3.13.43-4.93 1.49-6.26 1.21-1.55 2.79-2.2 5.3-2.2 2.7 0 4.4.78 5.58 2.57.84 1.27 1.21 3.04 1.21 5.89v5.83c0 3.13-.43 4.93-1.49 6.26-1.21 1.55-2.79 2.2-5.3 2.2-2.7 0-4.4-.78-5.58-2.57-.84-1.27-1.21-3.01-1.21-5.89V22zm9.58.37c0-4.12-.71-5.55-2.79-5.55s-2.79 1.46-2.79 5.55v5.08c0 4.09.71 5.55 2.79 5.55s2.79-1.43 2.79-5.55v-5.08z"/><path stroke="#000" stroke-width=".5" fill="none" stroke-miterlimit="10" d="M17.02 42.37h280.06"/><path class="cls-3" d="M46.1 53.55c-.53 1.12-1.35 1.99-2.34 2.67 1.12.45 2.42.76 3.87.91-.22.23-.48.67-.63.97-1.63-.23-3.07-.65-4.29-1.28-1.29.64-2.78 1.03-4.35 1.29-.1-.26-.37-.7-.59-.92 1.45-.18 2.79-.48 3.95-.97-.8-.55-1.47-1.23-2-2.02l.2-.09h-.47v-.95h5.78l.19-.03.69.42zm-7.13-.06h-.96v-2.28h1.66a7.09 7.09 0 00-.63-1.31l.89-.25c.3.42.58 1 .7 1.38l-.59.19h2.38c-.06-.41-.26-1.06-.5-1.55l.91-.2c.24.48.48 1.11.55 1.52l-.92.23h2.19c.32-.52.67-1.23.88-1.77l1.07.29c-.29.5-.61 1.04-.91 1.49h1.73v2.28h-1v-1.38h-7.45v1.38zm7.93-4.64c-2.31.46-5.7.73-8.56.83-.01-.25-.12-.65-.22-.87 2.83-.11 6.15-.38 8.06-.79l.72.84zm-6.09 5.26c.48.64 1.13 1.18 1.92 1.62.75-.43 1.36-.96 1.83-1.62h-3.75zm11.55-5.65c-.31.78-.68 1.58-1.11 2.32v7.37h-1.03v-5.78c-.31.42-.64.8-.97 1.13-.11-.24-.42-.79-.62-1.04 1.09-1.04 2.11-2.66 2.72-4.32l1.01.32zm6.36 3.03h-1.31v5.37c0 .72-.19 1-.65 1.16-.46.17-1.23.19-2.43.18-.05-.29-.24-.75-.4-1.02.89.04 1.8.03 2.07.02.25-.01.35-.09.35-.33V51.5h-4.3v-1.02h4.3V48.2h1.06v2.28h1.31v1.02zm-4.56 4.12c-.3-.68-.98-1.84-1.51-2.7l.89-.42c.53.83 1.24 1.94 1.57 2.6l-.96.52zm9.12.43h-2.29v.92h-.95v-8.2h3.23v7.27zm-2.29-6.35v2.21h1.32v-2.21h-1.32zm1.32 5.43V52.8h-1.32v2.32h1.32zm6.2-2.8v1.1h1.18v.9h-1.18v2.71c0 .53-.12.8-.48.96-.39.15-.95.17-1.8.17-.04-.27-.19-.67-.33-.96.62.02 1.22.02 1.39.02.18-.01.23-.05.23-.21v-2.68h-4v-.9h4v-1.1h-4.04v-.9h2.62v-1.21h-2.2v-.89h2.2v-1.25h1.02v1.25h2.27v.89h-2.27v1.21h2.67v.9h-1.28zM64.9 54.6c.53.55 1.13 1.3 1.38 1.83l-.87.53c-.23-.53-.8-1.31-1.33-1.88l.83-.47zm7.31-2.26v5.83H71.2v-9.66h4.06v3.83h-3.05zm0-3.06v.76h2.08v-.76h-2.08zm2.08 2.3v-.81h-2.08v.81h2.08zm6 5.32c0 .58-.12.91-.52 1.09-.39.17-.99.18-1.92.18-.04-.28-.19-.72-.32-1h-2.97v.55h-.94v-4.61h4.13v4.03c.54.02 1.07.01 1.24.01.2-.01.25-.07.25-.25v-4.52h-3.12v-3.85h4.16v8.38zm-5.72-3.03v.86h2.23v-.86h-2.23zm2.23 2.52v-.91h-2.23v.91h2.23zm.31-7.11v.76h2.15v-.76h-2.15zm2.15 2.32v-.84h-2.15v.84h2.15zm6.53-1.06c0-.54.42-.92.92-.92s.92.39.92.92-.42.91-.92.91-.92-.37-.92-.91zm0 5.33c0-.55.42-.92.92-.92s.92.37.92.92-.42.9-.92.9-.92-.37-.92-.9zm16.85-1.44h-4.41v3.74h-1.06v-3.74h-4.36V53.4h4.36v-3.61h-3.79v-1H102v1h-3.78v3.61h4.41v1.03zm-7.61-4.19c.41.76.83 1.74.97 2.38l-.98.33c-.14-.63-.52-1.65-.91-2.42l.92-.29zm4.26 2.43c.37-.66.84-1.71 1.08-2.48l1.09.3c-.4.86-.88 1.85-1.29 2.46l-.88-.29zm13.12-3.89v9.23h-1.09v-.67h-5.18v.71h-1.04v-9.27h7.32zm-6.27 1.03v2.68h5.18v-2.68h-5.18zm5.18 6.49v-2.79h-5.18v2.79h5.18zm6.59-.04h1.77v-5.41h-1.45v-.8c.76-.13 1.3-.33 1.76-.62h.96v6.83h1.58v1.04h-4.62v-1.04zm5.84-2.93c0-2.65 1.01-4.06 2.62-4.06s2.62 1.42 2.62 4.06-1 4.11-2.62 4.11-2.62-1.46-2.62-4.11zm4.03 0c0-2.27-.58-3.06-1.41-3.06s-1.41.79-1.41 3.06.58 3.11 1.41 3.11 1.41-.85 1.41-3.11zm8.54 2.71h-2.29v.92h-.95v-8.2h3.23v7.27zm-2.29-6.35v2.21h1.32v-2.21h-1.32zm1.32 5.43V52.8h-1.32v2.32h1.32zm6.2-2.8v1.1h1.18v.9h-1.18v2.71c0 .53-.12.8-.48.96-.39.15-.95.17-1.8.17-.04-.27-.19-.67-.33-.96.62.02 1.22.02 1.39.02.18-.01.23-.05.23-.21v-2.68h-4v-.9h4v-1.1h-4.04v-.9h2.62v-1.21h-2.2v-.89h2.2v-1.25h1.02v1.25h2.27v.89h-2.27v1.21h2.67v.9h-1.28zm-3.61 2.28c.53.55 1.13 1.3 1.38 1.83l-.87.53c-.23-.53-.8-1.31-1.33-1.88l.83-.47zm8.66-1.95c-.8 0-1.5.56-1.94 1.4l-.97-.53c.72-1.3 1.75-1.97 2.92-1.97 1.02 0 1.77.41 2.54 1.19.54.54.98.86 1.76.86s1.5-.56 1.94-1.4l.97.53c-.72 1.3-1.75 1.97-2.92 1.97-1.02 0-1.77-.41-2.54-1.19-.54-.54-.98-.86-1.76-.86zm8.6 3.61h1.77v-5.41h-1.45v-.8c.76-.13 1.3-.33 1.76-.62h.96v6.83h1.58v1.04h-4.62v-1.04zm5.83-.97c0-1 .7-1.67 1.45-2.07v-.04c-.61-.43-1.09-1.01-1.09-1.84 0-1.25.99-2.07 2.31-2.07 1.41 0 2.29.87 2.29 2.11 0 .81-.57 1.49-1.07 1.85v.05c.72.42 1.36.98 1.36 2.04 0 1.2-1.06 2.12-2.62 2.12s-2.64-.9-2.64-2.16zm4.06 0c0-.93-.89-1.25-1.99-1.71-.55.39-.95.92-.95 1.58 0 .8.67 1.36 1.54 1.36s1.4-.48 1.4-1.24zm-.17-3.83c0-.73-.45-1.28-1.24-1.28-.66 0-1.15.44-1.15 1.16 0 .85.77 1.22 1.67 1.57.47-.44.73-.92.73-1.45zm8.69 4.58h-2.29v.92h-.95v-8.2h3.23v7.27zm-2.29-6.35v2.21h1.32v-2.21h-1.32zm1.32 5.43V52.8h-1.32v2.32h1.32zm6.2-2.8v1.1h1.18v.9h-1.18v2.71c0 .53-.12.8-.48.96-.39.15-.95.17-1.8.17-.04-.27-.19-.67-.33-.96.62.02 1.22.02 1.39.02.18-.01.23-.05.23-.21v-2.68h-4v-.9h4v-1.1h-4.04v-.9h2.62v-1.21h-2.2v-.89h2.2v-1.25h1.02v1.25h2.27v.89h-2.27v1.21h2.67v.9h-1.28zm-3.61 2.28c.53.55 1.13 1.3 1.38 1.83l-.87.53c-.23-.53-.8-1.31-1.33-1.88l.83-.47zm14.98-6.74l.84.4c-1.2 1.25-2.02 2.84-2.02 4.86s.82 3.61 2.02 4.86l-.84.4c-1.25-1.27-2.18-3.03-2.18-5.26s.92-3.99 2.18-5.26zm7.35 9.06c.48.07 1 .1 1.55.1.47 0 2.32 0 2.95-.02-.17.24-.34.74-.39 1.03h-2.62c-2.16 0-3.74-.36-4.74-2.09-.36.94-.87 1.71-1.55 2.29-.17-.19-.59-.54-.85-.7 1.21-.9 1.77-2.44 2-4.37l1.06.1c-.07.51-.15.99-.26 1.44.39 1.02 1 1.61 1.79 1.94v-4.27h-2.54v-.98h6.19v.98h-2.6v1.62h3.15v.96h-3.15v1.98zm-4.1-5.13h-1v-2.53h4.03v-1.18h1.09v1.18h4.07v2.53h-1.05v-1.56h-7.14v1.56zm13.23-3.33c-.32.79-.71 1.58-1.17 2.33v7.35h-1.01v-5.89c-.35.46-.74.88-1.12 1.24-.11-.25-.42-.81-.6-1.06 1.17-1.02 2.24-2.63 2.89-4.3l1.01.32zm3.8 3.33c.66 1.65 1.72 3.3 2.8 4.2-.25.2-.59.55-.77.83-.98-.92-1.88-2.42-2.56-4.02v5.37h-1.01v-5.09c-.7 1.53-1.63 2.9-2.63 3.81-.17-.25-.53-.62-.76-.81 1.17-.9 2.25-2.58 2.93-4.28h-2.48v-1h2.94v-2.55h1.01v2.55h3.03v1h-2.5zm12.25-3.01v9.23h-1.09v-.67h-5.18v.71h-1.04v-9.27h7.32zm-6.27 1.03v2.68h5.18v-2.68h-5.18zm5.18 6.49v-2.79h-5.18v2.79h5.18zm8.83-7.79h.88l-3.06 10.77h-.88l3.06-10.77zm8.41 2.51c-.53 2.93-1.79 5.03-3.38 6.14-.18-.23-.58-.65-.84-.8 1.36-.88 2.43-2.45 2.95-4.51h-2.64v-1.03h3.01l.2-.04.69.25zm5.74-.54c-.87.95-2.01 2.06-2.94 2.76.81 1.41 1.9 2.54 3.31 3.17-.25.21-.6.64-.79.95-1.76-.92-2.97-2.58-3.81-4.63v4.06c0 .67-.17.99-.56 1.18-.42.18-1.08.21-2.09.21-.04-.31-.24-.81-.4-1.13.75.03 1.45.03 1.66.02.22 0 .31-.08.31-.27v-8.7h1.08v1.96c.22.83.51 1.62.85 2.37.85-.75 1.82-1.77 2.43-2.6l.95.67zm11.25 7.31h-4.96v.33H250v-3.74c-.2.22-.42.42-.63.58-.07-.09-.17-.22-.27-.34v1.47h-2.01v.92h-.89v-8.26h2.91v5.24c.63-.59 1.19-1.4 1.51-2.12h-1.12v-.71h1.92v-.66h-1.74v-.67h1.74v-.64h-1.91v-.71h2.79v3.4h-.98l.33.1c-.11.23-.24.47-.38.71h1.36c.12-.27.23-.56.31-.81h-.25v-.71h1.97v-.66h-1.81v-.67h1.81v-.64h-1.95v-.71h2.85v3.4h-1.99l.43.09c-.13.25-.26.5-.4.73h2.02v.78h-2.29v.7h2.04v.68h-2.04v.71h2.04v.68h-2.04v.76h2.56v.78zm-8.8-8.14v2.26h1.11v-2.26h-1.11zm1.11 5.54v-2.4h-1.11v2.4h1.11zm4.24-1.73h-1.51v.7h1.51v-.7zm0 1.39h-1.51v.71h1.51v-.71zm-1.51 2.16h1.51v-.76h-1.51v.76zm14.61-8.23v9.23h-1.09v-.67h-5.18v.71h-1.04v-9.27h7.32zm-6.27 1.03v2.68h5.18v-2.68h-5.18zm5.18 6.49v-2.79h-5.18v2.79h5.18zm4.22 2.08l-.84-.4c1.2-1.25 2.02-2.84 2.02-4.86s-.83-3.61-2.02-4.86l.84-.4c1.25 1.27 2.18 3.03 2.18 5.26s-.92 3.99-2.18 5.26z"/><path class="cls-4" d="M313.22 43.93V22.78l8.07 10.58-8.07 10.58z"/></g></svg>