<svg xmlns="http://www.w3.org/2000/svg" viewBox="0 0 286.06 39.2"><path d="M12.47 5.65h-.43c-.13-.35-.3-.7-.5-1.02-.25-.4-.55-.76-.9-1.06-.4-.35-.86-.63-1.35-.83-.59-.23-1.22-.35-1.86-.33-.58-.01-1.16.09-1.7.29-.47.18-.89.46-1.24.82-.34.36-.59.78-.75 1.25-.17.52-.26 1.06-.25 1.6 0 .95.28 1.88.79 2.69.57.91 1.24 1.76 1.98 2.53.79.83 1.65 1.67 2.58 2.5.91.82 1.77 1.69 2.58 2.6.77.86 1.43 1.81 1.98 2.82.53.98.8 2.07.79 3.17 0 .87-.15 1.73-.44 2.55-.29.85-.75 1.63-1.36 2.3-.66.71-1.47 1.27-2.36 1.65a8.44 8.44 0 01-3.44.63c-.71 0-1.42-.07-2.12-.21-.63-.13-1.25-.29-1.86-.51-.52-.18-1.03-.4-1.52-.66-.38-.19-.75-.41-1.1-.65l.45-4.32h.48c.14.61.38 1.2.7 1.75.32.55.73 1.04 1.2 1.47.48.43 1.04.77 1.64 1.02.64.26 1.32.39 2.01.38.61.01 1.21-.09 1.79-.3.5-.19.96-.47 1.36-.84.38-.36.67-.8.87-1.28.2-.52.31-1.07.3-1.62 0-.78-.15-1.56-.45-2.28a8.79 8.79 0 00-1.18-1.98c-.51-.65-1.06-1.26-1.66-1.82-.62-.59-1.25-1.18-1.9-1.77s-1.28-1.2-1.9-1.83c-.61-.62-1.17-1.29-1.66-2s-.89-1.48-1.18-2.28C.55 9.22.39 8.31.4 7.39c-.01-.96.19-1.91.6-2.78.38-.8.92-1.53 1.58-2.12.65-.58 1.41-1.04 2.24-1.35C5.64.83 6.52.67 7.4.67c.6 0 1.21.05 1.8.16.5.09.99.22 1.48.37.44.14.82.29 1.14.43l.8.35-.14 3.65zm17.81 22.4c.4 0 .79-.07 1.16-.22.39-.15.77-.35 1.11-.59.37-.26.71-.54 1.03-.85.33-.32.64-.65.93-1.01l.2.1-1.27 3.15c-.16.08-.35.17-.58.28-.26.13-.54.23-.82.31-.37.11-.74.19-1.12.25-.5.08-1.02.11-1.53.11-1.49.09-2.96-.42-4.07-1.42a5.899 5.899 0 01-1.45-4.42V10.71l-3.28.12V9.11c.4.03.88.05 1.44.06.56.01 1.17.02 1.84.02-.01-.92-.04-1.74-.07-2.45-.03-.71-.07-1.33-.12-1.85-.05-.53-.1-.97-.17-1.34-.07-.36-.13-.67-.2-.92v-.08h4.52v.08c-.09.3-.16.61-.22.92-.07.36-.12.81-.17 1.33-.04.52-.08 1.14-.12 1.85-.03.71-.06 1.53-.07 2.47.82-.01 1.62-.03 2.41-.05.79-.02 1.5-.05 2.15-.08.64-.03 1.19-.07 1.64-.1s.75-.06.89-.09l-.35 1.99c-.67-.01-1.36-.03-2.09-.06-.62-.03-1.34-.05-2.15-.06l-2.5-.04v13.44c-.02.66.07 1.33.26 1.96.14.44.37.84.68 1.18.26.28.59.48.96.59.36.1.73.16 1.1.16zm21.03 1.5c-1.38.01-2.76-.22-4.06-.68a9.318 9.318 0 01-3.3-2 9.398 9.398 0 01-2.22-3.27c-.56-1.41-.84-2.92-.81-4.44-.01-1.4.24-2.79.74-4.09.47-1.21 1.16-2.32 2.05-3.27a9.33 9.33 0 013.06-2.17c1.19-.53 2.48-.79 3.78-.78 1.28-.01 2.54.22 3.73.69 1.13.45 2.14 1.14 2.98 2.01.88.94 1.56 2.05 1.99 3.26.51 1.42.78 2.92.79 4.42-1.47-.03-2.94-.05-4.41-.06-1.47-.01-3-.02-4.59-.02-1.13 0-2.24 0-3.31.02-1.07.01-2.04.03-2.9.06.06 1.25.27 2.48.63 3.67.3 1.01.79 1.96 1.43 2.8.59.76 1.34 1.37 2.21 1.79.92.43 1.92.64 2.94.62.72 0 1.44-.08 2.14-.26.64-.16 1.25-.41 1.82-.73.53-.3 1.03-.67 1.47-1.1.42-.41.79-.87 1.09-1.38l.23.12-1.45 3.47c-.8.4-1.65.71-2.52.93-1.15.27-2.33.4-3.51.38zm-2.6-11.91c1.3 0 2.61 0 3.92-.01 1.31 0 2.5-.03 3.56-.07-.1-1.04-.32-2.06-.66-3.05-.29-.83-.71-1.6-1.25-2.29-.49-.61-1.1-1.1-1.8-1.44-.71-.34-1.49-.52-2.28-.51-.72 0-1.44.16-2.08.5-.65.35-1.21.84-1.65 1.44-.5.69-.88 1.47-1.13 2.29-.3 1.01-.47 2.05-.51 3.1.59.03 1.2.04 1.85.04h2.03zm19.53-1.19c0-1.11-.02-2.07-.05-2.9s-.07-1.54-.12-2.14c-.05-.6-.1-1.1-.18-1.5-.06-.34-.13-.68-.22-1.02v-.08h4.51v.08c-.07.22-.13.44-.18.66-.05.25-.1.53-.14.84.81-.46 1.66-.84 2.55-1.12 1-.32 2.05-.47 3.1-.46 1.35-.02 2.7.23 3.96.73a8.76 8.76 0 013.07 2.1c.88.95 1.55 2.08 1.98 3.3.48 1.39.72 2.86.7 4.34 0 1.32-.23 2.63-.69 3.87a9.704 9.704 0 01-2.03 3.28c-.93.98-2.05 1.75-3.29 2.27-1.42.59-2.95.88-4.49.85-.93 0-1.86-.07-2.77-.23-.78-.14-1.55-.35-2.3-.61v2.85c0 1.11.01 2.07.04 2.9s.06 1.54.12 2.14c.05.6.11 1.1.18 1.5.05.34.12.68.21 1.02v.08h-4.51v-.08c.09-.33.17-.67.22-1.02.07-.4.13-.9.18-1.5.05-.6.08-1.31.12-2.14.03-.83.05-1.79.05-2.9V16.44zm8.59-6.17c-.46 0-.91.06-1.36.17-.47.11-.93.27-1.37.47-.46.21-.89.46-1.29.76-.41.3-.78.65-1.1 1.05-.03.49-.05 1.05-.06 1.68-.01.63-.02 1.31-.02 2.05v10.23c.28.21.57.39.88.55.35.18.72.33 1.1.46.45.15.92.25 1.39.32.57.08 1.14.12 1.71.12.95.01 1.88-.17 2.75-.55.81-.35 1.52-.89 2.08-1.58.6-.75 1.04-1.6 1.31-2.52.32-1.09.47-2.22.46-3.36 0-1.32-.11-2.63-.35-3.92-.2-1.1-.58-2.15-1.12-3.12a5.723 5.723 0 00-2-2.06c-.92-.52-1.96-.77-3.01-.74zm35.11-1.43c0-1.11-.01-2.07-.04-2.9-.03-.83-.06-1.54-.12-2.15-.05-.61-.11-1.11-.19-1.51-.06-.34-.13-.68-.22-1.02v-.08c.26.01.53.02.82.02.25.01.52.02.83.02h.95c.64-.01 1.27-.06 1.9-.14 1.03-.1 2.06-.15 3.1-.14 1.1-.01 2.19.14 3.24.46.93.28 1.8.72 2.57 1.32.72.57 1.3 1.29 1.7 2.12.42.89.63 1.87.62 2.86.01.82-.11 1.63-.37 2.41a5.63 5.63 0 01-1.04 1.85c-.46.53-1.01.98-1.62 1.33-.66.37-1.35.65-2.08.85 1.04.15 2.06.44 3.03.85.86.37 1.66.87 2.35 1.49.65.59 1.17 1.3 1.52 2.1.37.84.55 1.75.54 2.67a7.29 7.29 0 01-2.71 6.18c-1.8 1.37-4.51 2.06-8.12 2.06-.39 0-.85-.02-1.37-.05-.52-.03-1.05-.07-1.59-.11-.54-.04-1.07-.07-1.59-.11-.52-.03-.98-.05-1.37-.05h-1.29v-.08c.09-.33.17-.67.22-1.02.07-.4.13-.9.19-1.5.05-.6.09-1.31.12-2.14.03-.83.04-1.79.04-2.9V8.82zm7.17 6.5c-.74 0-1.49.03-2.23.1-.6.07-1.06.13-1.39.2v5.92c0 1.52.03 2.78.08 3.77.05.99.12 1.8.21 2.42.49.07.99.13 1.48.18.49.05.89.08 1.19.08 2.43 0 4.22-.54 5.34-1.63a6.679 6.679 0 001.69-5.01c0-.83-.13-1.65-.4-2.43-.25-.71-.66-1.36-1.19-1.9-.56-.56-1.24-.98-1.99-1.24-.9-.31-1.85-.46-2.8-.45zm-3.61-1.46c.36.04.69.06.98.07.29 0 .59 0 .92.01.82 0 1.64-.12 2.42-.38.7-.24 1.34-.63 1.86-1.14.53-.54.94-1.19 1.2-1.9.3-.86.45-1.76.43-2.67 0-.78-.1-1.55-.31-2.3-.19-.65-.5-1.25-.93-1.77-.41-.49-.93-.87-1.51-1.12-.65-.27-1.35-.4-2.05-.39-.43 0-.87.02-1.3.06-.37.04-.69.08-.95.14-.26.04-.51.11-.76.2v11.2zm28.8 15.08l-6.87-15.04c-.25-.57-.51-1.12-.8-1.65-.29-.53-.56-1-.81-1.42-.25-.42-.48-.77-.67-1.05-.2-.28-.33-.46-.39-.54v-.08h5.12v.08c-.03.09-.05.19-.06.29-.01.13-.02.25-.02.35 0 .45.07.9.19 1.34.18.63.41 1.24.69 1.83l5.39 11.72 4.92-11.56c.21-.48.42-1.01.63-1.58.21-.56.32-1.14.32-1.74 0-.14-.01-.28-.04-.42a.702.702 0 00-.08-.23v-.08h3.52v.08c-.34.41-.64.85-.89 1.32-.42.77-.81 1.56-1.14 2.37l-9.32 22.19a28.9 28.9 0 00-.63 1.58 4.92 4.92 0 00-.32 1.74c0 .14.01.28.04.42.01.08.04.15.08.23v.08h-3.65v-.08c.35-.4.66-.83.91-1.3.43-.76.81-1.53 1.14-2.33l2.75-6.52zm51.83-24.09l7.81 18.97 7.6-18.61c.26-.64.48-1.29.66-1.95.13-.44.2-.9.21-1.37 0-.12 0-.24-.02-.36 0-.1-.03-.19-.06-.28V1.2h3.87v.08c-.34.42-.63.88-.85 1.37-.31.63-.66 1.4-1.06 2.32l-10.43 24.84h-1.48l-7.6-18.44-6.93 18.44h-1.46l-9.57-23.89c-.23-.56-.47-1.1-.71-1.62s-.47-.99-.68-1.41c-.21-.42-.41-.77-.59-1.06-.11-.2-.24-.39-.38-.57v-.08h5.41v.08c-.02.11-.04.22-.04.33v.27c0 .47.05.94.15 1.41.14.62.33 1.22.58 1.8l7.34 18.56 7.01-18.67 1.23-.08zm23.26 14.28c-.01-1.41.27-2.8.82-4.09a9.99 9.99 0 012.26-3.27c.98-.94 2.13-1.67 3.39-2.17 1.34-.53 2.76-.79 4.2-.78 1.42 0 2.82.24 4.15.73 1.26.46 2.41 1.17 3.39 2.08a9.57 9.57 0 012.27 3.28c.57 1.37.85 2.85.83 4.34 0 1.32-.23 2.63-.7 3.87a9.56 9.56 0 01-2.07 3.28c-.95.98-2.09 1.75-3.35 2.27-1.45.59-3 .88-4.56.85-1.41 0-2.8-.24-4.12-.72-1.25-.46-2.4-1.16-3.38-2.07a9.724 9.724 0 01-2.29-3.27c-.58-1.37-.86-2.84-.84-4.32zm11.07 8.97c.88 0 1.75-.18 2.55-.55.78-.37 1.46-.91 2-1.58.59-.75 1.04-1.6 1.31-2.52.33-1.09.49-2.22.47-3.36.01-1.32-.14-2.63-.44-3.92a9.61 9.61 0 00-1.34-3.12 6.413 6.413 0 00-2.24-2.06c-.97-.51-2.05-.77-3.15-.74-.88-.01-1.74.17-2.54.54-.77.36-1.46.89-2 1.55-.6.74-1.05 1.58-1.32 2.49-.33 1.09-.48 2.21-.47 3.35 0 1.32.14 2.64.46 3.93.27 1.12.73 2.19 1.36 3.15.57.86 1.34 1.58 2.24 2.09.95.52 2.03.78 3.11.76zm18.61-11.29c0-1.11-.02-2.07-.05-2.9-.03-.83-.07-1.54-.12-2.14-.05-.6-.1-1.1-.18-1.5-.06-.34-.13-.68-.23-1.02V9.2H253v.08c-.12.36-.21.72-.26 1.09-.08.55-.14 1.1-.17 1.66.48-.4.98-.8 1.5-1.19.51-.38 1.04-.73 1.6-1.03.53-.29 1.09-.54 1.67-.72.55-.18 1.13-.27 1.71-.27.31 0 .61.01.92.05.24.03.47.07.7.14.19.05.38.12.57.2l.49.2-.96 3.73-.33-.08c-.14-.54-.44-1.03-.88-1.38-.51-.37-1.13-.55-1.76-.52-.43 0-.86.08-1.27.22-.47.16-.92.36-1.35.6-.47.27-.93.56-1.37.88-.46.33-.9.68-1.33 1.05-.03.38-.04.79-.04 1.23v6.45c0 1.11.01 2.07.04 2.9.03.83.07 1.54.12 2.14.05.6.11 1.1.18 1.5.05.34.12.68.21 1.02v.07h-4.51v-.08c.09-.33.17-.67.23-1.02.07-.4.13-.9.18-1.5.05-.6.09-1.31.12-2.14.03-.83.05-1.79.05-2.9v-4.73zm19.68-9.2c0-1.11-.02-2.07-.05-2.9-.03-.83-.07-1.54-.12-2.14-.05-.6-.1-1.1-.18-1.5-.06-.34-.13-.68-.23-1.02V0h4.51v.08c-.09.33-.16.67-.21 1.02-.07.4-.13.9-.18 1.5-.05.6-.09 1.31-.12 2.14-.03.83-.04 1.79-.04 2.9v9.73l6.39-5.72c1.12-.98 1.68-1.79 1.68-2.44h4.53v.08c-.33.1-.66.24-.97.4-.32.17-.63.36-.92.58-.31.22-.62.47-.96.75s-.69.6-1.08.95l-5.72 5.22 7.85 9.28a15.561 15.561 0 001.58 1.68c.25.23.52.45.8.64.22.16.46.28.72.35v.08h-5.66c0-.37-.1-.73-.26-1.05-.26-.5-.58-.96-.95-1.39l-7.03-8.36v3.16c0 1.11.01 2.07.04 2.9.03.83.07 1.54.12 2.14.05.6.11 1.1.18 1.5.05.34.12.68.21 1.02v.08h-4.51v-.08c.09-.33.17-.67.23-1.02.07-.4.13-.9.18-1.5.05-.6.09-1.31.12-2.14.03-.83.05-1.79.05-2.9V7.64z" fill="#606060"/></svg>