<svg xmlns="http://www.w3.org/2000/svg" viewBox="0 0 312.35 42.8"><path d="M13.62 6.16h-.47c-.14-.39-.33-.76-.55-1.11-.27-.43-.6-.83-.98-1.16-.44-.38-.93-.69-1.47-.91-.65-.26-1.34-.38-2.03-.37-.63-.01-1.26.1-1.86.32-.51.19-.97.5-1.35.9-.37.39-.65.86-.82 1.36-.19.56-.28 1.15-.28 1.75 0 1.04.3 2.06.86 2.93.62.99 1.35 1.92 2.16 2.76.87.91 1.81 1.82 2.81 2.73.99.89 1.93 1.84 2.81 2.84.84.94 1.57 1.97 2.17 3.08.57 1.06.87 2.26.86 3.47 0 .95-.17 1.89-.48 2.78-.32.93-.82 1.78-1.48 2.51a7.38 7.38 0 01-2.58 1.8c-1.19.49-2.47.72-3.75.69-.78 0-1.55-.07-2.31-.22-.69-.14-1.36-.32-2.03-.55-.57-.2-1.12-.44-1.66-.72-.41-.21-.81-.45-1.2-.7l.49-4.71h.53c.16.67.41 1.31.76 1.91.35.6.79 1.14 1.31 1.6.53.47 1.13.84 1.79 1.11.7.28 1.44.42 2.2.42.66.01 1.33-.1 1.95-.33.55-.2 1.05-.52 1.48-.92.41-.39.74-.87.95-1.4.22-.56.33-1.16.33-1.77 0-.85-.16-1.7-.49-2.48-.34-.77-.77-1.5-1.29-2.16-.55-.71-1.16-1.37-1.81-1.99-.67-.64-1.37-1.28-2.07-1.93s-1.4-1.31-2.07-1.99c-.67-.67-1.27-1.4-1.81-2.18-.53-.77-.97-1.61-1.29-2.49-.34-.94-.51-1.94-.5-2.94a6.94 6.94 0 01.66-3.04c.41-.88 1-1.67 1.73-2.31.72-.64 1.54-1.14 2.44-1.47.9-.34 1.85-.51 2.81-.51.66 0 1.32.05 1.97.17.54.1 1.08.24 1.61.41.48.16.89.31 1.25.47l.87.38-.15 3.99zm19.44 24.46c.43 0 .86-.08 1.27-.23.43-.16.84-.38 1.22-.64.4-.28.78-.59 1.13-.93.36-.35.7-.71 1.01-1.1l.22.11-1.39 3.44c-.17.09-.38.19-.63.31-.29.14-.59.25-.9.34-.4.12-.81.21-1.23.28-.55.08-1.11.12-1.67.12-1.63.1-3.23-.46-4.44-1.55a6.469 6.469 0 01-1.59-4.83V11.71l-3.58.13V9.96c.44.03.97.05 1.58.06.61.01 1.28.02 2 .02-.01-1.01-.04-1.9-.07-2.68-.03-.77-.08-1.45-.13-2.03-.05-.58-.11-1.06-.18-1.46a9.2 9.2 0 00-.22-1v-.09h4.93v.09c-.1.33-.18.66-.23 1-.07.4-.13.88-.18 1.45-.05.57-.09 1.24-.13 2.02-.04.77-.06 1.67-.07 2.7.9-.01 1.77-.03 2.63-.05.86-.02 1.64-.05 2.35-.09.7-.04 1.3-.07 1.79-.11s.81-.07.97-.1l-.38 2.18c-.73-.01-1.49-.04-2.28-.06-.68-.03-1.46-.05-2.35-.06l-2.73-.04v14.68c-.02.73.08 1.45.29 2.14.15.48.41.92.75 1.29.29.3.65.52 1.04.64.39.11.8.17 1.2.17zm22.97 1.65c-1.51.01-3.01-.24-4.44-.75-1.34-.47-2.56-1.22-3.6-2.18-1.05-1-1.88-2.22-2.42-3.57a12.57 12.57 0 01-.89-4.85 12.2 12.2 0 01.81-4.47c.51-1.32 1.27-2.53 2.24-3.57.94-1 2.08-1.81 3.34-2.37 1.3-.57 2.71-.86 4.13-.85 1.39-.01 2.78.24 4.07.76 1.23.49 2.34 1.24 3.25 2.2.96 1.03 1.7 2.24 2.18 3.56.56 1.55.85 3.18.86 4.83-1.61-.03-3.21-.05-4.82-.07-1.61-.01-3.28-.02-5.01-.02-1.24 0-2.44 0-3.62.02-1.17.01-2.23.04-3.17.06.06 1.36.3 2.71.69 4.01.33 1.1.86 2.14 1.56 3.06.64.83 1.47 1.5 2.41 1.95 1 .47 2.1.7 3.21.68.79 0 1.57-.09 2.34-.29.7-.18 1.36-.45 1.99-.8.58-.33 1.12-.73 1.6-1.2.46-.45.86-.95 1.19-1.5l.26.13-1.58 3.79c-.88.44-1.8.78-2.75 1.01-1.26.3-2.55.44-3.84.42zm-2.84-13.01c1.42 0 2.85 0 4.28-.01 1.43 0 2.73-.03 3.89-.07-.11-1.13-.35-2.25-.73-3.33-.31-.9-.77-1.75-1.36-2.49-.53-.66-1.2-1.2-1.97-1.58-.78-.38-1.63-.57-2.49-.55-.79 0-1.57.18-2.27.55-.71.38-1.33.92-1.8 1.57-.55.76-.96 1.6-1.23 2.5-.33 1.1-.52 2.24-.55 3.38.64.03 1.32.04 2.03.04h2.22zm21.32-1.3c0-1.21-.02-2.26-.05-3.17s-.08-1.68-.13-2.34c-.05-.66-.11-1.2-.19-1.64-.06-.37-.15-.74-.25-1.11v-.09h4.93v.09c-.08.24-.14.48-.19.73-.06.27-.11.58-.15.92.88-.5 1.82-.91 2.78-1.23 1.09-.35 2.24-.52 3.38-.5 1.48-.02 2.95.25 4.32.8 1.27.51 2.41 1.29 3.35 2.29.96 1.04 1.7 2.27 2.16 3.6.53 1.52.79 3.12.76 4.73 0 1.44-.25 2.87-.76 4.22-.49 1.33-1.25 2.55-2.22 3.58a10.753 10.753 0 01-3.59 2.48c-1.55.64-3.22.96-4.9.93-1.02 0-2.03-.08-3.03-.25-.85-.16-1.69-.38-2.51-.66v3.11c0 1.21.01 2.26.04 3.17s.07 1.68.13 2.33c.06.66.12 1.2.19 1.64.06.37.14.74.23 1.11v.09h-4.93v-.09c.1-.37.18-.74.24-1.11.08-.44.14-.99.19-1.64.05-.65.09-1.43.13-2.34.04-.9.05-1.96.05-3.17V17.93zm9.39-6.74c-.5 0-1 .06-1.48.18-.51.12-1.01.3-1.49.51-.5.23-.97.5-1.41.83-.44.33-.85.71-1.2 1.14-.03.54-.05 1.15-.06 1.83-.01.68-.02 1.43-.02 2.24v11.17c.3.22.62.42.96.6.39.2.79.37 1.2.5.49.16 1 .28 1.51.35.62.09 1.24.13 1.87.13 1.03.02 2.06-.19 3.01-.6a6.2 6.2 0 002.27-1.72c.65-.82 1.14-1.75 1.43-2.75.35-1.19.52-2.43.5-3.67 0-1.44-.12-2.87-.38-4.28-.21-1.2-.63-2.35-1.23-3.41-.53-.92-1.28-1.7-2.18-2.25-1-.57-2.14-.85-3.29-.81zm38.33-1.56c0-1.21-.01-2.26-.04-3.17-.03-.9-.07-1.68-.13-2.35-.06-.66-.12-1.21-.2-1.65-.06-.37-.15-.74-.25-1.11v-.09c.28.01.58.02.9.02.27.01.57.02.91.02h1.03c.69-.01 1.39-.06 2.07-.15 1.12-.11 2.25-.16 3.38-.15 1.2-.01 2.39.16 3.54.5 1.02.3 1.97.79 2.8 1.44.79.62 1.42 1.41 1.86 2.31.46.98.69 2.04.67 3.12.01.89-.12 1.78-.41 2.63a6.36 6.36 0 01-1.14 2.03c-.5.58-1.1 1.07-1.77 1.45-.72.4-1.48.71-2.27.93 1.14.16 2.25.48 3.31.93.94.4 1.81.95 2.57 1.63a6.84 6.84 0 011.66 2.29c.4.92.6 1.91.59 2.91.18 2.6-.93 5.12-2.96 6.75-1.97 1.5-4.93 2.25-8.87 2.25-.43 0-.92-.02-1.49-.05-.57-.04-1.15-.07-1.74-.12l-1.74-.12c-.57-.04-1.07-.05-1.49-.05h-1.41v-.09c.1-.37.18-.74.25-1.11.08-.44.15-.99.2-1.64.06-.65.1-1.43.13-2.34.03-.9.04-1.96.04-3.17V9.62zm7.83 7.1c-.81 0-1.62.03-2.43.11-.66.07-1.16.15-1.51.22v6.46c0 1.66.03 3.04.09 4.12s.14 1.96.23 2.64c.54.07 1.08.14 1.62.19.54.06.97.08 1.3.09 2.66 0 4.6-.59 5.83-1.78a7.265 7.265 0 001.84-5.47c.01-.9-.14-1.8-.44-2.66-.28-.78-.72-1.49-1.3-2.07a5.752 5.752 0 00-2.18-1.35 8.84 8.84 0 00-3.06-.49zm-3.95-1.6c.4.04.75.07 1.07.07.31 0 .65.01 1 .01.9.01 1.79-.13 2.64-.42.76-.26 1.46-.68 2.04-1.25.58-.59 1.03-1.3 1.31-2.07.33-.93.49-1.92.47-2.91 0-.85-.1-1.7-.34-2.51-.2-.71-.55-1.36-1.01-1.93-.45-.53-1.01-.95-1.65-1.23-.71-.3-1.47-.44-2.24-.43-.47 0-.95.02-1.42.06-.41.04-.75.09-1.03.15-.28.05-.56.12-.83.22v12.23zm31.45 16.47l-7.5-16.42c-.27-.63-.56-1.23-.87-1.8-.31-.58-.61-1.09-.89-1.55-.28-.45-.52-.84-.74-1.14-.21-.31-.36-.5-.43-.59v-.09h5.59v.09c-.04.1-.06.21-.06.32-.01.15-.02.27-.02.38 0 .49.08.98.2 1.46.19.69.45 1.35.76 1.99l5.89 12.8 5.37-12.62c.23-.53.46-1.1.69-1.73.23-.61.35-1.25.35-1.9 0-.15-.01-.31-.04-.46a.75.75 0 00-.09-.25v-.09h3.84v.09c-.38.44-.7.93-.97 1.44-.46.84-.88 1.7-1.25 2.59l-10.17 24.23c-.23.53-.46 1.1-.69 1.73-.23.61-.35 1.25-.35 1.9 0 .15.01.31.04.46.02.09.04.17.09.25v.09h-3.99v-.09c.39-.43.72-.91.99-1.42.46-.82.88-1.68 1.25-2.55l3-7.12zm56.59-26.3l8.53 20.71 8.3-20.32c.28-.7.52-1.41.73-2.13.14-.49.22-.99.23-1.49 0-.13 0-.26-.02-.39 0-.11-.03-.21-.06-.31v-.09h4.22v.09c-.37.45-.69.96-.93 1.49-.33.68-.72 1.53-1.16 2.54L222.6 32.56h-1.62l-8.3-20.13-7.57 20.13h-1.6L193.06 6.48c-.26-.61-.52-1.2-.78-1.77s-.51-1.08-.75-1.54c-.23-.45-.45-.84-.64-1.15-.13-.21-.26-.42-.42-.62v-.09h5.91v.09c-.02.12-.04.24-.04.36v.3c0 .52.06 1.03.16 1.54.15.67.36 1.33.63 1.97l8.02 20.26 7.65-20.39 1.34-.09zm25.4 15.59c-.01-1.54.29-3.06.9-4.47.58-1.34 1.41-2.56 2.46-3.57a11.37 11.37 0 013.7-2.37c1.46-.58 3.02-.87 4.59-.85 1.55-.01 3.08.26 4.53.8 1.37.51 2.63 1.28 3.7 2.27 1.07 1.01 1.92 2.23 2.48 3.58a12 12 0 01.91 4.73c0 1.44-.25 2.87-.76 4.22-.5 1.34-1.27 2.55-2.26 3.58a10.889 10.889 0 01-3.66 2.48c-1.58.64-3.27.96-4.98.93-1.54 0-3.06-.26-4.5-.79a10.97 10.97 0 01-3.69-2.26 10.558 10.558 0 01-2.49-3.57c-.63-1.49-.94-3.1-.92-4.72zm12.09 9.79c.96.01 1.91-.19 2.78-.6.85-.4 1.6-.99 2.18-1.73a8.21 8.21 0 001.43-2.75c.36-1.19.53-2.43.51-3.67.01-1.44-.15-2.88-.48-4.28-.28-1.21-.78-2.37-1.46-3.41a6.925 6.925 0 00-2.44-2.25 6.967 6.967 0 00-3.43-.81c-.96-.01-1.9.19-2.77.59-.84.4-1.59.98-2.18 1.7-.65.8-1.14 1.73-1.44 2.72-.36 1.19-.53 2.42-.51 3.66-.01 1.44.16 2.88.5 4.29.29 1.22.79 2.39 1.48 3.44.62.94 1.46 1.73 2.44 2.28 1.04.57 2.21.85 3.4.83zm20.32-12.33c0-1.21-.02-2.26-.05-3.17-.04-.9-.08-1.68-.13-2.34-.05-.66-.11-1.2-.19-1.64-.06-.37-.15-.74-.25-1.11v-.09h4.93v.09c-.13.39-.23.79-.29 1.19-.09.6-.15 1.21-.18 1.81.53-.44 1.07-.87 1.64-1.3.55-.42 1.14-.8 1.75-1.13.58-.32 1.19-.58 1.82-.79.6-.2 1.23-.3 1.87-.3.33 0 .67.02 1 .05a4.865 4.865 0 011.38.37l.53.22-1.04 4.07-.36-.09c-.15-.59-.49-1.12-.96-1.5-.56-.4-1.23-.6-1.92-.57-.47 0-.94.08-1.39.23-.51.17-1 .39-1.47.66-.52.29-1.01.61-1.49.96-.5.36-.98.74-1.45 1.14-.03.41-.04.86-.04 1.34v7.04c0 1.21.01 2.26.04 3.17.03.9.07 1.68.13 2.34.06.66.12 1.2.19 1.64.06.37.14.74.23 1.11v.08h-4.93v-.09c.1-.37.18-.74.25-1.11.08-.44.14-.99.19-1.64.05-.65.09-1.43.13-2.34.04-.9.05-1.96.05-3.17v-5.16zm21.49-10.04c0-1.21-.02-2.26-.05-3.17-.04-.9-.08-1.68-.13-2.34-.05-.66-.11-1.2-.19-1.64-.06-.37-.15-.74-.25-1.11v-.09h4.93v.09c-.1.36-.18.74-.23 1.11-.07.44-.14.99-.19 1.64-.06.65-.1 1.43-.13 2.34-.03.9-.04 1.96-.04 3.17v10.62l6.97-6.25c1.22-1.07 1.83-1.95 1.83-2.67h4.95v.09c-.37.11-.72.26-1.06.44-.35.19-.68.4-1 .63-.33.24-.68.52-1.04.82s-.76.65-1.18 1.03l-6.25 5.69 8.57 10.13c.26.31.53.63.83.95.3.32.6.61.9.89.28.25.57.49.87.7.24.18.5.31.79.38v.09h-6.18c0-.4-.11-.79-.29-1.15-.29-.54-.63-1.05-1.03-1.51l-7.68-9.13v3.45c0 1.21.01 2.26.04 3.17.03.9.07 1.68.13 2.34.06.66.12 1.2.19 1.64.06.38.13.75.23 1.11v.09h-4.93v-.09c.1-.37.18-.74.25-1.11.08-.44.14-.99.19-1.64.05-.65.09-1.43.13-2.34.04-.9.05-1.96.05-3.17V8.33z" fill="#fff"/></svg>